<?xml version="1.0" encoding="utf-8"?>
<!-- Generator: Adobe Illustrator 25.0.1, SVG Export Plug-In . SVG Version: 6.00 Build 0)  -->
<svg version="1.1" id="Layer_1" xmlns="http://www.w3.org/2000/svg" xmlns:xlink="http://www.w3.org/1999/xlink" x="0px" y="0px"
	 viewBox="0 0 167 167" style="enable-background:new 0 0 167 167;" xml:space="preserve">
<style type="text/css">
	.st0{fill:#FFB703;}
	.st1{fill:#FFFFFF;}
	.st2{fill:none;stroke:#FFFFFF;}
	.st3{fill:#FB8500;}
	.st4{fill:#1D1D1B;}
	.st5{fill:#342326;}
	.st6{fill:none;stroke:#342326;}
</style>
<g id="Group_3141" transform="translate(-81.482 -758.832)">
	<g id="Mask_Group_27" transform="translate(81.482 758.832)">
		<g id="Group_2956" transform="translate(47.872 46.604)">
			<path class="st0" d="M61.4,48.2c-24.1,21.1-13,25.1-17.5,47.7c-1.7,8.4-0.6,15.8,1.4,20.7l40.5,0.2h18.8
				c6.8,0,12.2-5.5,12.2-12.2V63.4C112.4,60.5,85.5,27.1,61.4,48.2z M83.9,97.1c0,0,0-0.1-0.1-0.1c0.4,0,0.9,0,1.3,0
				c0.9-0.1,1.2-0.3,2.6-0.9c-0.2,0.4-1,0.7-2.1,0.9C84.7,97.2,84.2,97.3,83.9,97.1z M91.3,94.7c-0.2,0.2-0.2,0.1-0.7,0.3
				s-0.6,0.3-1.2,0.6c-0.3,0.2-0.5,0.3-0.8,0.3c-0.1,0-0.2-0.1-0.2-0.2c0.5-0.2,1.1-0.5,1.8-0.7c0.5-0.2,1-0.4,1.3-0.5
				C91.5,94.5,91.4,94.6,91.3,94.7z"/>
		</g>
	</g>
	<g id="Ellipse_148" transform="translate(168 826)">
		<circle class="st1" cx="48.8" cy="47.3" r="6"/>
		<circle class="st2" cx="48.8" cy="47.3" r="5.5"/>
	</g>
	<g id="Group_3092" transform="translate(160.227 846.713)">
		<path class="st3" d="M67.8,44.2c-0.7-1.9-2.6-3.1-4.7-2.9c-1.4,0-2.9,0.4-5.5,2.3c-2.5,1.9-1.8,2.5-4.6,3.5s-5.6,0.6-6.5,0.8
			c-2.3,0.3-3.9,2.4-3.7,4.6c0.3,1.4,0.9,2.7,3,4c0.9,0.6,1.9,1.1,3,1.4c1.9,0.5,3.8,0.5,5.7,0.1c2.5-0.5,4.8-1.5,6.9-2.9
			c2.5-1.6,5.1-3.2,6.2-6.3C68.2,47.3,68.3,45.7,67.8,44.2z M54.7,55.7c-0.9,0.2-1.4,0.3-1.7,0.1c0,0,0-0.1-0.1-0.1
			c0.4,0,0.9,0,1.3,0c0.9-0.1,1.2-0.3,2.6-0.9C56.6,55.2,55.7,55.5,54.7,55.7z M60.5,53.4c-0.2,0.2-0.2,0.1-0.7,0.3
			s-0.6,0.3-1.2,0.6c-0.3,0.2-0.5,0.3-0.8,0.3c-0.1,0-0.2-0.1-0.2-0.2c0.5-0.2,1.1-0.5,1.8-0.7c0.5-0.2,1-0.4,1.3-0.5
			C60.6,53.2,60.5,53.3,60.5,53.4z"/>
		<path class="st3" d="M56.8,54.8c-0.2,0.4-1,0.7-2.1,0.9c-0.9,0.2-1.4,0.3-1.7,0.1c0,0,0-0.1-0.1-0.1c0.4,0,0.9,0,1.3,0
			C55.1,55.6,55.4,55.4,56.8,54.8z"/>
		<path class="st4" d="M64.2,48.2c0.1,1.3-0.3,2.6-1.1,3.6c-0.5,0.6-0.9,0.7-2.5,1.4c-0.4,0.2-0.8,0.3-1.3,0.5
			c-0.7,0.3-1.3,0.5-1.8,0.7c-0.3,0.1-0.5,0.2-0.8,0.3c-1.3,0.6-1.7,0.8-2.6,0.9c-0.4,0-0.9,0-1.3,0c-1-0.1-2-0.2-2.9-0.6
			c-1-0.3-1.9-0.8-2.7-1.6c-0.5-0.5-1.5-1.5-1.2-2.4c0.4-1.1,2.3-1.3,2.9-1.4c1.6-0.2,1.8,0.3,3.2,0c1.1-0.2,2.2-0.8,3.1-1.5
			c1.3-1,1.1-1.4,2.4-2.4c0.8-0.7,1.8-1.2,2.9-1.4c0.8-0.2,1.7,0,2.5,0.4C64.2,45.6,64.2,47.2,64.2,48.2z"/>
		<path class="st1" d="M56.8,54.7C56.8,54.7,56.8,54.7,56.8,54.7c-1.4,0.7-1.7,0.9-2.6,1c-0.4,0-0.9,0-1.3,0c-0.1-0.3-0.2-0.6-0.3-1
			c-0.1-0.3-0.1-0.6,0-0.9c0-0.4,0.3-0.8,0.6-1.1c0.3-0.2,0.7-0.4,1.1-0.4c0.4-0.2,0.9-0.2,1.3-0.1c0.3,0.1,0.5,0.3,0.7,0.6
			c0,0.1,0.1,0.1,0.1,0.2c0.1,0.2,0.2,0.5,0.2,0.7C56.7,54,56.7,54.3,56.8,54.7z"/>
		<path class="st3" d="M60.6,53.2c0,0.1-0.1,0.2-0.2,0.2c-0.2,0.2-0.2,0.1-0.7,0.3s-0.6,0.3-1.2,0.6c-0.3,0.2-0.5,0.3-0.8,0.3
			c-0.1,0-0.2-0.1-0.2-0.2c0.5-0.2,1.1-0.5,1.8-0.7C59.8,53.5,60.3,53.3,60.6,53.2z"/>
		<path class="st1" d="M60.6,53.2c-0.4,0.2-0.8,0.3-1.3,0.5c-0.7,0.3-1.3,0.5-1.8,0.7c-0.2-0.2-0.3-0.8-0.8-1.9
			c-0.1-0.3-0.2-0.5-0.2-0.7c0.2-0.6,1.2-0.9,1.4-1c0.3-0.1,0.5-0.1,0.8-0.2c0.3-0.1,0.6-0.1,0.9,0c0.3,0.1,0.5,0.2,0.7,0.4
			c0.1,0.2,0.2,0.5,0.3,0.7c0.1,0.2,0.1,0.4,0.1,0.7C60.8,52.7,60.8,52.9,60.6,53.2z"/>
	</g>
	<g id="Ellipse_222" transform="translate(171 831)">
		<circle class="st5" cx="44.8" cy="43.3" r="2"/>
		<circle class="st6" cx="44.8" cy="43.3" r="1.5"/>
	</g>
	<g id="Ellipse_231" transform="translate(149 835)">
		<circle class="st1" cx="48.8" cy="47.3" r="6"/>
		<circle class="st2" cx="48.8" cy="47.3" r="5.5"/>
	</g>
	<g id="Ellipse_221" transform="translate(155 839)">
		<circle class="st5" cx="44.8" cy="43.3" r="2"/>
		<circle class="st6" cx="44.8" cy="43.3" r="1.5"/>
	</g>
</g>
</svg>
