<?xml version="1.0" encoding="utf-8"?>
<!-- Generator: Adobe Illustrator 25.0.1, SVG Export Plug-In . SVG Version: 6.00 Build 0)  -->
<svg version="1.1" id="Layer_1" xmlns="http://www.w3.org/2000/svg" xmlns:xlink="http://www.w3.org/1999/xlink" x="0px" y="0px"
	 viewBox="0 0 167 167" style="enable-background:new 0 0 167 167;" xml:space="preserve">
<style type="text/css">
	.st0{fill:#FFB703;}
	.st1{fill:#FFFFFF;}
	.st2{fill:none;stroke:#FFFFFF;}
	.st3{fill:#FB8500;}
	.st4{fill:#1D1D1B;}
	.st5{fill:#342326;}
	.st6{fill:none;stroke:#342326;}
</style>
<g id="Group_3141" transform="translate(-81.482 -758.832)">
	<g id="Mask_Group_27" transform="translate(81.482 758.832)">
		<g id="Group_2956" transform="translate(47.872 46.604)">
			<path class="st0" d="M63.7,51.8c-24.1,21.1-13,25.1-17.5,47.7c-1.7,8.4-0.7,16,1.3,20.9h40.6h18.8c6.8,0,12.2-5.5,12.2-12.2V67
				C114.7,64.1,87.8,30.7,63.7,51.8z M86.2,100.7C86.2,100.7,86.2,100.6,86.2,100.7c0.3-0.1,0.8-0.1,1.2-0.1
				c0.9-0.1,1.2-0.3,2.6-0.9c-0.2,0.4-1,0.7-2.1,0.9C87,100.8,86.5,100.9,86.2,100.7z M93.6,98.3c-0.2,0.2-0.2,0.1-0.7,0.3
				s-0.6,0.3-1.2,0.6c-0.3,0.2-0.5,0.3-0.8,0.3c-0.1,0-0.2-0.1-0.2-0.2c0.5-0.2,1.1-0.5,1.8-0.7c0.5-0.2,1-0.4,1.3-0.5
				C93.8,98.1,93.7,98.2,93.6,98.3z"/>
		</g>
	</g>
	<g id="Ellipse_148" transform="translate(168 826)">
		<circle class="st1" cx="51.1" cy="50.9" r="6"/>
		<circle class="st2" cx="51.1" cy="50.9" r="5.5"/>
	</g>
	<g id="Group_3092" transform="translate(160.227 846.713)">
		<path class="st3" d="M70.1,47.8c-0.7-1.9-2.6-3.1-4.7-2.9c-1.4,0-2.9,0.4-5.5,2.3c-2.5,1.9-1.8,2.5-4.6,3.5s-5.6,0.6-6.5,0.8
			c-2.3,0.3-3.9,2.4-3.7,4.6c0.3,1.4,0.9,2.7,3,4c0.9,0.6,1.9,1.1,3,1.4c1.9,0.5,3.8,0.5,5.7,0.1c2.5-0.5,4.8-1.5,6.9-2.9
			c2.5-1.6,5.1-3.2,6.2-6.3C70.5,50.9,70.6,49.3,70.1,47.8z M57,59.3c-0.9,0.2-1.4,0.3-1.7,0.1c0,0,0-0.1-0.1-0.1c0.4,0,0.9,0,1.3,0
			c0.9-0.1,1.2-0.3,2.6-0.9C58.9,58.8,58,59.1,57,59.3z M62.8,57c-0.2,0.2-0.2,0.1-0.7,0.3s-0.6,0.3-1.2,0.6
			c-0.3,0.2-0.5,0.3-0.8,0.3c-0.1,0-0.2-0.1-0.2-0.2c0.5-0.2,1.1-0.5,1.8-0.7c0.5-0.2,1-0.4,1.3-0.5C62.9,56.8,62.8,56.9,62.8,57z"
			/>
		<path class="st3" d="M59.1,58.4c-0.2,0.4-1,0.7-2.1,0.9c-0.9,0.2-1.4,0.3-1.7,0.1c0,0,0-0.1-0.1-0.1c0.4,0,0.9,0,1.3,0
			C57.4,59.2,57.7,59,59.1,58.4z"/>
		<path class="st4" d="M66.5,51.8c0.1,1.3-0.3,2.6-1.1,3.6c-0.5,0.6-0.9,0.7-2.5,1.4c-0.4,0.2-0.8,0.3-1.3,0.5
			c-0.7,0.3-1.3,0.5-1.8,0.7c-0.3,0.1-0.5,0.2-0.8,0.3c-1.3,0.6-1.7,0.8-2.6,0.9c-0.4,0-0.9,0-1.3,0c-1-0.1-2-0.2-2.9-0.6
			c-1-0.3-1.9-0.8-2.7-1.6c-0.5-0.5-1.5-1.5-1.2-2.4c0.4-1.1,2.3-1.3,2.9-1.4c1.6-0.2,1.8,0.3,3.2,0c1.1-0.2,2.2-0.8,3.1-1.5
			c1.3-1,1.1-1.4,2.4-2.4c0.8-0.7,1.8-1.2,2.9-1.4c0.8-0.2,1.7,0,2.5,0.4C66.5,49.2,66.5,50.8,66.5,51.8z"/>
		<path class="st1" d="M59.1,58.3L59.1,58.3c-1.4,0.7-1.7,0.9-2.6,1c-0.4,0-0.9,0-1.3,0c-0.1-0.3-0.2-0.6-0.3-1
			c-0.1-0.3-0.1-0.6,0-0.9c0-0.4,0.3-0.8,0.6-1.1c0.3-0.2,0.7-0.4,1.1-0.4c0.4-0.2,0.9-0.2,1.3-0.1c0.3,0.1,0.5,0.3,0.7,0.6
			c0,0.1,0.1,0.1,0.1,0.2c0.1,0.2,0.2,0.5,0.2,0.7C59,57.6,59,57.9,59.1,58.3z"/>
		<path class="st3" d="M62.9,56.8c0,0.1-0.1,0.2-0.2,0.2c-0.2,0.2-0.2,0.1-0.7,0.3s-0.6,0.3-1.2,0.6c-0.3,0.2-0.5,0.3-0.8,0.3
			c-0.1,0-0.2-0.1-0.2-0.2c0.5-0.2,1.1-0.5,1.8-0.7C62.1,57.1,62.6,56.9,62.9,56.8z"/>
		<path class="st1" d="M62.9,56.8c-0.4,0.2-0.8,0.3-1.3,0.5c-0.7,0.3-1.3,0.5-1.8,0.7c-0.2-0.2-0.3-0.8-0.8-1.9
			c-0.1-0.3-0.2-0.5-0.2-0.7c0.2-0.6,1.2-0.9,1.4-1c0.3-0.1,0.5-0.1,0.8-0.2c0.3-0.1,0.6-0.1,0.9,0c0.3,0.1,0.5,0.2,0.7,0.4
			c0.1,0.2,0.2,0.5,0.3,0.7S63,55.7,63,56C63.1,56.3,63.1,56.5,62.9,56.8z"/>
	</g>
	<g id="Ellipse_222" transform="translate(171 831)">
		<circle class="st5" cx="47.1" cy="46.9" r="2"/>
		<circle class="st6" cx="47.1" cy="46.9" r="1.5"/>
	</g>
	<g id="Ellipse_231" transform="translate(149 835)">
		<circle class="st1" cx="51.1" cy="50.9" r="6"/>
		<circle class="st2" cx="51.1" cy="50.9" r="5.5"/>
	</g>
	<g id="Ellipse_221" transform="translate(155 839)">
		<circle class="st5" cx="47.1" cy="46.9" r="2"/>
		<circle class="st6" cx="47.1" cy="46.9" r="1.5"/>
	</g>
</g>
</svg>
