<?xml version="1.0" encoding="utf-8"?>
<!-- Generator: Adobe Illustrator 25.1.0, SVG Export Plug-In . SVG Version: 6.00 Build 0)  -->
<svg version="1.1" id="Layer_1" xmlns="http://www.w3.org/2000/svg" xmlns:xlink="http://www.w3.org/1999/xlink" x="0px" y="0px"
	 viewBox="0 0 56 56" style="enable-background:new 0 0 56 56;" xml:space="preserve">
<style type="text/css">
	.st0{fill:#0D3046;}
	.st1{fill:none;}
	.st2{fill:#FFFFFF;}
</style>
<path id="Rectangle_2547" class="st0" d="M0,0h46c5.5,0,10,4.5,10,10v46l0,0L0,0L0,0z"/>
<rect id="Rectangle_862" x="29.9" y="6" class="st1" width="20" height="20"/>
<path id="Path_10988" class="st2" d="M44.7,14l1.5-2.7c0.1-0.3,0-0.6-0.2-0.7c-0.2-0.1-0.5,0-0.7,0.2l-1.6,2.7c-2.4-1-5.1-1-7.5,0
	l-1.6-2.7c-0.1-0.3-0.5-0.3-0.7-0.2c-0.3,0.1-0.3,0.5-0.2,0.7l1.5,2.7c-2.6,1.5-4.3,4.2-4.5,7.2h18.5C49,18.1,47.3,15.5,44.7,14z
	 M35.8,18.8c-0.6,0-1.1-0.5-1.1-1.1c0-0.6,0.5-1.1,1.1-1.1s1.1,0.5,1.1,1.1l0,0C36.8,18.3,36.3,18.8,35.8,18.8
	C35.8,18.8,35.8,18.8,35.8,18.8L35.8,18.8z M44.2,18.8c-0.6,0-1.1-0.5-1.1-1c0-0.6,0.5-1.1,1-1.1c0.6,0,1.1,0.5,1.1,1.1c0,0,0,0,0,0
	C45.2,18.3,44.7,18.8,44.2,18.8L44.2,18.8z"/>
</svg>
