<?xml version="1.0" encoding="utf-8"?>
<!-- Generator: Adobe Illustrator 25.0.1, SVG Export Plug-In . SVG Version: 6.00 Build 0)  -->
<svg version="1.1" id="Layer_1" xmlns="http://www.w3.org/2000/svg" xmlns:xlink="http://www.w3.org/1999/xlink" x="0px" y="0px"
	 viewBox="0 0 167 167" style="enable-background:new 0 0 167 167;" xml:space="preserve">
<style type="text/css">
	.st0{display:none;}
	.st1{display:inline;}
	.st2{fill:#FFB703;}
	.st3{fill:#FFFFFF;}
	.st4{fill:none;stroke:#FFFFFF;}
	.st5{fill:#FB8500;}
	.st6{fill:#1D1D1B;}
	.st7{fill:#342326;}
	.st8{fill:none;stroke:#342326;}
	.st9{display:none;opacity:0.45;fill:#FF0000;stroke:#000000;stroke-miterlimit:10;enable-background:new    ;}
	.st10{fill:#219EBC;}
	.st11{fill:none;}
	.st12{fill:#8EC9E6;}
	.st13{fill:none;stroke:#1D1D1B;stroke-width:2;}
</style>
<g id="Group_3141" transform="translate(-81.482 -758.832)" class="st0">
	<g id="Mask_Group_27" transform="translate(81.482 758.832)" class="st1">
		<g id="Group_2956" transform="translate(47.872 46.604)">
			<path class="st2" d="M116.8,63.4v41.2c0,6.7-5.4,12.2-12.2,12.2H85.8l-40.5-0.2c-2-4.9-3.1-12.3-1.4-20.7
				c4.5-22.6-6.6-26.6,17.5-47.7S112.4,60.5,116.8,63.4z"/>
		</g>
	</g>
	<g id="Ellipse_148" transform="translate(168 826)" class="st1">
		<circle class="st3" cx="48.8" cy="47.3" r="6"/>
		<circle class="st4" cx="48.8" cy="47.3" r="5.5"/>
	</g>
	<g id="Group_3092" transform="translate(160.227 846.713)" class="st1">
		<path id="Path_13988" class="st5" d="M45.8,56.5c0.9,0.6,1.9,1.1,3,1.4c1.9,0.5,3.8,0.5,5.7,0.1c2.5-0.5,4.8-1.5,6.9-2.9
			c2.5-1.6,5.1-3.2,6.2-6.3c0.6-1.5,0.7-3.1,0.2-4.6c-0.7-1.9-2.6-3.1-4.7-2.9c-1.4,0-2.9,0.4-5.5,2.3c-2.5,1.9-1.8,2.5-4.6,3.5
			s-5.6,0.6-6.5,0.8c-2.3,0.3-3.9,2.4-3.7,4.6C43.1,53.9,43.7,55.2,45.8,56.5L45.8,56.5z"/>
		<path id="Path_13989" class="st6" d="M50,55.1c-1-0.3-1.9-0.8-2.7-1.6c-0.5-0.5-1.5-1.5-1.2-2.4c0.4-1.1,2.3-1.3,2.9-1.4
			c1.6-0.2,1.8,0.3,3.2,0c1.1-0.2,2.2-0.8,3.1-1.5c1.3-1,1.1-1.4,2.4-2.4c0.8-0.7,1.8-1.2,2.9-1.4c0.8-0.2,1.7,0,2.5,0.4
			c1.1,0.8,1.1,2.4,1.1,3.4c0.1,1.3-0.3,2.6-1.1,3.6c-0.6,0.7-1.1,0.8-3.8,1.9c-3.7,1.5-3.8,1.8-5.1,2C52.8,55.7,51.4,55.6,50,55.1
			L50,55.1z"/>
		<path id="Path_13990" class="st3" d="M52.6,54.7c-0.1-0.3-0.1-0.6,0-0.9c0-0.4,0.3-0.8,0.6-1.1c0.3-0.2,0.7-0.4,1.1-0.4
			c0.4-0.2,0.9-0.2,1.3-0.1c0.3,0.1,0.5,0.3,0.7,0.6c0,0.1,0.1,0.1,0.1,0.2c0.1,0.2,0.2,0.5,0.2,0.7c0.1,0.3,0.1,0.6,0.2,1
			c-0.1,0.5-1,0.8-2.1,1c-0.9,0.2-1.4,0.3-1.7,0.1C52.8,55.4,52.7,55.1,52.6,54.7L52.6,54.7z"/>
		<path id="Path_13991" class="st3" d="M57.6,54.3c-0.4-0.1-0.4-0.6-1-2.1c-0.1-0.3-0.2-0.5-0.2-0.7c0.2-0.6,1.2-0.9,1.4-1
			c0.3-0.1,0.5-0.1,0.8-0.2c0.3-0.1,0.6-0.1,0.9,0c0.3,0.1,0.5,0.2,0.7,0.4c0.1,0.2,0.2,0.5,0.3,0.7s0.1,0.4,0.1,0.7
			c0.1,0.4,0,0.7-0.3,1c-0.2,0.2-0.2,0.1-0.7,0.3S59,53.7,58.4,54C58.1,54.2,57.9,54.3,57.6,54.3L57.6,54.3z"/>
	</g>
	<g id="Ellipse_222" transform="translate(171 831)" class="st1">
		<circle class="st7" cx="44.8" cy="43.3" r="2"/>
		<circle class="st8" cx="44.8" cy="43.3" r="1.5"/>
	</g>
	<g id="Ellipse_231" transform="translate(149 835)" class="st1">
		<circle class="st3" cx="48.8" cy="47.3" r="6"/>
		<circle class="st4" cx="48.8" cy="47.3" r="5.5"/>
	</g>
	<g id="Ellipse_221" transform="translate(155 839)" class="st1">
		<circle class="st7" cx="44.8" cy="43.3" r="2"/>
		<circle class="st8" cx="44.8" cy="43.3" r="1.5"/>
	</g>
</g>
<path class="st9" d="M164.6,15.8v135.3c0,6.7-5.4,12.2-12.2,12.2H14.6c-6.7,0-12.2-5.5-12.2-12.2V15.8c0-6.7,5.5-12.2,12.2-12.2
	h137.9C159.2,3.7,164.6,9.1,164.6,15.8z"/>
<g id="Group_3148" transform="translate(-258.52 -759.151)">
	<g id="Mask_Group_27_1_" transform="translate(258.52 759.15)">
		<g id="Group_2956_1_" transform="translate(52.086 60.968)">
			<path class="st10" d="M114.9,52.2v41.6c0,6.7-5.4,12.2-12.2,12.2H51.3c-4.2-3.6-0.9-10.2-4.9-21.7c-5.7-16.1-12.7-32,16.1-45.1
				C84.4,29.1,107.9,42.8,114.9,52.2z"/>
		</g>
	</g>
	<path id="Path_13814" class="st11" d="M370.2,881.3c0,0.4,0.1,0.8,0.3,1.2c0.2,0.6,0.6,1.1,1.1,1.4c0.3,0.3,0.7,0.4,1.1,0.5
		c0.8,0.2,1.7,0,2.4-0.5c0.7-0.4,1.2-1,1.5-1.8c0.3-0.6,0.5-1.2,0.6-1.9c0-1.3-0.9-3-2.3-3.2c-0.8-0.1-1.6,0.1-2.3,0.6
		c-0.7,0.4-1.2,0.9-1.6,1.6C370.6,879.9,370.3,880.6,370.2,881.3z"/>
	<path id="Path_13816" class="st11" d="M387.1,875.7c-0.4,0.4-0.6,0.9-0.8,2.1c-0.3,1.5-0.5,2.3-0.2,2.9c0.6,1.4,2,2.4,3.5,2.4
		c1.4,0,2.7-0.7,3.5-1.8c0.7-1.1,0.8-2.5,0.2-3.6c-0.6-1.2-1.8-2-3.1-2.3C389.7,875.3,388.1,874.9,387.1,875.7z"/>
	<rect id="Rectangle_2491" x="368.8" y="869.4" class="st11" width="25.5" height="35"/>
	<path id="Path_13818" class="st11" d="M371.7,883.6c0,0.4,0.1,0.8,0.3,1.2c0.2,0.6,0.6,1.1,1.1,1.4c0.3,0.3,0.7,0.4,1.1,0.5
		c0.8,0.2,1.7,0,2.4-0.5c0.7-0.4,1.2-1,1.5-1.8c0.3-0.6,0.5-1.2,0.6-1.9c0-1.3-0.9-3-2.3-3.2c-0.8-0.1-1.6,0.1-2.3,0.6
		c-0.7,0.4-1.2,0.9-1.6,1.6C372.1,882.2,371.8,882.9,371.7,883.6z"/>
	<path id="Path_13820" class="st11" d="M388.6,878c-0.4,0.4-0.6,0.9-0.8,2.1c-0.3,1.5-0.5,2.3-0.2,2.9c0.6,1.4,2,2.4,3.5,2.4
		c1.4,0,2.7-0.7,3.5-1.8c0.7-1.1,0.8-2.5,0.2-3.6c-0.6-1.2-1.8-2-3.1-2.3C391.3,877.6,389.6,877.2,388.6,878z"/>
	<g id="Group_3077" transform="translate(333.621 853.564)">
		<path class="st12" d="M69.4,42.7c-0.4-3.3,1.7-4.6,0.7-6c-0.5-0.7-1.5-1-9.8-1c-2.9,0-2.3,0-8.7,0.2c-6.2,0.2-7.9,0.2-8.6,1.3
			c-0.6,1.1,0.5,1.8,0.3,4.1c-0.3,2.9-2.5,3.4-1.9,5c0.7,2.3,4.6,3.9,7.1,3.3c1.1-0.2,1.2-0.7,3-1.3c1.4-0.4,2.8-0.7,4.3-0.7
			c0.5,0,0.9,0,1.4,0.1c1.7,0.2,3.4,0.6,5.1,1.2c3.1,0.9,7.6,0.4,8.5-1.4C71.4,46.3,69.8,45.5,69.4,42.7z M61.1,38.6
			C60,38.8,58.8,39,57.3,39H57C58.7,39.5,60.9,38.9,61.1,38.6z M56,39c-1.7-0.1-3.2-0.3-4.4-0.6C52.1,39,55.3,39.3,56,39z"/>
		<path class="st6" d="M65,46.7c-0.4,0.5-1.5,0.4-2.6,0.1l0,0c-0.4-0.1-0.7-0.2-1-0.2c-0.8-0.2-1.3-0.4-1.7-0.6
			c-0.6-0.3-1-0.6-2.1-0.8c-1.2-0.3-2.6-0.4-3.9-0.1c-0.2,0-0.5,0.1-0.7,0.2c-0.6,0.2-1.2,0.5-1.7,0.9c-0.2,0.1-0.4,0.2-0.6,0.3
			c-0.1,0-0.2,0.1-0.4,0.1c-0.9,0.2-2.5,0.1-2.8-0.5s1.1-1.2,1.4-2.9c0-0.9-0.1-1.7-0.4-2.5c-0.5-1.9-1.1-2.2-1-2.7
			c0.4-0.6,1.9-0.1,4.2,0.4c1.3,0.3,2.8,0.5,4.4,0.6c0.3,0,0.6,0,1,0h0.3c1.5,0,2.7-0.2,3.8-0.4l0,0c1.8-0.3,2.9-0.6,3.3,0
			c0.6,0.8-1.5,2-0.9,3.8c0.3,0.9,1,1.2,1.4,2.7C65.1,45.9,65.3,46.4,65,46.7z"/>
		<path class="st3" d="M56.1,39.1v1.1c0,0.3,0,0.6-0.1,0.9c0,0.1-0.1,0.2-0.1,0.3c-0.1,0.4-0.4,0.6-0.7,0.8
			c-0.5,0.2-1.1,0.2-1.6,0.1c-0.5,0-1-0.1-1.5-0.3c-0.4-0.3-0.7-0.7-0.9-1.2C51,40.4,51,40.1,51,39.7c0-0.5,0-0.9,0.3-1.2
			c0.1-0.1,0.1-0.1,0.3-0.2c1.3,0.3,2.8,0.5,4.4,0.6C56.1,39,56.1,39.1,56.1,39.1z"/>
		<path class="st3" d="M63.3,45.5c0,0.2-0.1,0.4-0.2,0.5c-0.1,0.2-0.1,0.3-0.2,0.4c-0.2,0.2-0.3,0.3-0.5,0.4l0,0
			c-0.4-0.1-0.7-0.2-1-0.2c-0.8-0.2-1.3-0.4-1.7-0.6c0-0.2,0.2-0.6,0.5-1.4c0.1-0.3,0.1-0.4,0.2-0.5c0.4-0.3,1.3,0.1,1.5,0.1
			c0.2,0.1,0.4,0.2,0.6,0.3c0.2,0.1,0.5,0.3,0.6,0.4C63.1,45.1,63.2,45.3,63.3,45.5z"/>
		<path class="st3" d="M52.9,45.3c-0.6,0.2-1.2,0.5-1.7,0.9c-0.2,0.1-0.4,0.2-0.6,0.3c-0.3-0.1-0.5-0.3-0.7-0.6
			c-0.1-0.1-0.2-0.3-0.3-0.5s-0.1-0.4-0.2-0.6c0-0.2,0.1-0.4,0.2-0.6c0.2-0.2,0.4-0.3,0.6-0.4c0.2-0.1,0.4-0.1,0.6-0.2
			c0.2-0.1,1.1-0.3,1.5,0c0.1,0.1,0.1,0.2,0.2,0.6C52.7,44.8,52.9,45.1,52.9,45.3z"/>
		<path class="st3" d="M62.1,40.8c-0.1,0.3-0.3,0.6-0.5,0.8c-0.3,0.3-0.7,0.4-1,0.5s-0.6,0.1-0.9,0.2c-0.3,0-1.6,0.2-2.1-0.3
			c-0.1-0.2-0.1-0.4-0.2-0.8C57.2,40,57,39.4,57,39h0.3c1.5,0,2.7-0.2,3.8-0.4l0,0c0.2,0.2,0.4,0.4,0.6,0.7c0.2,0.2,0.2,0.4,0.3,0.7
			C62,40.2,62.1,40.5,62.1,40.8z"/>
	</g>
	<g id="Ellipse_149" transform="translate(332 836)">
		<circle class="st3" cx="47.3" cy="41.6" r="6"/>
		<circle class="st4" cx="47.3" cy="41.6" r="5.5"/>
	</g>
	<g id="Ellipse_150" transform="translate(353 835)">
		<circle class="st3" cx="47.3" cy="41.6" r="6"/>
		<circle class="st4" cx="47.3" cy="41.6" r="5.5"/>
	</g>
	<g id="Ellipse_153" transform="translate(355 839)">
		<circle class="st7" cx="43.3" cy="37.6" r="2"/>
		<circle class="st8" cx="43.3" cy="37.6" r="1.5"/>
	</g>
	<g id="Ellipse_220" transform="translate(338 840)">
		<circle class="st7" cx="43.3" cy="37.6" r="2"/>
		<circle class="st8" cx="43.3" cy="37.6" r="1.5"/>
	</g>
	<line id="Line_258" class="st13" x1="373.8" y1="870.1" x2="385.8" y2="874.1"/>
	<line id="Line_259" class="st13" x1="393.8" y1="873.1" x2="405.8" y2="869.1"/>
</g>
</svg>
