<svg id="Layer_1" data-name="Layer 1" xmlns="http://www.w3.org/2000/svg" viewBox="0 0 167 167"><defs><style>.cls-1{fill:#ffb703;}.cls-2{fill:#fcb704;}.cls-3{fill:#1d1d1b;}.cls-4{fill:#fff;}.cls-5,.cls-7{fill:none;}.cls-5{stroke:#fff;}.cls-6{fill:#342326;}.cls-7{stroke:#342326;}</style></defs><g id="Group_3093" data-name="Group 3093"><g id="Mask_Group_27" data-name="Mask Group 27"><g id="Group_2956" data-name="Group 2956"><path class="cls-1" d="M167,108.6v46.2a12.18,12.18,0,0,1-12.2,12.2H98.67c-11.4-15.2-16.2-47.6,2.4-63.9C125.07,82.1,161.87,105.2,167,108.6Z"/></g></g><path id="Path_14021" data-name="Path 14021" class="cls-2" d="M109.71,139a14.45,14.45,0,0,1,2.8-3.7,14.86,14.86,0,0,1,7.1-3.5,24.76,24.76,0,0,1,10.5-.3c4.1.6,8.4,1.2,11.8,4.6a10.14,10.14,0,0,1,3.2,6c.3,3-1.3,6.4-4,7.6-1.7.8-3.9.3-8.4-.8-4.3-1-5.1-1.8-7.9-1.7a19.11,19.11,0,0,0-5.3,1c-2.2.8-2.2,1.4-3.6,1.8-3.1.8-7.8-1.3-8.7-4.3-.4-1.9.7-3.7,2.5-6.7Z"/><path id="Path_14022" data-name="Path 14022" class="cls-3" d="M115.91,138.25a8,8,0,0,0-2.3,3.7c-.3,1-.9,3,.1,4,1.1,1.2,3.7.4,4.5.2,2.1-.6,2.1-1.5,4-2a9.77,9.77,0,0,1,4.8.2c2.2.5,2.2,1.2,4.6,1.8a9,9,0,0,0,4.6.2,4.47,4.47,0,0,0,2.8-2c.9-1.8-.1-3.8-.8-5.2a8.47,8.47,0,0,0-3.6-4.1c-1.2-.6-1.9-.4-6-.2-5.6.2-5.9-.1-7.7.4a11.21,11.21,0,0,0-5,3Z"/><path id="Path_14023" data-name="Path 14023" class="cls-4" d="M127.41,136.05a3.92,3.92,0,0,0,.4,1.8,3,3,0,0,0,1.2,1.7c.2.2.6.4,3,.4s2.7-.3,2.9-.5c.3-.4.3-.9.3-2,0-1.5,0-2.2-.5-2.7s-1.4-.4-3.2-.3c-.8,0-.9.1-1.5.1-1,0-1.3-.2-1.7,0a2,2,0,0,0-.9,1.5Z"/><path id="Path_14024" data-name="Path 14024" class="cls-4" d="M118.41,136.05a3.92,3.92,0,0,0,.4,1.8,3,3,0,0,0,1.2,1.7c.2.2.6.4,3,.4s2.7-.3,2.9-.5c.3-.4.3-.9.3-2,0-1.5,0-2.2-.5-2.7s-1.4-.4-3.2-.3c-.8,0-.9.1-1.5.1-1,0-1.3-.2-1.7,0a2,2,0,0,0-.9,1.5Z"/><g id="Ellipse_196" data-name="Ellipse 196"><circle class="cls-4" cx="116.73" cy="113.17" r="6"/><circle class="cls-5" cx="116.73" cy="113.17" r="5.5"/></g><g id="Ellipse_198" data-name="Ellipse 198"><circle class="cls-4" cx="137.73" cy="112.17" r="6"/><circle class="cls-5" cx="137.73" cy="112.17" r="5.5"/></g><g id="Ellipse_199" data-name="Ellipse 199"><circle class="cls-6" cx="136.73" cy="113.17" r="2"/><circle class="cls-7" cx="136.73" cy="113.17" r="1.5"/></g><g id="Ellipse_210" data-name="Ellipse 210"><circle class="cls-6" cx="117.73" cy="114.17" r="2"/><circle class="cls-7" cx="117.73" cy="114.17" r="1.5"/></g></g></svg>