<?xml version="1.0" encoding="utf-8"?>
<!-- Generator: Adobe Illustrator 25.0.1, SVG Export Plug-In . SVG Version: 6.00 Build 0)  -->
<svg version="1.1" id="Layer_1" xmlns="http://www.w3.org/2000/svg" xmlns:xlink="http://www.w3.org/1999/xlink" x="0px" y="0px"
	 viewBox="0 0 167 167" style="enable-background:new 0 0 167 167;" xml:space="preserve">
<style type="text/css">
	.st0{display:none;}
	.st1{display:inline;}
	.st2{fill:#FFB703;}
	.st3{fill:#FFFFFF;}
	.st4{fill:none;stroke:#FFFFFF;}
	.st5{fill:#FB8500;}
	.st6{fill:#1D1D1B;}
	.st7{fill:#342326;}
	.st8{fill:none;stroke:#342326;}
	.st9{display:none;opacity:0.45;fill:#FF0000;stroke:#000000;stroke-miterlimit:10;enable-background:new    ;}
	.st10{fill:#219EBC;}
	.st11{display:inline;fill:none;}
	.st12{fill:#8EC9E6;}
	.st13{display:inline;fill:none;stroke:#1D1D1B;stroke-width:2;}
</style>
<g id="Group_3141" transform="translate(-81.482 -758.832)" class="st0">
	<g id="Mask_Group_27" transform="translate(81.482 758.832)" class="st1">
		<g id="Group_2956" transform="translate(47.872 46.604)">
			<path class="st2" d="M116.8,63.4v41.2c0,6.7-5.4,12.2-12.2,12.2H85.8l-40.5-0.2c-2-4.9-3.1-12.3-1.4-20.7
				c4.5-22.6-6.6-26.6,17.5-47.7S112.4,60.5,116.8,63.4z"/>
		</g>
	</g>
	<g id="Ellipse_148" transform="translate(168 826)" class="st1">
		<circle class="st3" cx="48.8" cy="47.3" r="6"/>
		<circle class="st4" cx="48.8" cy="47.3" r="5.5"/>
	</g>
	<g id="Group_3092" transform="translate(160.227 846.713)" class="st1">
		<path id="Path_13988" class="st5" d="M45.8,56.5c0.9,0.6,1.9,1.1,3,1.4c1.9,0.5,3.8,0.5,5.7,0.1c2.5-0.5,4.8-1.5,6.9-2.9
			c2.5-1.6,5.1-3.2,6.2-6.3c0.6-1.5,0.7-3.1,0.2-4.6c-0.7-1.9-2.6-3.1-4.7-2.9c-1.4,0-2.9,0.4-5.5,2.3c-2.5,1.9-1.8,2.5-4.6,3.5
			s-5.6,0.6-6.5,0.8c-2.3,0.3-3.9,2.4-3.7,4.6C43.1,53.9,43.7,55.2,45.8,56.5L45.8,56.5z"/>
		<path id="Path_13989" class="st6" d="M50,55.1c-1-0.3-1.9-0.8-2.7-1.6c-0.5-0.5-1.5-1.5-1.2-2.4c0.4-1.1,2.3-1.3,2.9-1.4
			c1.6-0.2,1.8,0.3,3.2,0c1.1-0.2,2.2-0.8,3.1-1.5c1.3-1,1.1-1.4,2.4-2.4c0.8-0.7,1.8-1.2,2.9-1.4c0.8-0.2,1.7,0,2.5,0.4
			c1.1,0.8,1.1,2.4,1.1,3.4c0.1,1.3-0.3,2.6-1.1,3.6c-0.6,0.7-1.1,0.8-3.8,1.9c-3.7,1.5-3.8,1.8-5.1,2C52.8,55.7,51.4,55.6,50,55.1
			L50,55.1z"/>
		<path id="Path_13990" class="st3" d="M52.6,54.7c-0.1-0.3-0.1-0.6,0-0.9c0-0.4,0.3-0.8,0.6-1.1c0.3-0.2,0.7-0.4,1.1-0.4
			c0.4-0.2,0.9-0.2,1.3-0.1c0.3,0.1,0.5,0.3,0.7,0.6c0,0.1,0.1,0.1,0.1,0.2c0.1,0.2,0.2,0.5,0.2,0.7c0.1,0.3,0.1,0.6,0.2,1
			c-0.1,0.5-1,0.8-2.1,1c-0.9,0.2-1.4,0.3-1.7,0.1C52.8,55.4,52.7,55.1,52.6,54.7L52.6,54.7z"/>
		<path id="Path_13991" class="st3" d="M57.6,54.3c-0.4-0.1-0.4-0.6-1-2.1c-0.1-0.3-0.2-0.5-0.2-0.7c0.2-0.6,1.2-0.9,1.4-1
			c0.3-0.1,0.5-0.1,0.8-0.2c0.3-0.1,0.6-0.1,0.9,0c0.3,0.1,0.5,0.2,0.7,0.4c0.1,0.2,0.2,0.5,0.3,0.7s0.1,0.4,0.1,0.7
			c0.1,0.4,0,0.7-0.3,1c-0.2,0.2-0.2,0.1-0.7,0.3S59,53.7,58.4,54C58.1,54.2,57.9,54.3,57.6,54.3L57.6,54.3z"/>
	</g>
	<g id="Ellipse_222" transform="translate(171 831)" class="st1">
		<circle class="st7" cx="44.8" cy="43.3" r="2"/>
		<circle class="st8" cx="44.8" cy="43.3" r="1.5"/>
	</g>
	<g id="Ellipse_231" transform="translate(149 835)" class="st1">
		<circle class="st3" cx="48.8" cy="47.3" r="6"/>
		<circle class="st4" cx="48.8" cy="47.3" r="5.5"/>
	</g>
	<g id="Ellipse_221" transform="translate(155 839)" class="st1">
		<circle class="st7" cx="44.8" cy="43.3" r="2"/>
		<circle class="st8" cx="44.8" cy="43.3" r="1.5"/>
	</g>
</g>
<path class="st9" d="M164.6,15.8v135.3c0,6.7-5.4,12.2-12.2,12.2H14.6c-6.7,0-12.2-5.5-12.2-12.2V15.8c0-6.7,5.5-12.2,12.2-12.2
	h137.9C159.2,3.7,164.6,9.1,164.6,15.8z"/>
<g id="Group_3148" transform="translate(-258.52 -759.151)" class="st0">
	<g id="Mask_Group_27_1_" transform="translate(258.52 759.15)" class="st1">
		<g id="Group_2956_1_" transform="translate(52.086 60.968)">
			<path class="st10" d="M112.5,48.6v41.6c0,6.7-5.4,12.2-12.2,12.2H48.9C44.7,98.8,48,92.2,44,80.7c-5.7-16.1-12.7-32,16.1-45.1
				C82,25.5,105.5,39.2,112.5,48.6z"/>
		</g>
	</g>
	<path id="Path_13814" class="st11" d="M367.8,877.7c0,0.4,0.1,0.8,0.3,1.2c0.2,0.6,0.6,1.1,1.1,1.4c0.3,0.3,0.7,0.4,1.1,0.5
		c0.8,0.2,1.7,0,2.4-0.5c0.7-0.4,1.2-1,1.5-1.8c0.3-0.6,0.5-1.2,0.6-1.9c0-1.3-0.9-3-2.3-3.2c-0.8-0.1-1.6,0.1-2.3,0.6
		c-0.7,0.4-1.2,0.9-1.6,1.6C368.2,876.3,367.9,877,367.8,877.7z"/>
	<path id="Path_13816" class="st11" d="M384.7,872.1c-0.4,0.4-0.6,0.9-0.8,2.1c-0.3,1.5-0.5,2.3-0.2,2.9c0.6,1.4,2,2.4,3.5,2.4
		c1.4,0,2.7-0.7,3.5-1.8c0.7-1.1,0.8-2.5,0.2-3.6c-0.6-1.2-1.8-2-3.1-2.3C387.3,871.7,385.7,871.3,384.7,872.1z"/>
	<rect id="Rectangle_2491" x="366.4" y="865.8" class="st11" width="25.5" height="35"/>
	<path id="Path_13818" class="st11" d="M369.3,880c0,0.4,0.1,0.8,0.3,1.2c0.2,0.6,0.6,1.1,1.1,1.4c0.3,0.3,0.7,0.4,1.1,0.5
		c0.8,0.2,1.7,0,2.4-0.5c0.7-0.4,1.2-1,1.5-1.8c0.3-0.6,0.5-1.2,0.6-1.9c0-1.3-0.9-3-2.3-3.2c-0.8-0.1-1.6,0.1-2.3,0.6
		c-0.7,0.4-1.2,0.9-1.6,1.6C369.7,878.6,369.4,879.3,369.3,880z"/>
	<path id="Path_13820" class="st11" d="M386.2,874.4c-0.4,0.4-0.6,0.9-0.8,2.1c-0.3,1.5-0.5,2.3-0.2,2.9c0.6,1.4,2,2.4,3.5,2.4
		c1.4,0,2.7-0.7,3.5-1.8c0.7-1.1,0.8-2.5,0.2-3.6c-0.6-1.2-1.8-2-3.1-2.3C388.9,874,387.2,873.6,386.2,874.4z"/>
	<g id="Group_3077" transform="translate(333.621 853.564)" class="st1">
		<path id="Path_13821" class="st12" d="M40.9,37.7c0.2-2.3-0.9-3-0.3-4.1c0.7-1.1,2.4-1.1,8.6-1.3c6.4-0.2,5.8-0.2,8.7-0.2
			c8.3,0,9.3,0.3,9.8,1c1,1.4-1.1,2.7-0.7,6c0.4,2.8,2,3.6,1.4,4.8c-0.9,1.8-5.4,2.3-8.5,1.4c-1.7-0.6-3.4-1-5.1-1.2
			C54.3,44,53.9,44,53.4,44c-1.5,0-2.9,0.3-4.3,0.7c-1.8,0.6-1.9,1.1-3,1.3c-2.5,0.6-6.4-1-7.1-3.3C38.4,41.1,40.6,40.6,40.9,37.7
			L40.9,37.7z"/>
		<path id="Path_13822" class="st6" d="M46,37.1c0.3,0.8,0.4,1.6,0.4,2.5c-0.3,1.7-1.7,2.3-1.4,2.9c0.3,0.6,1.9,0.7,2.8,0.5
			c0.3-0.1,0.7-0.2,1-0.4c0.7-0.5,1.5-0.9,2.4-1.1c1.3-0.3,2.7-0.2,3.9,0.1c1.8,0.4,1.8,0.9,3.8,1.4c1.4,0.3,3.2,0.8,3.7,0.1
			c0.3-0.3,0.1-0.8-0.1-1.6c-0.4-1.5-1.1-1.8-1.4-2.7c-0.6-1.8,1.5-3,0.9-3.8c-0.6-0.9-3.2,0.3-7.1,0.4c-5.4,0.1-9.3-2-9.9-1
			C44.9,34.9,45.5,35.2,46,37.1L46,37.1z"/>
		<path id="Path_13823" class="st3" d="M48.7,36.4c0,0.4,0,0.7,0.2,1.1c0.2,0.5,0.5,0.9,0.9,1.2c0.5,0.2,1,0.3,1.5,0.3
			c0.5,0.1,1.1,0.1,1.6-0.1c0.3-0.2,0.6-0.4,0.7-0.8c0-0.1,0.1-0.2,0.1-0.3c0.1-0.3,0.1-0.6,0.1-0.9c0-0.4,0-0.8,0-1.1
			c-0.3-0.6-1.4-0.7-2.7-0.8c-1.1-0.1-1.8-0.1-2.1,0.2C48.7,35.5,48.7,35.9,48.7,36.4L48.7,36.4z"/>
		<path id="Path_13824" class="st3" d="M54.9,35.5c-0.4,0.3-0.1,0.8,0.2,2.6c0.1,0.4,0.1,0.6,0.2,0.8c0.5,0.5,1.8,0.3,2.1,0.3
			c0.3-0.1,0.6-0.1,0.9-0.2c0.3-0.1,0.7-0.2,1-0.5c0.2-0.2,0.4-0.5,0.5-0.8c0-0.3-0.1-0.6-0.1-0.8c-0.1-0.3-0.1-0.5-0.3-0.7
			c-0.2-0.4-0.5-0.7-0.9-0.9c-0.3-0.1-0.3,0-1,0.1s-0.8,0-1.7,0C55.5,35.3,55.2,35.4,54.9,35.5L54.9,35.5z"/>
		<path id="Path_13825" class="st3" d="M57.3,42.7c-0.2-0.2,0-0.5,0.4-1.7c0.1-0.3,0.1-0.4,0.2-0.5c0.4-0.3,1.3,0.1,1.5,0.1
			c0.2,0.1,0.4,0.2,0.6,0.3c0.2,0.1,0.5,0.3,0.6,0.4c0.1,0.2,0.2,0.4,0.3,0.6c0,0.2-0.1,0.4-0.2,0.5c-0.1,0.2-0.1,0.3-0.2,0.4
			c-0.2,0.2-0.4,0.4-0.7,0.5c-0.2,0-0.2-0.1-0.7-0.2c-0.5-0.1-0.6-0.1-1.2-0.3C57.7,42.9,57.5,42.8,57.3,42.7L57.3,42.7z"/>
		<path id="Path_13826" class="st3" d="M50.5,41.9c0.1-0.2-0.1-0.4-0.4-1.3C50,40.2,50,40.1,49.9,40c-0.4-0.3-1.3-0.1-1.5,0
			s-0.4,0.1-0.6,0.2c-0.2,0.1-0.4,0.2-0.6,0.4C47.1,40.8,47,41,47,41.2c0.1,0.2,0.1,0.4,0.2,0.6c0.1,0.2,0.2,0.4,0.3,0.5
			c0.2,0.3,0.4,0.5,0.7,0.6c0.2,0,0.2,0,0.6-0.1c0.2,0,0.1,0,0.3-0.1s0.3-0.1,0.4-0.2c0.3-0.2,0.3-0.2,0.4-0.4
			C50.2,41.9,50.4,42,50.5,41.9L50.5,41.9z"/>
	</g>
	<g id="Ellipse_149" transform="translate(332 836)" class="st1">
		<circle class="st3" cx="44.9" cy="38" r="6"/>
		<circle class="st4" cx="44.9" cy="38" r="5.5"/>
	</g>
	<g id="Ellipse_150" transform="translate(353 835)" class="st1">
		<circle class="st3" cx="44.9" cy="38" r="6"/>
		<circle class="st4" cx="44.9" cy="38" r="5.5"/>
	</g>
	<g id="Ellipse_153" transform="translate(355 839)" class="st1">
		<circle class="st7" cx="40.9" cy="34" r="2"/>
		<circle class="st8" cx="40.9" cy="34" r="1.5"/>
	</g>
	<g id="Ellipse_220" transform="translate(338 840)" class="st1">
		<circle class="st7" cx="40.9" cy="34" r="2"/>
		<circle class="st8" cx="40.9" cy="34" r="1.5"/>
	</g>
	<line id="Line_258" class="st13" x1="371.4" y1="866.5" x2="383.4" y2="870.5"/>
	<line id="Line_259" class="st13" x1="391.4" y1="869.5" x2="403.4" y2="865.5"/>
</g>
<g id="Group_3142" transform="translate(-85.195 -1119.651)">
	<g id="Mask_Group_27_3_" transform="translate(85.195 1119.651)">
		<g id="Group_2956_3_" transform="translate(52.333 47.723)">
			<path class="st2" d="M112.3,56.1v47.3c0,6.7-5.4,12.2-12.2,12.2H42.9c-8.8-18.7-9.1-53.5,9.3-69.6
				C74.3,26.6,102.3,48.1,112.3,56.1z"/>
		</g>
	</g>
	<path id="Path_13931" class="st5" d="M185.4,1263.4c-0.3,1,0,2.1,0.7,2.9c0.8,0.7,1.9,0.2,4.1-0.4c1.8-0.5,3.6-0.8,5.3-1.2
		c0.2-0.1,3.8-0.9,6.7-1.4c3.1-0.5,6.2-0.7,9.3-0.7c3,0,6,0.3,8.9,0.9c2,0.4,4.1,1,6,1.7c1.5,0.5,2.9,1.1,4.3,1.7
		c1.4,0.8,2.1,1.5,3.1,1.2c0.8-0.2,1.8-1,1.8-1.8c0-3.3-17.3-6.3-18.5-6.5c-1.6-0.3-7.3-1.2-7.3-1.2s-5.9,0.4-10.9,0.9
		C186.8,1261,185.7,1262.5,185.4,1263.4L185.4,1263.4z"/>
	<path id="Path_13935" class="st3" d="M202.5,1259.6c-0.1-0.2,0-0.3-0.1-1.2c-0.1-1.2-0.3-1.4-0.3-2.3c-0.1-0.5,0-1.1,0.2-1.6
		c0.2-0.4,0.5-0.6,1.9-0.9c1.6-0.3,2.4-0.5,3,0c0.4,0.4,0.8,0.8,1,1.4c0.6,1.2,1.2,3.4,0.5,4.2c-0.6,0.7-1.4-0.5-3.4-0.2
		C203.8,1259.3,202.8,1260.1,202.5,1259.6L202.5,1259.6z"/>
	<path id="Path_13936" class="st3" d="M210.4,1259.4c-0.3-0.4,0-0.5-0.2-2.7c-0.1-0.5,0-1,0.2-1.5c0.2-0.3,0.5-0.6,1.9-0.8
		c1.6-0.3,2.4-0.5,3,0c0.4,0.3,0.7,0.8,0.9,1.3c0.8,1.6,1.3,4.1,0.5,4.9c-0.4,0.4-0.9-0.1-2.6-0.4
		C211.8,1259.6,210.9,1260.2,210.4,1259.4L210.4,1259.4z"/>
	<g id="Ellipse_162" transform="translate(157 1188)">
		<circle class="st3" cx="45.4" cy="46.6" r="6.6"/>
		<circle class="st4" cx="45.4" cy="46.6" r="6"/>
	</g>
	<g id="Ellipse_165" transform="translate(176 1190)">
		<circle class="st3" cx="47.2" cy="46.7" r="6.6"/>
		<circle class="st4" cx="47.2" cy="46.7" r="6"/>
	</g>
	<g id="Ellipse_163" transform="translate(162 1193)">
		<circle class="st7" cx="41.5" cy="42.7" r="2.2"/>
		<circle class="st8" cx="41.5" cy="42.7" r="1.6"/>
	</g>
	<g id="Ellipse_164" transform="translate(179 1195)">
		<circle class="st7" cx="43.1" cy="42.8" r="2.2"/>
		<circle class="st8" cx="43.1" cy="42.8" r="1.6"/>
	</g>
</g>
</svg>
