<svg id="Layer_1" data-name="Layer 1" xmlns="http://www.w3.org/2000/svg" viewBox="0 0 167 167"><defs><style>.cls-1{fill:#ffb703;}.cls-2{fill:#fb8500;}.cls-3{fill:#fff;}.cls-4,.cls-6{fill:none;}.cls-4{stroke:#fff;}.cls-5{fill:#342326;}.cls-6{stroke:#342326;}</style></defs><g id="Group_3142" data-name="Group 3142"><g id="Mask_Group_27" data-name="Mask Group 27"><g id="Group_2956" data-name="Group 2956"><path class="cls-1" d="M167,107.5v47.3A12.18,12.18,0,0,1,154.8,167H97.6c-8.8-18.7-9.1-53.5,9.3-69.6C129,78,157,99.5,167,107.5Z"/></g></g><path id="Path_13931" data-name="Path 13931" class="cls-2" d="M102.57,147.43a3.1,3.1,0,0,0,.7,2.9c.8.7,1.9.2,4.1-.4,1.8-.5,3.6-.8,5.3-1.2.2-.1,3.8-.9,6.7-1.4a58.24,58.24,0,0,1,9.3-.7,44.06,44.06,0,0,1,8.9.9,41.1,41.1,0,0,1,6,1.7c1.5.5,2.9,1.1,4.3,1.7,1.4.8,2.1,1.5,3.1,1.2.8-.2,1.8-1,1.8-1.8,0-3.3-17.3-6.3-18.5-6.5-1.6-.3-7.3-1.2-7.3-1.2s-5.9.4-10.9.9c-12.1,1.5-13.2,3-13.5,3.9Z"/><path id="Path_13935" data-name="Path 13935" class="cls-3" d="M119.67,143.63c-.1-.2,0-.3-.1-1.2-.1-1.2-.3-1.4-.3-2.3a3,3,0,0,1,.2-1.6c.2-.4.5-.6,1.9-.9,1.6-.3,2.4-.5,3,0a3.59,3.59,0,0,1,1,1.4c.6,1.2,1.2,3.4.5,4.2s-1.4-.5-3.4-.2c-1.5.3-2.5,1.1-2.8.6Z"/><path id="Path_13936" data-name="Path 13936" class="cls-3" d="M127.57,143.43c-.3-.4,0-.5-.2-2.7a2.62,2.62,0,0,1,.2-1.5c.2-.3.5-.6,1.9-.8,1.6-.3,2.4-.5,3,0a3,3,0,0,1,.9,1.3c.8,1.6,1.3,4.1.5,4.9-.4.4-.9-.1-2.6-.4-2.3-.6-3.2,0-3.7-.8Z"/><g id="Ellipse_162" data-name="Ellipse 162"><circle class="cls-3" cx="119.57" cy="118.63" r="6.6"/><circle class="cls-4" cx="119.57" cy="118.63" r="6"/></g><g id="Ellipse_165" data-name="Ellipse 165"><circle class="cls-3" cx="140.37" cy="120.73" r="6.6"/><circle class="cls-4" cx="140.37" cy="120.73" r="6"/></g><g id="Ellipse_163" data-name="Ellipse 163"><circle class="cls-5" cx="120.67" cy="119.73" r="2.2"/><circle class="cls-6" cx="120.67" cy="119.73" r="1.6"/></g><g id="Ellipse_164" data-name="Ellipse 164"><circle class="cls-5" cx="139.27" cy="121.83" r="2.2"/><circle class="cls-6" cx="139.27" cy="121.83" r="1.6"/></g></g></svg>