<svg id="Layer_1" data-name="Layer 1" xmlns="http://www.w3.org/2000/svg" viewBox="0 0 167 167"><defs><style>.cls-1{fill:#fb8500;}.cls-2{fill:#ffb703;}.cls-3{fill:#fff;}.cls-4{fill:#8ec9e6;}.cls-5,.cls-7{fill:none;}.cls-5{stroke:#fff;}.cls-6{fill:#342326;}.cls-7{stroke:#342326;}</style></defs><g id="Group_3510" data-name="Group 3510"><g id="Group_3191" data-name="Group 3191"><g id="Mask_Group_27-2" data-name="Mask Group 27-2"><g id="Group_2956" data-name="Group 2956"><path class="cls-1" d="M167,107.2v47.6A12.18,12.18,0,0,1,154.8,167H81.4C58.8,96.7,150.1,62.6,167,107.2Z"/></g></g><path id="Path_14003" data-name="Path 14003" class="cls-2" d="M94.34,155c-.3-.1,0-1.3.1-1.9a7,7,0,0,1,1.9-3.2,14.27,14.27,0,0,1,4.7-3.3,22.47,22.47,0,0,1,6.2-1.5,65.05,65.05,0,0,1,7.6-.7c3.8-.2,6.7-.2,9-.1a66.28,66.28,0,0,1,8.9.4,40.64,40.64,0,0,1,6.9,1.6,19.84,19.84,0,0,1,5.2,2.2,11,11,0,0,1,4,3.7c1.1,1.8,1.4,3.8,1.2,3.9s-.7-1.3-2.1-3.1a11.38,11.38,0,0,0-1.9-1.9,9.5,9.5,0,0,0-1.7-1,34.7,34.7,0,0,0-11.5-3.4,78.93,78.93,0,0,0-8.5-.8,85.35,85.35,0,0,0-13.4.7,52.49,52.49,0,0,0-5.5.9c-2.9.7-5.6,1.4-7.6,3-2.3,1.9-3,4.7-3.5,4.5Z"/><path id="Path_14005" data-name="Path 14005" class="cls-3" d="M115.64,144.09c0-.2.1-.2.3-1s.2-1.2.5-1.9a3.38,3.38,0,0,1,.6-1.2c.4-.3.6-.1,1.6-.1s1-.2,1.4,0a2.37,2.37,0,0,1,.9,1.5,3.94,3.94,0,0,1-.4,3c-.3.3-.5.4-2.2.3-2.2,0-2.7-.1-2.7-.6Z"/><path id="Path_14006" data-name="Path 14006" class="cls-3" d="M128.74,144.39c-.2-.2.1-.4.1-1.3s-.1-1,.1-1.4a1.59,1.59,0,0,1,1-.8c.7-.3,1,0,2.4,0,1,0,1.3-.2,1.6,0s.5.8.6,1.7c.1,1.2.2,2.1-.3,2.4s-1-.2-2.7-.3c-1.6-.3-2.5.1-2.8-.3Z"/><path id="Path_14007" data-name="Path 14007" class="cls-4" d="M112.64,126.39a4,4,0,0,1-.3,1.5c-.3.8-.7,1.6-1.6,1.7a3.84,3.84,0,0,1-2.5-.9,2.15,2.15,0,0,1-.6-2.4c.2-.8.9-1.1,1.9-1.5.8-.4,2.2-1,2.9-.5.3.2.3.9.2,2.1Z"/><g id="Group_3105" data-name="Group 3105"><g id="Ellipse_245" data-name="Ellipse 245"><ellipse class="cls-3" cx="116.79" cy="111.34" rx="7" ry="6.5"/><ellipse class="cls-5" cx="116.79" cy="111.34" rx="6.5" ry="6"/></g><g id="Ellipse_246" data-name="Ellipse 246"><ellipse class="cls-3" cx="139.79" cy="111.34" rx="7" ry="6.5"/><ellipse class="cls-5" cx="139.79" cy="111.34" rx="6.5" ry="6"/></g></g></g><g id="Ellipse_278" data-name="Ellipse 278"><circle class="cls-6" cx="116.79" cy="111.84" r="2"/><circle class="cls-7" cx="116.79" cy="111.84" r="1.5"/></g><g id="Ellipse_279" data-name="Ellipse 279"><circle class="cls-6" cx="138.79" cy="111.84" r="2"/><circle class="cls-7" cx="138.79" cy="111.84" r="1.5"/></g></g></svg>