<svg id="Layer_1" data-name="Layer 1" xmlns="http://www.w3.org/2000/svg" viewBox="0 0 167 167"><defs><style>.cls-1{fill:#fb8500;}.cls-2{fill:#fcb704;}.cls-3{fill:#1d1d1b;}.cls-4{fill:#fff;}.cls-5,.cls-7{fill:none;}.cls-5{stroke:#fff;}.cls-6{fill:#342326;}.cls-7{stroke:#342326;}</style></defs><g id="Group_3511" data-name="Group 3511"><g id="Group_27" data-name="Group 27"><g id="Group_2956" data-name="Group 2956"><path class="cls-1" d="M167,108.3v46.5A12.18,12.18,0,0,1,154.8,167H94.1c-7.1-17.3-6.7-46,2.9-54.4C121.4,91,158.8,104.1,167,108.3Z"/></g></g><path id="Path_13952" data-name="Path 13952" class="cls-2" d="M108.94,145.09a9.34,9.34,0,0,0-1.6,1.8,8.7,8.7,0,0,0-1.6,3,7.29,7.29,0,0,0,.9,6.1,9.22,9.22,0,0,0,3.1,2.8,11.72,11.72,0,0,0,2.4.9,13.1,13.1,0,0,0,2.7.6,7.49,7.49,0,0,0,2.1-.2c1.3-.3,1.5-.8,2.7-1.2a8.22,8.22,0,0,1,2.7-.2,44,44,0,0,1,5.1.5,36.53,36.53,0,0,1,4.6.7c1.9.6,1.8.9,3.4,1.3a10.19,10.19,0,0,0,5.2.1,5.14,5.14,0,0,0,2.6-1.8,5.75,5.75,0,0,0,1.1-2.7c.5-2.6.8-3.9.5-5.3a11.27,11.27,0,0,0-5.7-7.4c-1-.5-2.8-.9-6.5-1.6a51.93,51.93,0,0,0-7.9-1.2,39.6,39.6,0,0,0-7.7,1c-5.4.9-7,1.8-8.1,2.8Z"/><path id="Path_13953" data-name="Path 13953" class="cls-3" d="M116.34,145.79a19.92,19.92,0,0,0-3.3,2.4c-2.2,1.8-2.4,1.7-2.7,2.3a3.92,3.92,0,0,0,.2,3.5,5.3,5.3,0,0,0,2.5,2.2c.9.3,1.4.2,4.4-.1,2.1-.2,3.2-.3,4-.3a17.4,17.4,0,0,1,4.5.6c3,.5,4.7.8,6.1,1.1,6.2,1.1,6.9.9,7.2.6,2.2-1.4,1.7-4.8,1.5-5.8a7.56,7.56,0,0,0-2.1-4.5,10.62,10.62,0,0,0-4.9-2.6c-1.4-.4-2-.3-5.8-.5-5.3-.2-7.7-.5-10.1.4a10.09,10.09,0,0,0-1.5.7Z"/><path id="Path_13954" data-name="Path 13954" class="cls-4" d="M130.64,157.19c3.1.6,3.6.8,4,.4.6-.4.5-1.2.4-2.4s-.2-2.5-1.2-3.4a5.2,5.2,0,0,0-3.2-.9c-1.2-.1-2.1-.2-2.8.3s-.8,1.4-.8,2.6-.1,1.9.5,2.5c.5.4.9.4,3.1.9Z"/><path id="Path_13955" data-name="Path 13955" class="cls-4" d="M119.54,155.59c-.3-.3-.3-1.1,0-2.7a4.62,4.62,0,0,1,.9-2.3,3.1,3.1,0,0,1,1.3-.6,5,5,0,0,1,2.7.1,3.74,3.74,0,0,1,2,1.2,3.69,3.69,0,0,1,.7,1.4,6,6,0,0,1-.2,2.3c-.2,1.3,0,1.4-.3,1.7s-1.2.2-3.4-.2c-2.7-.5-3.3-.4-3.7-.9Z"/><path id="Path_13961" data-name="Path 13961" class="cls-4" d="M120.44,144.69c-.2.2-.2.7,0,1.8a2.93,2.93,0,0,0,.7,1.6,8.79,8.79,0,0,0,1,.6,3.86,3.86,0,0,0,2.1.3,2.46,2.46,0,0,0,1.5-.5,2.18,2.18,0,0,0,.5-.8c.1-.4,0-.6-.2-1.5s0-.9-.3-1.1-.9-.2-2.6-.3c-2-.2-2.4-.4-2.7-.1Z"/><path id="Path_13962" data-name="Path 13962" class="cls-4" d="M132.24,144.79c.2.2.4.7.3,1.8a2.53,2.53,0,0,1-.4,1.6,4.05,4.05,0,0,1-.9.5,4.71,4.71,0,0,1-2,.2,3.82,3.82,0,0,1-1.6-.6,1.46,1.46,0,0,1-.6-.9c-.2-.4-.1-.6-.1-1.5s-.1-.9.1-1.1.8-.2,2.5-.2c2,.1,2.3-.1,2.7.2Z"/><g id="Ellipse_218" data-name="Ellipse 218"><circle class="cls-4" cx="116.74" cy="121.29" r="6.5"/><circle class="cls-5" cx="116.74" cy="121.29" r="6"/></g><g id="Ellipse_219" data-name="Ellipse 219"><circle class="cls-4" cx="139.74" cy="123.29" r="6.5"/><circle class="cls-5" cx="139.74" cy="123.29" r="6"/></g><g id="Ellipse_175" data-name="Ellipse 175"><circle class="cls-6" cx="117.24" cy="121.79" r="2"/><circle class="cls-7" cx="117.24" cy="121.79" r="1.5"/></g><g id="Ellipse_177" data-name="Ellipse 177"><circle class="cls-6" cx="139.24" cy="123.79" r="2"/><circle class="cls-7" cx="139.24" cy="123.79" r="1.5"/></g></g></svg>