<svg id="Layer_1" data-name="Layer 1" xmlns="http://www.w3.org/2000/svg" xmlns:xlink="http://www.w3.org/1999/xlink" viewBox="0 0 167 167"><defs><style>.cls-1,.cls-7{fill:none;}.cls-2{fill:#fb8500;}.cls-3{clip-path:url(#clip-path);}.cls-4{fill:#fcb704;}.cls-5{fill:#161615;}.cls-6{fill:#fff;}.cls-7{stroke:#161615;stroke-miterlimit:10;stroke-width:0.25px;}.cls-8{fill:#271a1d;}</style><clipPath id="clip-path"><rect class="cls-1" x="92.45" y="99.58" width="56.1" height="61.3"/></clipPath></defs><g id="Mask_Group_27" data-name="Mask Group 27"><g id="Group_2956" data-name="Group 2956"><path class="cls-2" d="M167,115.6v39.2A12.18,12.18,0,0,1,154.8,167H69.7c1.3-7.7,3.1-17.3,5.6-29.1C95.2,43.5,139.1,91.6,167,115.6Z"/></g></g><g class="cls-3"><g id="Group_3167" data-name="Group 3167"><path id="Path_14057" data-name="Path 14057" class="cls-4" d="M94.65,140.68a21.61,21.61,0,0,1,4.4-6,24.44,24.44,0,0,1,10.9-6,37.68,37.68,0,0,1,16-1.1c6.2.7,12.8,1.5,17.8,6.8,1.5,1.5,4.6,4.7,4.7,9.4.1,6-5,10.2-6.4,11.4-3.3,2.7-6.7,3.5-10.2,4.4a38.66,38.66,0,0,1-8.3,1.2c-2.3.2-4.5.2-6.8.2a82.74,82.74,0,0,1-10-1.2c-5.4-.9-8.1-1.4-9.8-2.7a11.57,11.57,0,0,1-4.1-5.9c-1.2-4.4.6-8,1.8-10.5"/><path id="Path_14058" data-name="Path 14058" class="cls-5" d="M104.05,139.18c-2.1,2.3-3.4,3.7-3.6,6A8.49,8.49,0,0,0,102,151a11.18,11.18,0,0,0,6.8,4.4c1,.3,1.2.2,6.5.4,6,.2,6.6.3,8.4.2a20.52,20.52,0,0,0,6.5-1,16.18,16.18,0,0,0,5.4-3.1,11.26,11.26,0,0,0,3.6-4.5c1.1-3.1-.1-6.1-1.1-8.3-.8-1.7-2.3-4.9-5.5-6.4-1.9-.9-2.9-.5-9.1,0-8.6.7-8.9.1-11.7,1.1a21.55,21.55,0,0,0-7.7,5.4"/><path id="Path_14059" data-name="Path 14059" class="cls-6" d="M105.85,152.48a5.38,5.38,0,0,1,.8-2.8,5.46,5.46,0,0,1,2-2.5c.4-.2,1-.5,4.5.1s4,1,4.3,1.3c.4.7.3,1.5.2,3.2-.3,2.4-.4,3.5-1.2,4.2s-2.2.4-4.9-.1c-1.1-.2-1.3-.4-2.3-.5-1.5-.2-2,0-2.5-.4a3,3,0,0,1-.9-2.5"/><path id="Path_14060" data-name="Path 14060" class="cls-6" d="M121.65,135.08a5.76,5.76,0,0,0,.5,2.9,5.45,5.45,0,0,0,1.7,2.7c.4.3.9.6,4.5.4s4.1-.6,4.4-.9c.5-.6.5-1.5.5-3.2,0-2.4,0-3.6-.8-4.3s-2.2-.6-4.9-.4c-1.2.1-1.3.2-2.4.3-1.5,0-2-.2-2.5.2a3.26,3.26,0,0,0-1,2.3"/><path id="Path_14061" data-name="Path 14061" class="cls-7" d="M134.05,106.58a5.1,5.1,0,1,1-5.1-5.1h0a5.12,5.12,0,0,1,5.1,5.1Z"/><path id="Path_14062" data-name="Path 14062" class="cls-7" d="M132.35,106.58a3.4,3.4,0,1,1-3.4-3.4,3.37,3.37,0,0,1,3.4,3.4Z"/><path id="Path_14063" data-name="Path 14063" class="cls-7" d="M111.75,108.58a3.4,3.4,0,1,1-3.4-3.4A3.37,3.37,0,0,1,111.75,108.58Z"/><path id="Path_14064" data-name="Path 14064" class="cls-7" d="M113.45,108.58a5.1,5.1,0,1,1-5.1-5.1h0a5.06,5.06,0,0,1,5.1,5.1Z"/><path id="Path_14065" data-name="Path 14065" class="cls-6" d="M115.15,108.58a6.7,6.7,0,1,1-6.7-6.7,6.7,6.7,0,0,1,6.7,6.7Z"/><path id="Path_14066" data-name="Path 14066" class="cls-6" d="M135.65,106.58a6.7,6.7,0,1,1-6.7-6.7,6.7,6.7,0,0,1,6.7,6.7Z"/><path id="Path_14067" data-name="Path 14067" class="cls-8" d="M110.15,108.88a1.5,1.5,0,1,1-1.5-1.5,1.42,1.42,0,0,1,1.5,1.5h0"/><path id="Path_14068" data-name="Path 14068" class="cls-8" d="M130.55,106.68a1.5,1.5,0,1,1-1.5-1.5,1.54,1.54,0,0,1,1.5,1.5h0"/></g></g></svg>