<svg id="Layer_1" data-name="Layer 1" xmlns="http://www.w3.org/2000/svg" xmlns:xlink="http://www.w3.org/1999/xlink" viewBox="0 0 167 167"><defs><style>.cls-1,.cls-5{fill:none;}.cls-2{fill:#219ebc;}.cls-3{clip-path:url(#clip-path);}.cls-4{fill:#fafafa;stroke-width:0.75px;}.cls-4,.cls-5{stroke:#161615;stroke-miterlimit:10;}.cls-5{stroke-width:0.25px;}.cls-6{isolation:isolate;font-size:14px;fill:#023047;font-family:CenturyGothic-Bold, Century Gothic;font-weight:700;}.cls-7{fill:#8ec9e6;}.cls-8{fill:#161615;}.cls-9{fill:#fff;}</style><clipPath id="clip-path"><rect class="cls-1" x="87.26" y="100.58" width="61.6" height="55.4"/></clipPath></defs><g id="Group_3208" data-name="Group 3208"><g id="Mask_Group_30" data-name="Mask Group 30"><g id="Group_3173" data-name="Group 3173"><path class="cls-2" d="M167,91.9v62.9A12.18,12.18,0,0,1,154.8,167H68.5a.1.1,0,0,0-.1-.1C36.4,102.6,149.1,54.8,167,91.9Z"/></g></g><g id="Group_3172" data-name="Group 3172"><g class="cls-3"><g id="Group_3171" data-name="Group 3171"><path id="Path_14075" data-name="Path 14075" class="cls-4" d="M115.76,111.88c0,5.8-4.3,10.5-9.6,10.5s-9.6-4.7-9.6-10.5,4.3-10.5,9.6-10.5S115.76,106.08,115.76,111.88Z"/><path id="Path_14074" data-name="Path 14074" class="cls-4" d="M138.86,111.88c0,5.8-4.3,10.5-9.6,10.5s-9.6-4.7-9.6-10.5,4.3-10.5,9.6-10.5c4.4,0,8,3.6,9.2,7.3A16.48,16.48,0,0,1,138.86,111.88Z"/><path id="Path_14069" data-name="Path 14069" class="cls-5" d="M115.86,111.48a2.4,2.4,0,0,1,.7-2.5,1.8,1.8,0,0,1,2.6.5.35.35,0,0,1,.1.2,2.54,2.54,0,0,1,.2,1.9"/><text class="cls-6" transform="matrix(-1, 0, 0, 1, 132.45, 117.21)">B</text><text class="cls-6" transform="translate(100.93 117.09)">A</text><path id="Path_14070" data-name="Path 14070" class="cls-7" d="M101.46,138c-2.5,1.4-2.4,2-6.3,5.1-5.4,4.3-8.1,5.3-7.8,6.5.2,1,2.3.6,7.8,2.5,2.2.8,2.5,1,4.9,1.8a44.39,44.39,0,0,0,6,1.6c4.3.7,4.8-.8,10.6-.8,2.4.1,4.9.3,7.3.6,3,.4,4.3.7,6.4.4a32.66,32.66,0,0,0,4.6-1.4c3.8-1.3,4.1-1.2,7.1-2.2,4.5-1.5,6.7-2.3,6.8-3.2s-.7-1.6-8.9-7a61.24,61.24,0,0,0-5.2-3.3,48.31,48.31,0,0,0-8.1-3.5,27.45,27.45,0,0,0-17-.3,38.79,38.79,0,0,0-8.2,3.2"/><path id="Path_14071" data-name="Path 14071" class="cls-8" d="M107.66,139.28a21.93,21.93,0,0,0-3.9,2.9c-1.5,1.3-2.2,1.7-3,2.5-1.8,1.7-3.2,3.1-2.9,4.1.4,1.2,3,1.3,4.2,1.4a21.83,21.83,0,0,0,4.4-.4,38.44,38.44,0,0,1,4.8,0c3.3.1,4,.1,6.1.2,5.2.1,4.5-.1,7.4,0,3.4.2,4.6.6,7.2.2a9.33,9.33,0,0,0,3.9-1.5c1-.7,2-1.4,2.1-2.4,0-1.4-2-1.4-5.9-4.6a15.15,15.15,0,0,0-5.1-3.2c-1.5-.5-2.1-.4-6.3-.6-5.8-.2-8.3-.6-11.1.5-.7.3-1.3.6-1.9.9"/><path id="Path_14072" data-name="Path 14072" class="cls-9" d="M112.76,137.78c3.3-.3,3.8-.4,4.3,0,.6.6.5,1.6.4,3s-.2,3-1.4,4c-.9.7-2,.7-3.4.7a4.19,4.19,0,0,1-2.9-.7c-.8-.8-.8-1.8-.9-3.2s-.1-2.3.6-3c.4-.6.9-.6,3.3-.8"/><path id="Path_14073" data-name="Path 14073" class="cls-9" d="M120,138c-.3.3-.5,1.3-.5,3.2,0,2.1.4,2.8.6,3a2.76,2.76,0,0,0,1.3,1.1,5,5,0,0,0,2.9.7,3.58,3.58,0,0,0,2.4-.9,2.9,2.9,0,0,0,.9-1.5,8.78,8.78,0,0,0,.1-2.8c0-1.7.2-1.7,0-2.1-.4-.6-1.2-.5-3.6-.7-3-.2-3.5-.5-4.1,0"/></g></g></g></g></svg>