<svg id="Layer_1" data-name="Layer 1" xmlns="http://www.w3.org/2000/svg" xmlns:xlink="http://www.w3.org/1999/xlink" viewBox="0 0 167 167"><defs><style>.cls-1,.cls-8{fill:none;}.cls-2{fill:#ffb703;}.cls-3{clip-path:url(#clip-path);}.cls-4{fill:#fb8500;}.cls-5{fill:#161615;}.cls-6{fill:#fff;}.cls-7{fill:#ffd085;}.cls-8{stroke:#161615;}</style><clipPath id="clip-path"><rect class="cls-1" x="113.32" y="119.36" width="42.1" height="41.4"/></clipPath></defs><g id="Mask_Group_27" data-name="Mask Group 27"><g id="Group_2956" data-name="Group 2956"><path class="cls-2" d="M167,102.6v54.9a9.5,9.5,0,0,1-9.5,9.5H84.1C73,112.9,148.8,74.6,167,102.6Z"/></g></g><g class="cls-3"><g id="Group_3159" data-name="Group 3159"><path id="Path_14036" data-name="Path 14036" class="cls-4" d="M123.12,141.56a8.69,8.69,0,0,0-1.6,2.6,8,8,0,0,0-.4,4.3c.2,1.3.5,3,1.9,4a5.08,5.08,0,0,0,3.6.6c1.4-.2,1.8-.7,3.3-1.2a13.06,13.06,0,0,1,5.5-.7,17.74,17.74,0,0,1,5.6.9,5.13,5.13,0,0,1,1,.4c.2,0,3.4.9,5.3-1a4,4,0,0,0,1-1.8,10.63,10.63,0,0,0,.3-5.6c-.4-1.8-.9-4.3-3.2-6.1a7.09,7.09,0,0,0-5-1.7c-2.7.2-2.9,2.1-5.7,2.6-3.1.5-3.8-1.7-6.7-1-2.4.6-4.1,2.7-4.9,3.7"/><path id="Path_14037" data-name="Path 14037" class="cls-5" d="M127.52,141.76a14.21,14.21,0,0,0-2.5,2.4c-1.7,1.8-1.9,1.7-2.1,2.2a3.28,3.28,0,0,0,.2,2.9,3.89,3.89,0,0,0,2,1.6c.7.2,1.1,0,3.4-.5,1.7-.4,2.5-.6,3.2-.7a21.64,21.64,0,0,1,3.6,0c2.4.1,3.7.2,4.9.3,4.9.3,5.4,0,5.7-.2,1.7-1.4,1.2-4.2,1.1-5a6.42,6.42,0,0,0-1.7-3.5,7.23,7.23,0,0,0-3.9-1.7c-1.1-.2-1.6-.1-4.6.2-4.2.4-6,.4-8,1.4a2.55,2.55,0,0,0-1.3.6"/><path id="Path_14038" data-name="Path 14038" class="cls-6" d="M131.12,140.26c2.4-.5,2.7-.6,3.1-.4s.5,1,.6,2a3.39,3.39,0,0,1-.6,2.8,4.07,4.07,0,0,1-2.4.8,3.36,3.36,0,0,1-2.2-.2c-.6-.4-.7-1.2-.9-2.1s-.3-1.6.2-2.1c.1-.4.4-.5,2.2-.8"/><path id="Path_14039" data-name="Path 14039" class="cls-6" d="M136.32,139.66c-.2.2-.3.9-.1,2.2a3.72,3.72,0,0,0,.7,2,3.59,3.59,0,0,0,1,.7,3.3,3.3,0,0,0,2.2.2,3,3,0,0,0,1.6-.8,1.61,1.61,0,0,0,.5-1.1,4.13,4.13,0,0,0-.2-1.9c-.2-1.1,0-1.2-.2-1.5s-.9-.2-2.7-.2c-2.1.2-2.5,0-2.8.4"/><path id="Path_14044" data-name="Path 14044" class="cls-7" d="M130.12,149.86c-.3-.4.9-1.9,2.3-2.8a7.48,7.48,0,0,1,3.2-1,6.82,6.82,0,0,1,4.3,1.3c1.3.9,2.3,2.3,2.1,2.6-.1.1-.2,0-.4,0-.6-.1-1.2,0-1.8-.1s-1.1-.1-2.4-.1a22,22,0,0,1-2.3-.1c-1.8-.1-1.9-.1-2.3-.1-1.7,0-2.5.6-2.7.3"/><path id="Path_14046" data-name="Path 14046" class="cls-6" d="M142.52,124.06a4.4,4.4,0,1,1-4.4-4.4h0A4.37,4.37,0,0,1,142.52,124.06Z"/></g></g><g id="Ellipse_263" data-name="Ellipse 263"><circle class="cls-5" cx="139.11" cy="126.03" r="1.9"/><circle class="cls-8" cx="139.11" cy="126.03" r="1.4"/></g><path id="Path_14045" data-name="Path 14045" class="cls-6" d="M129.12,125.56a4.4,4.4,0,1,1-4.4-4.4,4.37,4.37,0,0,1,4.4,4.4Z"/><g id="Ellipse_264" data-name="Ellipse 264"><circle class="cls-5" cx="126.71" cy="127.03" r="1.9"/><circle class="cls-8" cx="126.71" cy="127.03" r="1.4"/></g></svg>