<?xml version="1.0" encoding="utf-8"?>
<!-- Generator: Adobe Illustrator 25.0.1, SVG Export Plug-In . SVG Version: 6.00 Build 0)  -->
<svg version="1.1" id="Layer_1" xmlns="http://www.w3.org/2000/svg" xmlns:xlink="http://www.w3.org/1999/xlink" x="0px" y="0px"
	 viewBox="0 0 167 167" style="enable-background:new 0 0 167 167;" xml:space="preserve">
<style type="text/css">
	.st0{display:none;}
	.st1{display:inline;}
	.st2{fill:#219EBC;}
	.st3{clip-path:url(#SVGID_2_);}
	.st4{fill:#FAFAFA;stroke:#161615;stroke-width:0.75;stroke-miterlimit:10;}
	.st5{fill:none;stroke:#161615;stroke-width:0.25;stroke-miterlimit:10;}
	.st6{fill:#023047;}
	.st7{font-family:'CenturyGothic-Bold';}
	.st8{font-size:14px;}
	.st9{fill:#8EC9E6;}
	.st10{fill:#161615;}
	.st11{fill:#FFFFFF;}
	.st12{fill:#FFB703;}
	.st13{fill:none;stroke:#FFFFFF;}
	.st14{fill:#FB8500;}
	.st15{fill:#1D1D1B;}
	.st16{fill:#342326;}
	.st17{fill:none;stroke:#342326;}
	.st18{display:none;opacity:0.45;fill:#FF0000;stroke:#000000;stroke-miterlimit:10;enable-background:new    ;}
	.st19{display:inline;fill:#FCB704;}
	.st20{display:inline;fill:#1D1D1B;}
	.st21{display:inline;fill:#FFFFFF;}
	.st22{fill:#FCB704;}
</style>
<g id="Group_3208" transform="translate(-244.094 -1289.616)" class="st0">
	<g id="Mask_Group_30" transform="translate(244.094 1289.616)" class="st1">
		<g id="Group_3173" transform="translate(42.947 34.939)">
			<path class="st2" d="M121.7,53.2v62.9c0,6.7-5.4,12.2-12.2,12.2H23.2c0,0,0-0.1-0.1-0.1C-8.9,63.9,103.8,16.1,121.7,53.2z"/>
		</g>
	</g>
	<g id="Group_3172" transform="translate(308 1347.638)" class="st1">
		<g>
			<g>
				<defs>
					<rect id="SVGID_1_" x="21" y="38.8" width="61.6" height="55.4"/>
				</defs>
				<clipPath id="SVGID_2_">
					<use xlink:href="#SVGID_1_"  style="overflow:visible;"/>
				</clipPath>
				<g id="Group_3171" transform="translate(0 0)" class="st3">
					<path id="Path_14075" class="st4" d="M49.5,50.1c0,5.8-4.3,10.5-9.6,10.5s-9.6-4.7-9.6-10.5s4.3-10.5,9.6-10.5
						S49.5,44.3,49.5,50.1z"/>
					<path id="Path_14074" class="st4" d="M72.6,50.1c0,5.8-4.3,10.5-9.6,10.5s-9.6-4.7-9.6-10.5s4.3-10.5,9.6-10.5
						c4.4,0,8,3.6,9.2,7.3C72.4,47.9,72.6,49,72.6,50.1z"/>
					<path id="Path_14069" class="st5" d="M49.6,49.7c-0.3-0.9,0-1.8,0.7-2.5c0.9-0.6,2.1-0.4,2.6,0.5c0,0,0.1,0.1,0.1,0.2
						c0.3,0.6,0.4,1.3,0.2,1.9"/>
					<text transform="matrix(-1 0 0 1 66.1897 55.4267)" class="st6 st7 st8">B</text>
					<text transform="matrix(1 0 0 1 34.6685 55.3086)" class="st6 st7 st8">A</text>
					<path id="Path_14070" class="st9" d="M35.2,76.2c-2.5,1.4-2.4,2-6.3,5.1c-5.4,4.3-8.1,5.3-7.8,6.5c0.2,1,2.3,0.6,7.8,2.5
						c2.2,0.8,2.5,1,4.9,1.8c2,0.7,4,1.2,6,1.6c4.3,0.7,4.8-0.8,10.6-0.8c2.4,0.1,4.9,0.3,7.3,0.6c3,0.4,4.3,0.7,6.4,0.4
						c1.2-0.2,1.5-0.4,4.6-1.4c3.8-1.3,4.1-1.2,7.1-2.2c4.5-1.5,6.7-2.3,6.8-3.2c0.1-0.8-0.7-1.6-8.9-7c-3.8-2.5-4.4-2.9-5.2-3.3
						c-2.6-1.4-5.3-2.6-8.1-3.5c-2.7-0.9-5.6-1.4-8.5-1.5c-2.9,0-5.8,0.4-8.5,1.2C40.5,73.8,37.8,74.8,35.2,76.2"/>
					<path id="Path_14071" class="st10" d="M41.4,77.5c-1.4,0.8-2.7,1.8-3.9,2.9c-1.5,1.3-2.2,1.7-3,2.5c-1.8,1.7-3.2,3.1-2.9,4.1
						c0.4,1.2,3,1.3,4.2,1.4c1.5,0,2.9-0.1,4.4-0.4c1.6-0.1,3.2-0.1,4.8,0c3.3,0.1,4,0.1,6.1,0.2c5.2,0.1,4.5-0.1,7.4,0
						c3.4,0.2,4.6,0.6,7.2,0.2c1.4-0.2,2.7-0.7,3.9-1.5c1-0.7,2-1.4,2.1-2.4c0-1.4-2-1.4-5.9-4.6c-1.5-1.4-3.2-2.5-5.1-3.2
						c-1.5-0.5-2.1-0.4-6.3-0.6c-5.8-0.2-8.3-0.6-11.1,0.5C42.6,76.9,42,77.2,41.4,77.5"/>
					<path id="Path_14072" class="st11" d="M46.5,76c3.3-0.3,3.8-0.4,4.3,0c0.6,0.6,0.5,1.6,0.4,3c-0.1,1.5-0.2,3-1.4,4
						c-0.9,0.7-2,0.7-3.4,0.7c-1.3,0-2.2-0.1-2.9-0.7c-0.8-0.8-0.8-1.8-0.9-3.2c0-1.3-0.1-2.3,0.6-3C43.6,76.2,44.1,76.2,46.5,76"/>
					<path id="Path_14073" class="st11" d="M53.7,76.2c-0.3,0.3-0.5,1.3-0.5,3.2c0,2.1,0.4,2.8,0.6,3c0.3,0.5,0.8,0.9,1.3,1.1
						C56,84,57,84.3,58,84.2c0.9,0,1.7-0.3,2.4-0.9c0.4-0.4,0.8-0.9,0.9-1.5c0.2-0.9,0.2-1.9,0.1-2.8c0-1.7,0.2-1.7,0-2.1
						c-0.4-0.6-1.2-0.5-3.6-0.7C54.8,76,54.3,75.7,53.7,76.2"/>
				</g>
			</g>
		</g>
	</g>
</g>
<g id="Group_3141" transform="translate(-81.482 -758.832)" class="st0">
	<g id="Mask_Group_27" transform="translate(81.482 758.832)" class="st1">
		<g id="Group_2956" transform="translate(47.872 46.604)">
			<path class="st12" d="M116.8,63.4v41.2c0,6.7-5.4,12.2-12.2,12.2H85.8l-40.5-0.2c-2-4.9-3.1-12.3-1.4-20.7
				c4.5-22.6-6.6-26.6,17.5-47.7S112.4,60.5,116.8,63.4z"/>
		</g>
	</g>
	<g id="Ellipse_148" transform="translate(168 826)" class="st1">
		<circle class="st11" cx="48.8" cy="47.3" r="6"/>
		<circle class="st13" cx="48.8" cy="47.3" r="5.5"/>
	</g>
	<g id="Group_3092" transform="translate(160.227 846.713)" class="st1">
		<path id="Path_13988" class="st14" d="M45.8,56.5c0.9,0.6,1.9,1.1,3,1.4c1.9,0.5,3.8,0.5,5.7,0.1c2.5-0.5,4.8-1.5,6.9-2.9
			c2.5-1.6,5.1-3.2,6.2-6.3c0.6-1.5,0.7-3.1,0.2-4.6c-0.7-1.9-2.6-3.1-4.7-2.9c-1.4,0-2.9,0.4-5.5,2.3c-2.5,1.9-1.8,2.5-4.6,3.5
			s-5.6,0.6-6.5,0.8c-2.3,0.3-3.9,2.4-3.7,4.6C43.1,53.9,43.7,55.2,45.8,56.5L45.8,56.5z"/>
		<path id="Path_13989" class="st15" d="M50,55.1c-1-0.3-1.9-0.8-2.7-1.6c-0.5-0.5-1.5-1.5-1.2-2.4c0.4-1.1,2.3-1.3,2.9-1.4
			c1.6-0.2,1.8,0.3,3.2,0c1.1-0.2,2.2-0.8,3.1-1.5c1.3-1,1.1-1.4,2.4-2.4c0.8-0.7,1.8-1.2,2.9-1.4c0.8-0.2,1.7,0,2.5,0.4
			c1.1,0.8,1.1,2.4,1.1,3.4c0.1,1.3-0.3,2.6-1.1,3.6c-0.6,0.7-1.1,0.8-3.8,1.9c-3.7,1.5-3.8,1.8-5.1,2C52.8,55.7,51.4,55.6,50,55.1
			L50,55.1z"/>
		<path id="Path_13990" class="st11" d="M52.6,54.7c-0.1-0.3-0.1-0.6,0-0.9c0-0.4,0.3-0.8,0.6-1.1c0.3-0.2,0.7-0.4,1.1-0.4
			c0.4-0.2,0.9-0.2,1.3-0.1c0.3,0.1,0.5,0.3,0.7,0.6c0,0.1,0.1,0.1,0.1,0.2c0.1,0.2,0.2,0.5,0.2,0.7c0.1,0.3,0.1,0.6,0.2,1
			c-0.1,0.5-1,0.8-2.1,1c-0.9,0.2-1.4,0.3-1.7,0.1C52.8,55.4,52.7,55.1,52.6,54.7L52.6,54.7z"/>
		<path id="Path_13991" class="st11" d="M57.6,54.3c-0.4-0.1-0.4-0.6-1-2.1c-0.1-0.3-0.2-0.5-0.2-0.7c0.2-0.6,1.2-0.9,1.4-1
			c0.3-0.1,0.5-0.1,0.8-0.2c0.3-0.1,0.6-0.1,0.9,0c0.3,0.1,0.5,0.2,0.7,0.4c0.1,0.2,0.2,0.5,0.3,0.7s0.1,0.4,0.1,0.7
			c0.1,0.4,0,0.7-0.3,1c-0.2,0.2-0.2,0.1-0.7,0.3S59,53.7,58.4,54C58.1,54.2,57.9,54.3,57.6,54.3L57.6,54.3z"/>
	</g>
	<g id="Ellipse_222" transform="translate(171 831)" class="st1">
		<circle class="st16" cx="44.8" cy="43.3" r="2"/>
		<circle class="st17" cx="44.8" cy="43.3" r="1.5"/>
	</g>
	<g id="Ellipse_231" transform="translate(149 835)" class="st1">
		<circle class="st11" cx="48.8" cy="47.3" r="6"/>
		<circle class="st13" cx="48.8" cy="47.3" r="5.5"/>
	</g>
	<g id="Ellipse_221" transform="translate(155 839)" class="st1">
		<circle class="st16" cx="44.8" cy="43.3" r="2"/>
		<circle class="st17" cx="44.8" cy="43.3" r="1.5"/>
	</g>
</g>
<path class="st18" d="M164.6,15.8v135.3c0,6.7-5.4,12.2-12.2,12.2H14.6c-6.7,0-12.2-5.5-12.2-12.2V15.8c0-6.7,5.5-12.2,12.2-12.2
	h137.9C159.2,3.7,164.6,9.1,164.6,15.8z"/>
<g id="Group_3093" transform="translate(-220.2 -1970.701)" class="st0">
	<g id="Mask_Group_27_2_" transform="translate(220.2 1970.701)" class="st1">
		<g id="Group_2956_2_" transform="translate(54.663 63.548)">
			<path class="st12" d="M109.9,41.4v46.2c0,6.7-5.4,12.2-12.2,12.2H41.6C30.2,84.6,25.4,52.2,44,35.9C68,14.9,104.8,38,109.9,41.4z
				"/>
		</g>
	</g>
	<path id="Path_14021" class="st19" d="M327.5,2106c0.7-1.4,1.7-2.6,2.8-3.7c2-1.8,4.5-3,7.1-3.5c3.4-0.8,7-1,10.5-0.3
		c4.1,0.6,8.4,1.2,11.8,4.6c1.7,1.6,2.9,3.7,3.2,6c0.3,3-1.3,6.4-4,7.6c-1.7,0.8-3.9,0.3-8.4-0.8c-4.3-1-5.1-1.8-7.9-1.7
		c-1.8,0.1-3.6,0.4-5.3,1c-2.2,0.8-2.2,1.4-3.6,1.8c-3.1,0.8-7.8-1.3-8.7-4.3C324.6,2110.8,325.7,2109,327.5,2106L327.5,2106z"/>
	<path id="Path_14022" class="st20" d="M333.7,2105.3c-1.1,1-1.9,2.3-2.3,3.7c-0.3,1-0.9,3,0.1,4c1.1,1.2,3.7,0.4,4.5,0.2
		c2.1-0.6,2.1-1.5,4-2c1.6-0.3,3.2-0.3,4.8,0.2c2.2,0.5,2.2,1.2,4.6,1.8c1.5,0.5,3.1,0.5,4.6,0.2c1.2-0.3,2.2-1,2.8-2
		c0.9-1.8-0.1-3.8-0.8-5.2c-0.7-1.7-2-3.2-3.6-4.1c-1.2-0.6-1.9-0.4-6-0.2c-5.6,0.2-5.9-0.1-7.7,0.4
		C336.8,2102.8,335.1,2103.9,333.7,2105.3L333.7,2105.3z"/>
	<path id="Path_14023" class="st21" d="M345.2,2103.1c0,0.6,0.1,1.2,0.4,1.8c0.2,0.7,0.6,1.3,1.2,1.7c0.2,0.2,0.6,0.4,3,0.4
		s2.7-0.3,2.9-0.5c0.3-0.4,0.3-0.9,0.3-2c0-1.5,0-2.2-0.5-2.7s-1.4-0.4-3.2-0.3c-0.8,0-0.9,0.1-1.5,0.1c-1,0-1.3-0.2-1.7,0
		C345.5,2102.1,345.2,2102.6,345.2,2103.1L345.2,2103.1z"/>
	<path id="Path_14024" class="st21" d="M336.2,2103.1c0,0.6,0.1,1.2,0.4,1.8c0.2,0.7,0.6,1.3,1.2,1.7c0.2,0.2,0.6,0.4,3,0.4
		s2.7-0.3,2.9-0.5c0.3-0.4,0.3-0.9,0.3-2c0-1.5,0-2.2-0.5-2.7s-1.4-0.4-3.2-0.3c-0.8,0-0.9,0.1-1.5,0.1c-1,0-1.3-0.2-1.7,0
		C336.5,2102.1,336.2,2102.6,336.2,2103.1L336.2,2103.1z"/>
	<g id="Ellipse_196" transform="translate(297.016 2047.016)" class="st1">
		<circle class="st11" cx="37.5" cy="33.2" r="6"/>
		<circle class="st13" cx="37.5" cy="33.2" r="5.5"/>
	</g>
	<g id="Ellipse_198" transform="translate(318.016 2046.016)" class="st1">
		<circle class="st11" cx="37.5" cy="33.2" r="6"/>
		<circle class="st13" cx="37.5" cy="33.2" r="5.5"/>
	</g>
	<g id="Ellipse_199" transform="translate(321.016 2051.016)" class="st1">
		<circle class="st16" cx="33.5" cy="29.2" r="2"/>
		<circle class="st17" cx="33.5" cy="29.2" r="1.5"/>
	</g>
	<g id="Ellipse_210" transform="translate(302.016 2052.016)" class="st1">
		<circle class="st16" cx="33.5" cy="29.2" r="2"/>
		<circle class="st17" cx="33.5" cy="29.2" r="1.5"/>
	</g>
</g>
<g id="Group_3144" transform="translate(-250.201 -1465.043)">
	<g id="Mask_Group_27_1_" transform="translate(250.201 1465.043)">
		<g id="Group_2956_1_" transform="translate(58.121 81.15)">
			<path class="st14" d="M106.5,19.1v50.9c0,6.7-5.4,12.2-12.2,12.2H44.7C27.7,63.6,4.1,13.6,106.5,19.1z"/>
		</g>
	</g>
	<path id="Path_14008" class="st22" d="M367.5,1601.9c1.2,1.3,2.5,2.5,3.9,3.6c1.4,1.2,2.9,2.1,4.5,2.9c2.8,1.1,5.9,1.4,8.9,0.7
		c1.9-0.3,5.4-1,8.1-3.7c0.1-0.1,0.4-0.5,0.8-1c0.7-0.8,1.4-1.5,2.2-2.2c1.1-1.1,2.2-2.4,3-3.8c2.3-3.3,3.9-5.6,3.4-6.2
		c-0.6-0.7-3.6,1.8-7.4,2c-0.8,0.1-1.7,0.1-2.5,0c-1.7-0.2-2.4-0.7-4.5-0.2c-2,0.7-4,1.2-6.1,1.4c-0.5,0-1,0-1.5,0
		c-1.5-0.1-3-0.5-4.4-1.1c-0.7-0.3-0.8-0.4-1.2-0.6c-0.8-0.3-5.8,0.3-6.9,0.4c-4.1,0.4-6.5-3-7.2-2.3
		C359.8,1592.8,364.6,1598.8,367.5,1601.9L367.5,1601.9z"/>
	<path id="Path_14009" class="st15" d="M372.8,1602.7c-1.9-1.6-1.7-1.1-3.4-2.6c-0.5-0.5-4.2-3.7-3.6-4.5c0.3-0.4,1.2,0.2,4.8,0.5
		c2.2,0.2,3.4,0.3,3.6,0.3c0.6-0.1,1.2,0,1.7,0.2c0.5,0.3,0.7,0.6,1.5,1c0.3,0.1,0.6,0.3,0.9,0.4c1.3,0.4,2.7,0.4,4.1,0.1
		c1.9-0.4,1.9-0.9,3.9-1.3c1.3-0.2,2.6-0.2,3.9,0.1c3.7,0.7,7.1-2,7.8-1.1c0.8,1.1-4.5,5.9-6,7.3c-0.6,0.6-1.3,1.1-2,1.6
		c-1.9,1-4,1.6-6.1,1.7c-1.9,0.2-3.8,0-5.6-0.4c-0.3-0.1-0.6-0.2-0.9-0.3C375.5,1604.8,374.1,1603.9,372.8,1602.7L372.8,1602.7z"/>
	<path id="Path_14010" class="st11" d="M375.8,1603.7c0.1-0.4,0.3-0.7,0.5-1.1c0.3-0.5,0.7-0.8,1.2-0.9c0.5-0.1,1,0,1.4,0.2
		c0.5,0.1,1,0.3,1.4,0.6c0.2,0.3,0.4,0.6,0.4,1c0,0.1,0,0.2,0,0.3c0,0.3-0.1,0.6-0.2,0.9c-0.2,0.8-0.3,1.1-0.3,1.2
		c-0.4,0.5-1.5,0.3-2.7,0c-1.1-0.2-1.7-0.4-1.9-0.9C375.6,1604.5,375.6,1604.1,375.8,1603.7L375.8,1603.7z"/>
	<path id="Path_14011" class="st11" d="M381.3,1606.1c-0.4-0.3-0.1-0.8,0.1-2.9c0-0.5,0-0.6,0.2-0.8c0.5-0.6,1.8-0.4,2.1-0.3
		c0.3,0.1,0.6,0.1,0.9,0.3c0.4,0.1,0.7,0.3,1,0.5c0.3,0.2,0.4,0.5,0.5,0.9c0,0.3-0.1,0.6-0.1,0.9c0,0.3-0.1,0.5-0.2,0.8
		c-0.2,0.3-0.4,0.6-0.8,0.7c-0.3,0.1-0.7,0.2-1,0.1c-0.5,0-1.1,0-1.6,0C381.9,1606.3,381.6,1606.2,381.3,1606.1L381.3,1606.1z"/>
	<path id="Path_14017" class="st11" d="M378.9,1598.4c-0.1,0.1-0.2,0.5-0.1,1.2c0,0.4,0.2,0.7,0.4,1c0.2,0.2,0.4,0.3,0.6,0.4
		c0.4,0.2,0.9,0.2,1.3,0.1c0.4,0,0.7-0.2,1-0.4c0.2-0.2,0.3-0.3,0.3-0.6c0.1-0.3,0-0.4-0.1-1c-0.1-0.6,0-0.6-0.1-0.8
		c-0.2-0.2-0.5-0.1-1.6-0.1C379.4,1598.3,379.1,1598.2,378.9,1598.4L378.9,1598.4z"/>
	<g id="Group_3090" transform="translate(336.949 1556.794)">
		<g id="Ellipse_182" transform="translate(0.051 0.206)">
			<circle class="st11" cx="36.1" cy="25.2" r="6.5"/>
			<circle class="st13" cx="36.1" cy="25.2" r="6"/>
		</g>
		<g id="Ellipse_183" transform="translate(6.051 4.206)">
			<circle class="st16" cx="31.6" cy="20.7" r="2"/>
			<circle class="st17" cx="31.6" cy="20.7" r="1.5"/>
		</g>
	</g>
	<g id="Group_3091" transform="translate(357.256 1557.606)">
		<g id="Ellipse_184" transform="translate(-0.256 0.394)">
			<circle class="st11" cx="36.1" cy="25.2" r="6.5"/>
			<circle class="st13" cx="36.1" cy="25.2" r="6"/>
		</g>
		<g id="Ellipse_185" transform="translate(2.744 4.394)">
			<circle class="st16" cx="31.6" cy="20.7" r="2"/>
			<circle class="st17" cx="31.6" cy="20.7" r="1.5"/>
		</g>
	</g>
</g>
</svg>
