<svg id="Layer_1" data-name="Layer 1" xmlns="http://www.w3.org/2000/svg" viewBox="0 0 167 167"><defs><style>.cls-1{fill:#fb8500;}.cls-2{fill:#fcb704;}.cls-3{fill:#1d1d1b;}.cls-4{fill:#fff;}.cls-5,.cls-7{fill:none;}.cls-5{stroke:#fff;}.cls-6{fill:#342326;}.cls-7{stroke:#342326;}</style></defs><g id="Group_3144" data-name="Group 3144"><g id="Mask_Group_27" data-name="Mask Group 27"><g id="Group_2956" data-name="Group 2956"><path class="cls-1" d="M167,103.9v50.9a12.18,12.18,0,0,1-12.2,12.2h-49.6C88.21,148.4,64.61,98.4,167,103.9Z"/></g></g><path id="Path_14008" data-name="Path 14008" class="cls-2" d="M119.69,140.51a33.28,33.28,0,0,0,3.9,3.6,21.57,21.57,0,0,0,4.5,2.9,15,15,0,0,0,8.9.7,14.34,14.34,0,0,0,8.1-3.7c.1-.1.4-.5.8-1a22.84,22.84,0,0,1,2.2-2.2,18.62,18.62,0,0,0,3-3.8c2.3-3.3,3.9-5.6,3.4-6.2s-3.6,1.8-7.4,2a10.45,10.45,0,0,1-2.5,0c-1.7-.2-2.4-.7-4.5-.2A25.71,25.71,0,0,1,134,134h-1.5a13.56,13.56,0,0,1-4.4-1.1,13,13,0,0,1-1.2-.6c-.8-.3-5.8.3-6.9.4-4.1.4-6.5-3-7.2-2.3-.8,1,4,7,6.9,10.1Z"/><path id="Path_14009" data-name="Path 14009" class="cls-3" d="M125,141.31c-1.9-1.6-1.7-1.1-3.4-2.6-.5-.5-4.2-3.7-3.6-4.5.3-.4,1.2.2,4.8.5q3.3.3,3.6.3a3.21,3.21,0,0,1,1.7.2,12.83,12.83,0,0,0,1.5,1c.3.1.6.3.9.4a8.11,8.11,0,0,0,4.1.1c1.9-.4,1.9-.9,3.9-1.3a10.24,10.24,0,0,1,3.9.1c3.7.7,7.1-2,7.8-1.1.8,1.1-4.5,5.9-6,7.3a15.58,15.58,0,0,1-2,1.6,14.69,14.69,0,0,1-6.1,1.7,17.46,17.46,0,0,1-5.6-.4l-.9-.3a17.43,17.43,0,0,1-4.6-3Z"/><path id="Path_14010" data-name="Path 14010" class="cls-4" d="M128,142.31a5.36,5.36,0,0,1,.5-1.1,1.78,1.78,0,0,1,1.2-.9,2.2,2.2,0,0,1,1.4.2,3.51,3.51,0,0,1,1.4.6,1.78,1.78,0,0,1,.4,1v.3a2.92,2.92,0,0,1-.2.9c-.2.8-.3,1.1-.3,1.2-.4.5-1.5.3-2.7,0s-1.7-.4-1.9-.9a2.74,2.74,0,0,1,.2-1.3Z"/><path id="Path_14011" data-name="Path 14011" class="cls-4" d="M133.49,144.71c-.4-.3-.1-.8.1-2.9,0-.5,0-.6.2-.8.5-.6,1.8-.4,2.1-.3a3.18,3.18,0,0,1,.9.3,3.13,3.13,0,0,1,1,.5,1.35,1.35,0,0,1,.5.9c0,.3-.1.6-.1.9a2.35,2.35,0,0,1-.2.8,1.39,1.39,0,0,1-.8.7,1.73,1.73,0,0,1-1,.1h-1.6a3.09,3.09,0,0,1-1.1-.2Z"/><path id="Path_14017" data-name="Path 14017" class="cls-4" d="M131.09,137a1.75,1.75,0,0,0-.1,1.2,1.78,1.78,0,0,0,.4,1,2.09,2.09,0,0,0,.6.4,2,2,0,0,0,1.3.1,1.78,1.78,0,0,0,1-.4.71.71,0,0,0,.3-.6c.1-.3,0-.4-.1-1s0-.6-.1-.8-.5-.1-1.6-.1-1.5,0-1.7.2Z"/><g id="Group_3090" data-name="Group 3090"><g id="Ellipse_182" data-name="Ellipse 182"><circle class="cls-4" cx="125.29" cy="120.81" r="6.5"/><circle class="cls-5" cx="125.29" cy="120.81" r="6"/></g><g id="Ellipse_183" data-name="Ellipse 183"><circle class="cls-6" cx="126.79" cy="120.31" r="2"/><circle class="cls-7" cx="126.79" cy="120.31" r="1.5"/></g></g><g id="Group_3091" data-name="Group 3091"><g id="Ellipse_184" data-name="Ellipse 184"><circle class="cls-4" cx="145.29" cy="121.81" r="6.5"/><circle class="cls-5" cx="145.29" cy="121.81" r="6"/></g><g id="Ellipse_185" data-name="Ellipse 185"><circle class="cls-6" cx="143.79" cy="121.31" r="2"/><circle class="cls-7" cx="143.79" cy="121.31" r="1.5"/></g></g></g></svg>