<svg id="Layer_1" data-name="Layer 1" xmlns="http://www.w3.org/2000/svg" xmlns:xlink="http://www.w3.org/1999/xlink" viewBox="0 0 167 167"><defs><style>.cls-1,.cls-9{fill:none;}.cls-2{fill:#fff;}.cls-3{fill:#ffb703;}.cls-4{clip-path:url(#clip-path);}.cls-5{fill:#005fab;}.cls-6{fill:#fb8500;}.cls-7{fill:#161615;}.cls-8{fill:#342326;}.cls-9{stroke:#342326;stroke-miterlimit:4;stroke-width:1px;}</style><clipPath id="clip-path"><rect class="cls-1" x="111.74" y="115.83" width="41.4" height="44.8"/></clipPath></defs><g id="Group_3166" data-name="Group 3166"><path id="Path_13929" data-name="Path 13929" class="cls-2" d="M129.69,150.77c-.1.2.1.2.2,1,.2,1,0,1.2.2,1.9a2.2,2.2,0,0,0,.5,1.2c.4.4.7.1,1.8.3s1.1.3,1.6.2a2.37,2.37,0,0,0,1.3-1.3,3.39,3.39,0,0,0,.1-3.1c-.2-.3-.5-.4-2.5-.5-2.4-.2-3-.1-3.2.3Z"/><path id="Path_13930" data-name="Path 13930" class="cls-2" d="M135.69,151.17v.8a10.87,10.87,0,0,0,.1,1.8,2.1,2.1,0,0,0,.4,1.1,1.79,1.79,0,0,0,1.4.4,10.9,10.9,0,0,0,1.7-.1c.9,0,1.1.1,1.3-.1s.4-.7.5-1.7c.1-.5,0-.5.1-1.6s.1-1.1,0-1.2c-.3-.5-1.1-.1-3,0-1.5.2-2.3,0-2.5.6Z"/><g id="Group_3155" data-name="Group 3155"><g id="Mask_Group_27" data-name="Mask Group 27"><g id="Group_2956" data-name="Group 2956"><path class="cls-3" d="M167,105.6v49.2a12.18,12.18,0,0,1-12.2,12.2h-51.2C84.62,113.5,144.22,84.2,167,105.6Z"/></g></g></g><g id="Group_3165" data-name="Group 3165"><g class="cls-4"><g id="Group_3164" data-name="Group 3164"><path id="Path_14047" data-name="Path 14047" class="cls-5" d="M120,132.53a3.53,3.53,0,0,1-.3,1.4c-.3.8-.6,1.5-1.4,1.8a2.78,2.78,0,0,1-2.2-.4,1.92,1.92,0,0,1-.6-2c.2-.7.8-1.1,1.6-1.7.7-.4,1.9-1.3,2.5-.9.5.1.4.8.4,1.8"/><path id="Path_14048" data-name="Path 14048" class="cls-5" d="M114.74,133.43a3.55,3.55,0,0,1-.2,1c-.2.6-.4,1.1-1,1.3a1.74,1.74,0,0,1-1.4-.3,1.24,1.24,0,0,1-.3-1.4c.1-.5.5-.8,1.1-1.2s1.3-.9,1.7-.7.2.6.1,1.3"/><path id="Path_14049" data-name="Path 14049" class="cls-5" d="M114.44,138a2.35,2.35,0,0,1-.2.8c-.2.4-.3.8-.7,1a1.39,1.39,0,0,1-1.1-.2.91.91,0,0,1-.2-1.1c.1-.4.4-.6.9-.9.3-.3,1-.7,1.3-.5.1,0,0,.3,0,.9"/><path id="Path_14050" data-name="Path 14050" class="cls-6" d="M121.54,146.23a9.36,9.36,0,0,0-1.4,6.3,7.06,7.06,0,0,0,1.4,4.2,6.69,6.69,0,0,0,1.9,1.4,22.65,22.65,0,0,0,7.2,2.4c1.5.2,1.6,0,6.8-.2,5.9-.3,8.3-.3,10.7-1.6a8.55,8.55,0,0,0,2.8-2.2,8.87,8.87,0,0,0,1.4-2.5,9.78,9.78,0,0,0,.7-5.1,9.28,9.28,0,0,0-3.3-5.9c-1.4-1.1-3.7-1.5-8.2-2.2-1.2-.2-2.4-.3-3.6-.4s-2.4,0-3.7.1a24.23,24.23,0,0,0-7,1.9c-2.9,1.4-4.5,2.1-5.7,3.8"/><path id="Path_14051" data-name="Path 14051" class="cls-7" d="M126.84,146a4.44,4.44,0,0,0-3,5.5c0,.1,0,.1.1.2.5,2,2.3,4.4,3.9,4.2s1.7-2.4,3.4-2.6c1.5-.1,2.1,1.9,3.7,1.7s1.6-2.1,3.1-2.2c1.8-.2,2.8,2.5,4.4,2.2,1.2-.3,1.3-2,2.5-2.1s2,2,2.9,1.8c1.4-.3,2.6-6.8-.3-9.3a9.42,9.42,0,0,0-4.6-1.9c-1.3-.2-1.8-.1-5.3.2-4.8.4-7,.4-9.2,1.6a3.38,3.38,0,0,0-1.6.7"/><path id="Path_14052" data-name="Path 14052" class="cls-2" d="M130.94,144.23c2.7-.6,3.1-.7,3.6-.4s.6,1.2.7,2.3a4.2,4.2,0,0,1-.7,3.3,4.68,4.68,0,0,1-2.8.9,3.66,3.66,0,0,1-2.5-.3,3.15,3.15,0,0,1-1-2.4c-.2-1.1-.3-1.8.2-2.4.1-.5.5-.5,2.5-1"/><path id="Path_14053" data-name="Path 14053" class="cls-2" d="M136.94,143.63a4.58,4.58,0,0,0-.1,2.6,4,4,0,0,0,.8,2.3,3.6,3.6,0,0,0,1.2.8,5.39,5.39,0,0,0,2.5.3,3.38,3.38,0,0,0,1.9-.9,3.1,3.1,0,0,0,.6-1.3,5.5,5.5,0,0,0-.2-2.2c-.2-1.3,0-1.4-.3-1.7s-1-.3-3.1-.2c-2.4,0-2.9-.1-3.3.3"/><path id="Path_14054" data-name="Path 14054" class="cls-2" d="M130.54,124.53a6.35,6.35,0,0,1-6,6.6,6.28,6.28,0,0,1-6-6.6,6,6,0,1,1,12,0Z"/><path id="Path_14056" data-name="Path 14056" class="cls-2" d="M149,122.53a6.42,6.42,0,0,1-6,6.6,6.28,6.28,0,0,1-6-6.6,6.35,6.35,0,0,1,6-6.6A6.42,6.42,0,0,1,149,122.53Z"/></g></g></g><g id="Ellipse_265" data-name="Ellipse 265"><circle class="cls-8" cx="124.44" cy="125.34" r="2"/><circle class="cls-9" cx="124.44" cy="125.34" r="1.5"/></g><g id="Ellipse_266" data-name="Ellipse 266"><circle class="cls-8" cx="142.44" cy="123.34" r="2"/><circle class="cls-9" cx="142.44" cy="123.34" r="1.5"/></g></g></svg>