<svg id="Layer_1" data-name="Layer 1" xmlns="http://www.w3.org/2000/svg" viewBox="0 0 167 167"><defs><style>.cls-1{fill:#8ecae6;}.cls-2{fill:#239ebc;}.cls-3{fill:#fff;}.cls-4,.cls-5,.cls-6,.cls-8{fill:none;}.cls-4,.cls-5{stroke:#1d1d1b;}.cls-4{stroke-miterlimit:10.01;stroke-width:0.5px;}.cls-5{stroke-miterlimit:10;stroke-width:2px;}.cls-6{stroke:#fff;}.cls-7{fill:#342326;}.cls-8{stroke:#342326;}</style></defs><g id="Group_3152" data-name="Group 3152"><g id="Mask_Group_27" data-name="Mask Group 27"><g id="Group_2956" data-name="Group 2956"><path class="cls-1" d="M167,109.5v45.3A12.18,12.18,0,0,1,154.8,167H89.3c1.2-6.5,3-14.5,5.3-24.2C110.3,77.6,141.2,90.8,167,109.5Z"/></g></g><path id="Path_14027" data-name="Path 14027" class="cls-2" d="M111.26,137.3c-.3.2,1,5.5,4.7,9.2a12.9,12.9,0,0,0,3.8,2.8,42.43,42.43,0,0,0,5,1.8,31,31,0,0,0,6.1.9,64.39,64.39,0,0,0,7.2.2,41.7,41.7,0,0,0,7.1-.4,27.22,27.22,0,0,0,5.5-1.8,29.86,29.86,0,0,0,4-2,24.26,24.26,0,0,0,2-1.4c3.4-2.8,3.5-10.2,3.3-10.2s-.1,4-2.5,6.6a17.47,17.47,0,0,1-4.2,2.9c-.2.1-1.1.5-2.5,1.2a27.72,27.72,0,0,1-6.2,1.9,32.56,32.56,0,0,1-6.2.6c-1.8.1-4.2.2-7.1.1-2.3-.3-4.2-.7-5.6-1-6.2-1.5-7.8-2.8-8.6-3.6a32.53,32.53,0,0,1-2.3-2.9c-2.6-3.4-3.4-5-3.5-4.9Z"/><path id="Path_14028" data-name="Path 14028" class="cls-3" d="M127.66,149.2a6,6,0,0,1-.1-2.3,5,5,0,0,1,.2-1.2,1.23,1.23,0,0,1,.4-.8c.2-.2.5-.2.9-.1a8.92,8.92,0,0,1,1.7.3,5.85,5.85,0,0,1,1.3.2,1.48,1.48,0,0,1,.9.5c.2.3.2.6.1,1.5a10.68,10.68,0,0,1-.3,2.5c-.3.4-.7.2-2.4,0-1.9-.3-2.4,0-2.7-.6Z"/><path id="Path_14029" data-name="Path 14029" class="cls-3" d="M138.46,149.2c-.1-.1,0-.1-.1-.7a7.77,7.77,0,0,1-.2-1.6,3,3,0,0,1,.2-1,2.39,2.39,0,0,1,1.3-.7c.7-.2.8-.1,1.8-.3s1.1-.4,1.4-.2.5.5.8,1.4a9.31,9.31,0,0,1,.4,1.4c.4,1.3.4,1.4.3,1.6-.3.5-1.2,0-3.1.1-1.4,0-2.4.5-2.8,0Z"/><g id="Group_3096" data-name="Group 3096"><g id="Group_3083" data-name="Group 3083"><path id="Path_13983" data-name="Path 13983" class="cls-4" d="M148.79,110.9a7.56,7.56,0,0,1,.44,4.18,7.68,7.68,0,0,1-1.85,3.41"/><path id="Path_13984" data-name="Path 13984" class="cls-4" d="M146.92,111.3a6.3,6.3,0,0,1,.87,3.52,5.87,5.87,0,0,1-.87,3.22"/></g><g id="Group_3085" data-name="Group 3085"><g id="Group_3088" data-name="Group 3088"><g id="Group_3087" data-name="Group 3087"><g id="Group_3086" data-name="Group 3086"><path id="Path_13982" data-name="Path 13982" class="cls-4" d="M151.08,110a10.56,10.56,0,0,1-.58,5,10.16,10.16,0,0,1-2.62,3.8"/></g></g></g></g></g><g id="Group_3084" data-name="Group 3084"><path id="Path_13981" data-name="Path 13981" class="cls-5" d="M126.66,113.58a9.06,9.06,0,0,0-7.1-1.8,8.81,8.81,0,0,0-5.1,3.1"/><g id="Group_3104" data-name="Group 3104"><g id="Ellipse_245" data-name="Ellipse 245"><ellipse class="cls-3" cx="121.69" cy="122.53" rx="6.5" ry="7"/><ellipse class="cls-6" cx="121.69" cy="122.53" rx="6" ry="6.5"/></g><g id="Ellipse_246" data-name="Ellipse 246"><ellipse class="cls-3" cx="143.69" cy="122.53" rx="6.5" ry="7"/><ellipse class="cls-6" cx="143.69" cy="122.53" rx="6" ry="6.5"/></g><g id="Ellipse_247" data-name="Ellipse 247"><circle class="cls-7" cx="123.69" cy="124.03" r="1.5"/><circle class="cls-8" cx="123.69" cy="124.03" r="1"/></g><g id="Ellipse_248" data-name="Ellipse 248"><circle class="cls-7" cx="141.69" cy="124.03" r="1.5"/><circle class="cls-8" cx="141.69" cy="124.03" r="1"/></g></g></g></g></svg>