<svg id="Layer_1" data-name="Layer 1" xmlns="http://www.w3.org/2000/svg" viewBox="0 0 193 119"><defs><style>.cls-1{fill:#023047;}.cls-2{fill:#fbfbfb;}</style></defs><rect class="cls-1" width="193" height="119" rx="10.18"/><g id="Group_3526" data-name="Group 3526"><g id="picture"><g id="Group_3393" data-name="Group 3393"><g id="Group_3392" data-name="Group 3392"><path id="Path_14268" data-name="Path 14268" class="cls-2" d="M123.05,49.79h-37a5,5,0,0,0-5,5.05h0V78.39a5,5,0,0,0,5,5h37a5,5,0,0,0,5-5V54.84A5,5,0,0,0,123.05,49.79Zm1.68,28.6a1.68,1.68,0,0,1-1.68,1.68h-37a1.69,1.69,0,0,1-1.69-1.68h0v-1l6.73-6.73,5.54,5.54a1.68,1.68,0,0,0,2.38,0L113,62.26,124.73,74Zm0-9.11L114.15,58.7a1.68,1.68,0,0,0-2.38,0l-14,13.94-5.54-5.53a1.68,1.68,0,0,0-2.38,0l-5.54,5.53V54.84a1.69,1.69,0,0,1,1.69-1.68h37a1.68,1.68,0,0,1,1.68,1.68V69.28Z" transform="translate(-9 -9)"/></g></g></g></g></svg>