<?xml version="1.0" encoding="utf-8"?>
<!-- Generator: Adobe Illustrator 25.1.0, SVG Export Plug-In . SVG Version: 6.00 Build 0)  -->
<svg version="1.1" id="Layer_1" xmlns="http://www.w3.org/2000/svg" xmlns:xlink="http://www.w3.org/1999/xlink" x="0px" y="0px"
	 viewBox="0 0 56 56" style="enable-background:new 0 0 56 56;" xml:space="preserve">
<style type="text/css">
	.st0{fill:#0D3046;}
	.st1{fill:none;}
	.st2{fill:#FFFFFF;}
</style>
<path id="Rectangle_2547" class="st0" d="M0,0h46c5.5,0,10,4.5,10,10v46l0,0L0,0L0,0z"/>
<rect id="Rectangle_862" x="29.9" y="6" class="st1" width="20" height="20"/>
<path id="Path_10989" class="st2" d="M45.3,16.5c0,1.7,1,3.3,2.6,4c-0.3,1-0.8,1.9-1.4,2.8c-0.8,1.2-1.7,2.4-3,2.4
	c-1.3,0-1.7-0.8-3.3-0.8s-2,0.8-3.2,0.8c-1.3,0-2.3-1.3-3.1-2.5c-1.7-2.4-3-6.9-1.3-9.9c0.8-1.5,2.4-2.4,4.1-2.5
	c1.3,0,2.5,0.9,3.3,0.9s2.2-1.1,3.8-0.9c1.4,0.1,2.8,0.8,3.6,2C46.1,13.5,45.3,14.9,45.3,16.5 M42.8,9.1c0.7-0.9,1.1-2,1-3.1
	c-1.1,0.1-2.2,0.6-2.9,1.5c-0.7,0.8-1.1,1.9-1,3C41,10.6,42.1,10,42.8,9.1"/>
</svg>
