<?xml version="1.0" encoding="utf-8"?>
<!-- Generator: Adobe Illustrator 25.2.1, SVG Export Plug-In . SVG Version: 6.00 Build 0)  -->
<svg version="1.1" id="Layer_1" xmlns="http://www.w3.org/2000/svg" xmlns:xlink="http://www.w3.org/1999/xlink" x="0px" y="0px"
	 viewBox="0 0 103.2 58.6" style="enable-background:new 0 0 103.2 58.6;" xml:space="preserve">
<style type="text/css">
	.st0{clip-path:url(#SVGID_2_);}
	.st1{fill:#023047;}
	.st2{clip-path:url(#SVGID_4_);}
	.st3{clip-path:url(#SVGID_6_);}
	.st4{clip-path:url(#SVGID_8_);}
</style>
<g>
	<g>
		<g>
			<defs>
				<rect id="SVGID_1_" x="-0.2" y="4.1" width="68.2" height="16.8"/>
			</defs>
			<clipPath id="SVGID_2_">
				<use xlink:href="#SVGID_1_"  style="overflow:visible;"/>
			</clipPath>
			<g id="Group_3550_1_" class="st0">
				<g id="Group_3540_1_">
					<g id="Group_3543_1_">
						<g id="LiverpooL__1_">
							<g>
								<g>
									<path class="st1" d="M13.1-3v2.9H5.4v-11.8h3.1V-3H13.1z"/>
									<path class="st1" d="M14.4-11.9h3.1v11.8h-3.1V-11.9z"/>
									<path class="st1" d="M31-11.9L25.6,0h-1.4l-5.5-11.9h3.4l2.7,6.5l2.7-6.4L31-11.9z"/>
									<path class="st1" d="M35.3-8.9v1.6H39v2.6h-3.7V-3h4.5v2.9h-7.6v-11.8h7.6V-9L35.3-8.9L35.3-8.9z"/>
									<path class="st1" d="M47.9,0l-3.2-5.1V0h-3.1v-11.9h4.5c2.5,0,4.3,1.7,4.3,3.8c0,1.4-0.8,2.6-2,3.2l3.2,4.7h-3.7V0z
										 M44.7-6.7H46c0.7,0,1.2-0.5,1.2-1.2S46.7-9.1,46-9.1l0,0h-1.3V-6.7z"/>
									<path class="st1" d="M52.7-11.9h4.5c2.3,0,4.3,1.8,4.4,4.2c-0.1,2.4-2.1,4.2-4.5,4.2h-1.3V0h-3.1
										C52.7,0,52.7-11.9,52.7-11.9z M58.6-7.7C58.6-8.4,58-9,57.2-9h-0.1h-1.3v2.6h1.3C57.9-6.4,58.5-6.9,58.6-7.7L58.6-7.7z"/>
									<path class="st1" d="M62.4-5.9c-0.2-3.6,2.6-6.6,6.2-6.8c3.6-0.2,6.6,2.6,6.8,6.2s-2.6,6.6-6.2,6.8c-0.1,0-0.2,0-0.3,0
										c-3.4,0.1-6.4-2.5-6.5-6C62.4-5.8,62.4-5.9,62.4-5.9z M72.2-5.9c0.1-1.8-1.4-3.4-3.2-3.4c-1.8-0.1-3.4,1.4-3.4,3.2
										c-0.1,1.8,1.4,3.4,3.2,3.4h0.1C70.7-2.6,72.2-4,72.2-5.9L72.2-5.9L72.2-5.9z"/>
									<path class="st1" d="M76.4-5.9c-0.2-3.6,2.6-6.6,6.2-6.8c3.6-0.2,6.6,2.6,6.8,6.2s-2.6,6.6-6.2,6.8c-0.1,0-0.2,0-0.3,0
										c-3.4,0.1-6.3-2.6-6.5-6C76.4-5.8,76.4-5.9,76.4-5.9z M86.2-5.9c0.1-1.8-1.4-3.4-3.2-3.4c-1.8-0.1-3.4,1.4-3.4,3.2
										c-0.1,1.8,1.4,3.4,3.2,3.4h0.1C84.7-2.7,86.1-4.1,86.2-5.9L86.2-5.9L86.2-5.9z"/>
									<path class="st1" d="M98.6-3v2.9h-7.7v-11.8H94V-3H98.6z"/>
									<path class="st1" d="M115.1,0.1c-1.1-0.1-2.3-0.4-3.2-1c-1,0.8-2.2,1.2-3.4,1.1c-2.9,0-4.5-1.9-4.5-3.8
										c0-1.3,0.7-2.5,1.8-3.2c-0.4-0.6-0.6-1.4-0.6-2.1c0.1-2,1.8-3.5,3.8-3.3c1.7-0.1,3.3,1.2,3.6,2.9l-2.7,0.7
										c0-0.6-0.4-1-1-1.1c-0.5,0-0.9,0.4-0.9,0.9c0,0,0,0,0,0.1c0,1.1,1.4,2.7,3,4c0.1-0.5,0.2-1,0.2-1.5h2.9
										c0,1.1-0.2,2.1-0.6,3.1c0.5,0.3,1.1,0.5,1.7,0.5L115.1,0.1z M109.4-2.6c-0.8-0.6-1.5-1.4-2.2-2.1c-0.3,0.3-0.5,0.7-0.5,1.1
										c0,0.8,0.6,1.3,1.7,1.3C108.7-2.4,109-2.5,109.4-2.6z"/>
								</g>
							</g>
						</g>
					</g>
					<g id="Group_3551_1_">
						<g id="_SEFTON__1_">
							<g>
								<g>
									<path class="st1" d="M4.4,16l1.9-1.9c0.6,0.8,1.5,1.2,2.4,1.2c0.7,0,1.3-0.2,1.3-0.7s-1.2-1.1-2.4-1.7
										c-1.5-0.6-2.8-1.6-2.8-3.4C4.8,7.5,6.7,6,9,6c1.5-0.1,3,0.7,3.7,2l-1.8,1.8c-0.4-0.6-1.1-0.9-1.8-0.9C8.5,8.9,8,9.2,8,9.6
										s0.8,0.7,2.1,1.3c1.8,0.8,3.1,1.9,3.1,3.6c0,2.2-2.1,3.6-4.5,3.6C6.7,18.1,5,17.3,4.4,16z"/>
									<path class="st1" d="M17.7,9.1v1.6h3.7v2.6h-3.7V15h4.6v2.9h-7.7V6.1h7.7V9h-4.6V9.1z"/>
									<path class="st1" d="M27.1,9.1V11h3.8v2.6h-3.8V18H24V6.1h7.6v3H27.1z"/>
								</g>
								<g>
									<path class="st1" d="M41,9.1h-2.8V18h-3.1V9.1h-2.8V6.2h8.8L41,9.1z"/>
								</g>
								<g>
									<path class="st1" d="M41.3,12.1c0-3.6,2.9-6.5,6.5-6.5s6.5,2.9,6.5,6.5c0,3.4-2.8,6.2-6.3,6.2c-0.1,0-0.2,0-0.2,0
										c-3.4,0.2-6.3-2.5-6.5-5.9C41.3,12.2,41.3,12.2,41.3,12.1z M51.1,12.1c0.1-1.8-1.4-3.4-3.2-3.4c-1.8-0.1-3.4,1.4-3.4,3.2
										c-0.1,1.8,1.4,3.4,3.2,3.4h0.1C49.5,15.3,51,13.9,51.1,12.1L51.1,12.1L51.1,12.1z"/>
									<path class="st1" d="M66,6.1V18h-1l-6.1-5.9v5.8h-3.1V6h1l6,5.9V6.1H66z"/>
								</g>
							</g>
						</g>
					</g>
				</g>
				<g id="_CAMHS_1_">
					<g>
						<path class="st1" d="M74.5,6.9L70,19.4h-1.1l4.5-12.5C73.4,6.9,74.5,6.9,74.5,6.9z"/>
						<path class="st1" d="M86.3,9.2l-0.8,0.6c-0.4-0.6-1-1.1-1.7-1.4s-1.4-0.5-2.2-0.5c-0.8,0-1.7,0.2-2.4,0.6
							c-0.7,0.4-1.3,1-1.7,1.7c-0.4,0.7-0.6,1.5-0.6,2.4c0,1.2,0.5,2.4,1.4,3.3s2.1,1.4,3.4,1.3c1.5,0,2.9-0.6,3.8-1.8l0.8,0.6
							c-0.5,0.7-1.2,1.2-2,1.6s-1.8,0.6-2.7,0.6c-3.1,0.2-5.7-2.2-5.8-5.2c0-0.1,0-0.3,0-0.4c0-1.5,0.5-3,1.6-4
							C78.5,7.5,80,6.9,81.6,7c0.9,0,1.9,0.2,2.7,0.6C85.1,7.9,85.8,8.5,86.3,9.2z"/>
						<path class="st1" d="M92.8,7.2l5,10.8h-1.1L95,14.5h-4.6L88.7,18h-1.2l5.1-10.8H92.8z M92.7,9.5l-1.8,3.9h3.6L92.7,9.5z"/>
						<path class="st1" d="M99.1,18l1.5-10.8h0.2l4.4,8.8l4.3-8.8h0.2l1.6,10.8h-1l-1.1-7.7l-3.8,7.7h-0.3l-3.8-7.8l-1.1,7.8H99.1z"
							/>
						<path class="st1" d="M113.3,7.2h1.1v4.5h5.5V7.2h1.1V18h-1.1v-5.2h-5.5V18h-1.1V7.2z"/>
						<path class="st1" d="M122.5,15.9l0.9-0.5c0.6,1.2,1.4,1.8,2.2,1.8c0.3,0,0.7-0.1,1-0.2c0.6-0.3,1-0.9,1-1.6
							c0-0.4-0.1-0.8-0.4-1.1c-0.5-0.7-1.2-1.2-1.8-1.7c-0.6-0.4-1.2-0.9-1.7-1.5c-0.4-0.5-0.6-1.1-0.6-1.6c0-0.4,0.1-0.9,0.3-1.3
							c0.2-0.4,0.6-0.7,1-0.9c0.4-0.2,0.9-0.3,1.3-0.3c0.5,0,1,0.1,1.4,0.4c0.6,0.4,1,0.8,1.4,1.4l-0.9,0.7c-0.3-0.4-0.6-0.8-1-1.1
							c-0.3-0.2-0.6-0.3-0.9-0.2c-0.4,0-0.8,0.1-1.1,0.4c-0.3,0.3-0.4,0.6-0.4,1c0,0.2,0.1,0.5,0.2,0.7c0.1,0.3,0.3,0.5,0.5,0.7
							c0.1,0.1,0.6,0.5,1.4,1.1c0.7,0.5,1.4,1.1,1.9,1.8c0.3,0.5,0.5,1,0.5,1.6c0,0.8-0.3,1.5-0.9,2c-0.6,0.6-1.4,0.9-2.2,0.9
							c-0.6,0-1.3-0.2-1.8-0.5C123.4,17.2,122.8,16.6,122.5,15.9z"/>
					</g>
				</g>
			</g>
		</g>
	</g>
</g>
<g>
	<g>
		<g>
			<defs>
				<rect id="SVGID_3_" x="-5.8" y="19.6" width="106.1" height="18.9"/>
			</defs>
			<clipPath id="SVGID_4_">
				<use xlink:href="#SVGID_3_"  style="overflow:visible;"/>
			</clipPath>
			<g id="Group_3550" class="st2">
				<g id="Group_3540">
					<g id="Group_3543">
						<g id="LiverpooL_">
							<g>
								<g>
									<path class="st1" d="M13.1,33.3v2.9H5.4V24.4h3.1v8.9H13.1z"/>
									<path class="st1" d="M14.4,24.4h3.1v11.8h-3.1V24.4z"/>
									<path class="st1" d="M31,24.4l-5.4,11.9h-1.4l-5.5-11.9h3.4l2.7,6.5l2.7-6.4L31,24.4z"/>
									<path class="st1" d="M35.3,27.4V29H39v2.6h-3.7v1.7h4.5v2.9h-7.6V24.4h7.6v2.9h-4.5V27.4z"/>
									<path class="st1" d="M47.9,36.3l-3.2-5.1v5.1h-3.1V24.4h4.5c2.5,0,4.3,1.7,4.3,3.8c0,1.4-0.8,2.6-2,3.2l3.2,4.7h-3.7V36.3z
										 M44.7,29.6H46c0.7,0,1.2-0.5,1.2-1.2s-0.5-1.2-1.2-1.2l0,0h-1.3V29.6z"/>
									<path class="st1" d="M52.7,24.4h4.5c2.3,0,4.3,1.8,4.4,4.2c-0.1,2.4-2.1,4.2-4.5,4.2h-1.3v3.5h-3.1
										C52.7,36.3,52.7,24.4,52.7,24.4z M58.6,28.6c0-0.7-0.6-1.3-1.4-1.3h-0.1h-1.3v2.6h1.3C57.9,29.9,58.5,29.4,58.6,28.6
										L58.6,28.6z"/>
									<path class="st1" d="M62.4,30.4c-0.2-3.6,2.6-6.6,6.2-6.8s6.6,2.6,6.8,6.2s-2.6,6.6-6.2,6.8c-0.1,0-0.2,0-0.3,0
										c-3.4,0.1-6.4-2.5-6.5-6C62.4,30.5,62.4,30.4,62.4,30.4z M72.2,30.4c0.1-1.8-1.4-3.4-3.2-3.4c-1.8-0.1-3.4,1.4-3.4,3.2
										c-0.1,1.8,1.4,3.4,3.2,3.4h0.1c1.8,0.1,3.3-1.3,3.3-3.1C72.2,30.4,72.2,30.4,72.2,30.4L72.2,30.4z"/>
									<path class="st1" d="M76.4,30.4c-0.2-3.6,2.6-6.6,6.2-6.8s6.6,2.6,6.8,6.2s-2.6,6.6-6.2,6.8c-0.1,0-0.2,0-0.3,0
										c-3.4,0.1-6.3-2.6-6.5-6C76.4,30.5,76.4,30.4,76.4,30.4z M86.2,30.4c0.1-1.8-1.4-3.4-3.2-3.4c-1.8-0.1-3.4,1.4-3.4,3.2
										c-0.1,1.8,1.4,3.4,3.2,3.4h0.1C84.7,33.6,86.1,32.2,86.2,30.4L86.2,30.4L86.2,30.4z"/>
									<path class="st1" d="M98.6,33.3v2.9h-7.7V24.4H94v8.9H98.6z"/>
									<path class="st1" d="M115.1,36.4c-1.1-0.1-2.3-0.4-3.2-1c-1,0.8-2.2,1.2-3.4,1.1c-2.9,0-4.5-1.9-4.5-3.8
										c0-1.3,0.7-2.5,1.8-3.2c-0.4-0.6-0.6-1.4-0.6-2.1c0.1-2,1.8-3.5,3.8-3.3c1.7-0.1,3.3,1.2,3.6,2.9l-2.7,0.7
										c0-0.6-0.4-1-1-1.1c-0.5,0-0.9,0.4-0.9,0.9c0,0,0,0,0,0.1c0,1.1,1.4,2.7,3,4c0.1-0.5,0.2-1,0.2-1.5h2.9
										c0,1.1-0.2,2.1-0.6,3.1c0.5,0.3,1.1,0.5,1.7,0.5L115.1,36.4z M109.4,33.7c-0.8-0.6-1.5-1.4-2.2-2.1
										c-0.3,0.3-0.5,0.7-0.5,1.1c0,0.8,0.6,1.3,1.7,1.3C108.7,33.9,109,33.8,109.4,33.7z"/>
								</g>
							</g>
						</g>
					</g>
					<g id="Group_3551">
						<g id="_SEFTON_">
							<g>
								<g>
									<path class="st1" d="M4.4,52.3l1.9-1.9c0.6,0.8,1.5,1.2,2.4,1.2c0.7,0,1.3-0.2,1.3-0.7s-1.2-1.1-2.4-1.7
										c-1.5-0.6-2.8-1.6-2.8-3.4c0-2,1.9-3.5,4.2-3.5c1.5-0.1,3,0.7,3.7,2l-1.8,1.8c-0.4-0.6-1.1-0.9-1.8-0.9
										c-0.6,0-1.1,0.3-1.1,0.7s0.8,0.7,2.1,1.3c1.8,0.8,3.1,1.9,3.1,3.6c0,2.2-2.1,3.6-4.5,3.6C6.7,54.4,5,53.6,4.4,52.3z"/>
									<path class="st1" d="M17.7,45.4V47h3.7v2.6h-3.7v1.7h4.6v2.9h-7.7V42.4h7.7v2.9L17.7,45.4L17.7,45.4z"/>
									<path class="st1" d="M27.1,45.4v1.9h3.8v2.6h-3.8v4.4H24V42.4h7.6v3H27.1z"/>
								</g>
								<g>
									<path class="st1" d="M41,45.4h-2.8v8.9h-3.1v-8.9h-2.8v-2.9h8.8L41,45.4z"/>
								</g>
								<g>
									<path class="st1" d="M41.3,48.4c0-3.6,2.9-6.5,6.5-6.5s6.5,2.9,6.5,6.5c0,3.4-2.8,6.2-6.3,6.2c-0.1,0-0.2,0-0.2,0
										c-3.4,0.2-6.3-2.5-6.5-5.9C41.3,48.5,41.3,48.5,41.3,48.4z M51.1,48.4c0.1-1.8-1.4-3.4-3.2-3.4c-1.8-0.1-3.4,1.4-3.4,3.2
										c-0.1,1.8,1.4,3.4,3.2,3.4h0.1C49.5,51.6,51,50.2,51.1,48.4L51.1,48.4L51.1,48.4z"/>
									<path class="st1" d="M66,42.4v11.9h-1l-6.1-5.9v5.8h-3.1V42.3h1l6,5.9v-5.8H66z"/>
								</g>
							</g>
						</g>
					</g>
				</g>
				<g id="_CAMHS">
					<g>
						<path class="st1" d="M74.5,43.2L70,55.7h-1.1l4.5-12.5H74.5z"/>
						<path class="st1" d="M86.3,45.5l-0.8,0.6c-0.4-0.6-1-1.1-1.7-1.4s-1.4-0.5-2.2-0.5c-0.8,0-1.7,0.2-2.4,0.6
							c-0.7,0.4-1.3,1-1.7,1.7c-0.4,0.7-0.6,1.5-0.6,2.4c0,1.2,0.5,2.4,1.4,3.3c0.9,0.9,2.1,1.4,3.4,1.3c1.5,0,2.9-0.6,3.8-1.8
							l0.8,0.6c-0.5,0.7-1.2,1.2-2,1.6c-0.8,0.4-1.8,0.6-2.7,0.6c-3.1,0.2-5.7-2.2-5.8-5.2c0-0.1,0-0.3,0-0.4c0-1.5,0.5-3,1.6-4
							c1.1-1.1,2.6-1.7,4.2-1.6c0.9,0,1.9,0.2,2.7,0.6C85.1,44.2,85.8,44.8,86.3,45.5z"/>
						<path class="st1" d="M92.8,43.5l5,10.8h-1.1L95,50.8h-4.6l-1.7,3.5h-1.2l5.1-10.8C92.6,43.5,92.8,43.5,92.8,43.5z M92.7,45.8
							l-1.8,3.9h3.6L92.7,45.8z"/>
						<path class="st1" d="M99.1,54.3l1.5-10.8h0.2l4.4,8.8l4.3-8.8h0.2l1.6,10.8h-1l-1.1-7.7l-3.8,7.7h-0.3l-3.8-7.8l-1.1,7.8H99.1
							z"/>
						<path class="st1" d="M113.3,43.5h1.1V48h5.5v-4.5h1.1v10.8h-1.1v-5.2h-5.5v5.2h-1.1V43.5z"/>
						<path class="st1" d="M122.5,52.2l0.9-0.5c0.6,1.2,1.4,1.8,2.2,1.8c0.3,0,0.7-0.1,1-0.2c0.6-0.3,1-0.9,1-1.6
							c0-0.4-0.1-0.8-0.4-1.1c-0.5-0.7-1.2-1.2-1.8-1.7c-0.6-0.4-1.2-0.9-1.7-1.5c-0.4-0.5-0.6-1.1-0.6-1.6c0-0.4,0.1-0.9,0.3-1.3
							c0.2-0.4,0.6-0.7,1-0.9s0.9-0.3,1.3-0.3c0.5,0,1,0.1,1.4,0.4c0.6,0.4,1,0.8,1.4,1.4l-0.9,0.7c-0.3-0.4-0.6-0.8-1-1.1
							c-0.3-0.2-0.6-0.3-0.9-0.2c-0.4,0-0.8,0.1-1.1,0.4c-0.3,0.3-0.4,0.6-0.4,1c0,0.2,0.1,0.5,0.2,0.7c0.1,0.3,0.3,0.5,0.5,0.7
							c0.1,0.1,0.6,0.5,1.4,1.1c0.7,0.5,1.4,1.1,1.9,1.8c0.3,0.5,0.5,1,0.5,1.6c0,0.8-0.3,1.5-0.9,2c-0.6,0.6-1.4,0.9-2.2,0.9
							c-0.6,0-1.3-0.2-1.8-0.5C123.4,53.5,122.8,52.9,122.5,52.2z"/>
					</g>
				</g>
			</g>
		</g>
	</g>
</g>
<g>
	<g>
		<g>
			<defs>
				<rect id="SVGID_5_" x="67.5" y="2.9" width="17.8" height="19.3"/>
			</defs>
			<clipPath id="SVGID_6_">
				<use xlink:href="#SVGID_5_"  style="overflow:visible;"/>
			</clipPath>
			<g id="Group_3550_2_" class="st3">
				<g id="Group_3540_2_">
					<g id="Group_3543_2_">
						<g id="LiverpooL__2_">
							<g>
								<g>
									<path class="st1" d="M-19.6,15.1V18h-7.7V6.2h3.1v8.9C-24.2,15.1-19.6,15.1-19.6,15.1z"/>
									<path class="st1" d="M-18.3,6.2h3.1V18h-3.1V6.2z"/>
									<path class="st1" d="M-1.7,6.2l-5.4,11.9h-1.4L-14,6.2h3.4l2.7,6.5l2.7-6.4L-1.7,6.2z"/>
									<path class="st1" d="M2.6,9.2v1.6h3.7v2.6H2.6v1.7h4.5V18h-7.6V6.2h7.6v2.9L2.6,9.2L2.6,9.2z"/>
									<path class="st1" d="M15.2,18.1L12,13v5.1H8.9V6.2h4.5c2.5,0,4.3,1.7,4.3,3.8c0,1.4-0.8,2.6-2,3.2l3.2,4.7h-3.7
										C15.2,17.9,15.2,18.1,15.2,18.1z M12,11.4h1.3c0.7,0,1.2-0.5,1.2-1.2S14,9,13.3,9l0,0H12V11.4z"/>
									<path class="st1" d="M20,6.2h4.5c2.3,0,4.3,1.8,4.4,4.2c-0.1,2.4-2.1,4.2-4.5,4.2h-1.3v3.5H20V6.2z M25.9,10.4
										c0-0.7-0.6-1.3-1.4-1.3h-0.1h-1.3v2.6h1.3C25.2,11.7,25.8,11.2,25.9,10.4L25.9,10.4z"/>
									<path class="st1" d="M29.7,12.2c-0.2-3.6,2.6-6.6,6.2-6.8s6.6,2.6,6.8,6.2s-2.6,6.6-6.2,6.8c-0.1,0-0.2,0-0.3,0
										c-3.4,0.1-6.4-2.5-6.5-6C29.7,12.3,29.7,12.2,29.7,12.2z M39.5,12.2c0.1-1.8-1.4-3.4-3.2-3.4c-1.8-0.1-3.4,1.4-3.4,3.2
										c-0.1,1.8,1.4,3.4,3.2,3.4h0.1C38,15.5,39.5,14.1,39.5,12.2L39.5,12.2L39.5,12.2z"/>
									<path class="st1" d="M43.7,12.2c-0.2-3.6,2.6-6.6,6.2-6.8s6.6,2.6,6.8,6.2s-2.6,6.6-6.2,6.8c-0.1,0-0.2,0-0.3,0
										c-3.4,0.1-6.3-2.6-6.5-6C43.7,12.3,43.7,12.2,43.7,12.2z M53.5,12.2c0.1-1.8-1.4-3.4-3.2-3.4c-1.8-0.1-3.4,1.4-3.4,3.2
										c-0.1,1.8,1.4,3.4,3.2,3.4h0.1C52,15.4,53.4,14,53.5,12.2L53.5,12.2L53.5,12.2z"/>
									<path class="st1" d="M65.9,15.1V18h-7.7V6.2h3.1v8.9C61.3,15.1,65.9,15.1,65.9,15.1z"/>
									<path class="st1" d="M82.4,18.2c-1.1-0.1-2.3-0.4-3.2-1c-1,0.8-2.2,1.2-3.4,1.1c-2.9,0-4.5-1.9-4.5-3.8
										c0-1.3,0.7-2.5,1.8-3.2c-0.4-0.6-0.6-1.4-0.6-2.1c0.1-2,1.8-3.5,3.8-3.3c1.7-0.1,3.3,1.2,3.6,2.9l-2.7,0.7
										c0-0.6-0.4-1-1-1.1c-0.5,0-0.9,0.4-0.9,0.9c0,0,0,0,0,0.1c0,1.1,1.4,2.7,3,4c0.1-0.5,0.2-1,0.2-1.5h2.9
										c0,1.1-0.2,2.1-0.6,3.1c0.5,0.3,1.1,0.5,1.7,0.5L82.4,18.2z M76.7,15.5c-0.8-0.6-1.5-1.4-2.2-2.1c-0.3,0.3-0.5,0.7-0.5,1.1
										c0,0.8,0.6,1.3,1.7,1.3C76,15.7,76.3,15.6,76.7,15.5z"/>
								</g>
							</g>
						</g>
					</g>
					<g id="Group_3551_2_">
						<g id="_SEFTON__2_">
							<g>
								<g>
									<path class="st1" d="M-28.3,34.1l1.9-1.9c0.6,0.8,1.5,1.2,2.4,1.2c0.7,0,1.3-0.2,1.3-0.7s-1.2-1.1-2.4-1.7
										c-1.5-0.6-2.8-1.6-2.8-3.4c0-2,1.9-3.5,4.2-3.5c1.5-0.1,3,0.7,3.7,2l-1.8,1.8c-0.4-0.6-1.1-0.9-1.8-0.9
										c-0.6,0-1.1,0.3-1.1,0.7s0.8,0.7,2.1,1.3c1.8,0.8,3.1,1.9,3.1,3.6c0,2.2-2.1,3.6-4.5,3.6C-26,36.2-27.7,35.4-28.3,34.1z"/>
									<path class="st1" d="M-15,27.2v1.6h3.7v2.6H-15v1.7h4.6V36h-7.7V24.2h7.7v2.9H-15V27.2z"/>
									<path class="st1" d="M-5.6,27.2v1.9h3.8v2.6h-3.8v4.4h-3.1V24.2h7.6v3H-5.6z"/>
								</g>
								<g>
									<path class="st1" d="M8.3,27.2H5.5v8.9H2.4v-8.9h-2.8v-2.9h8.8L8.3,27.2z"/>
								</g>
								<g>
									<path class="st1" d="M8.6,30.2c0-3.6,2.9-6.5,6.5-6.5s6.5,2.9,6.5,6.5c0,3.4-2.8,6.2-6.3,6.2c-0.1,0-0.2,0-0.2,0
										c-3.4,0.2-6.3-2.5-6.5-5.9C8.6,30.3,8.6,30.3,8.6,30.2z M18.4,30.2c0.1-1.8-1.4-3.4-3.2-3.4c-1.8-0.1-3.4,1.4-3.4,3.2
										c-0.1,1.8,1.4,3.4,3.2,3.4h0.1C16.8,33.4,18.3,32,18.4,30.2L18.4,30.2L18.4,30.2z"/>
									<path class="st1" d="M33.3,24.2v11.9h-1l-6.1-5.9V36h-3.1V24.1h1l6,5.9v-5.8H33.3z"/>
								</g>
							</g>
						</g>
					</g>
				</g>
				<g id="_CAMHS_2_">
					<g>
						<path class="st1" d="M41.8,25l-4.5,12.5h-1.1L40.7,25H41.8z"/>
						<path class="st1" d="M53.6,27.3l-0.8,0.6c-0.4-0.6-1-1.1-1.7-1.4S49.7,26,48.9,26s-1.7,0.2-2.4,0.6s-1.3,1-1.7,1.7
							s-0.6,1.5-0.6,2.4c0,1.2,0.5,2.4,1.4,3.3c0.9,0.9,2.1,1.4,3.4,1.3c1.5,0,2.9-0.6,3.8-1.8l0.8,0.6c-0.5,0.7-1.2,1.2-2,1.6
							c-0.8,0.4-1.8,0.6-2.7,0.6c-3.1,0.2-5.7-2.2-5.8-5.2c0-0.1,0-0.3,0-0.4c0-1.5,0.5-3,1.6-4c1.1-1.1,2.6-1.7,4.2-1.6
							c0.9,0,1.9,0.2,2.7,0.6C52.4,26,53.1,26.6,53.6,27.3z"/>
						<path class="st1" d="M60.1,25.3l5,10.8H64l-1.7-3.5h-4.6L56,36.1h-1.2l5.1-10.8C59.9,25.3,60.1,25.3,60.1,25.3z M60,27.6
							l-1.8,3.9h3.6L60,27.6z"/>
						<path class="st1" d="M66.4,36.1l1.5-10.8h0.2l4.4,8.8l4.3-8.8H77l1.6,10.8h-1l-1.1-7.7l-3.8,7.7h-0.3l-3.8-7.8l-1.1,7.8H66.4z
							"/>
						<path class="st1" d="M80.6,25.3h1.1v4.5h5.5v-4.5h1.1v10.8h-1.1v-5.2h-5.5v5.2h-1.1V25.3z"/>
						<path class="st1" d="M89.8,34l0.9-0.5c0.6,1.2,1.4,1.8,2.2,1.8c0.3,0,0.7-0.1,1-0.2c0.6-0.3,1-0.9,1-1.6
							c0-0.4-0.1-0.8-0.4-1.1c-0.5-0.7-1.2-1.2-1.8-1.7c-0.6-0.4-1.2-0.9-1.7-1.5c-0.4-0.5-0.6-1.1-0.6-1.6c0-0.4,0.1-0.9,0.3-1.3
							c0.2-0.4,0.6-0.7,1-0.9c0.4-0.2,0.9-0.3,1.3-0.3c0.5,0,1,0.1,1.4,0.4c0.6,0.4,1,0.8,1.4,1.4l-0.9,0.7c-0.3-0.4-0.6-0.8-1-1.1
							c-0.3-0.2-0.6-0.3-0.9-0.2c-0.4,0-0.8,0.1-1.1,0.4c-0.3,0.3-0.4,0.6-0.4,1c0,0.2,0.1,0.5,0.2,0.7c0.1,0.3,0.3,0.5,0.5,0.7
							c0.1,0.1,0.6,0.5,1.4,1.1c0.7,0.5,1.4,1.1,1.9,1.8c0.3,0.5,0.5,1,0.5,1.6c0,0.8-0.3,1.5-0.9,2c-0.6,0.6-1.4,0.9-2.2,0.9
							c-0.6,0-1.3-0.2-1.8-0.5C90.7,35.3,90.1,34.7,89.8,34z"/>
					</g>
				</g>
			</g>
		</g>
	</g>
</g>
<g>
	<g>
		<defs>
			<rect id="SVGID_7_" x="-2.8" y="39.1" width="68.8" height="18"/>
		</defs>
		<clipPath id="SVGID_8_">
			<use xlink:href="#SVGID_7_"  style="overflow:visible;"/>
		</clipPath>
		<g id="Group_3550_3_" class="st4">
			<g id="Group_3540_3_">
				<g id="Group_3543_3_">
					<g id="LiverpooL__3_">
						<g>
							<g>
								<path class="st1" d="M-57.4,32.6v2.9h-7.7V23.7h3.1v8.9H-57.4z"/>
								<path class="st1" d="M-56.1,23.7h3.1v11.8h-3.1V23.7z"/>
								<path class="st1" d="M-39.5,23.7l-5.4,11.9h-1.4l-5.5-11.9h3.4l2.7,6.5l2.7-6.4L-39.5,23.7z"/>
								<path class="st1" d="M-35.2,26.7v1.6h3.7v2.6h-3.7v1.7h4.5v2.9h-7.6V23.7h7.6v2.9h-4.5C-35.2,26.6-35.2,26.7-35.2,26.7z"/>
								<path class="st1" d="M-22.6,35.6l-3.2-5.1v5.1h-3.1V23.7h4.5c2.5,0,4.3,1.7,4.3,3.8c0,1.4-0.8,2.6-2,3.2l3.2,4.7h-3.7
									C-22.6,35.4-22.6,35.6-22.6,35.6z M-25.8,28.9h1.3c0.7,0,1.2-0.5,1.2-1.2s-0.5-1.2-1.2-1.2l0,0h-1.3V28.9z"/>
								<path class="st1" d="M-17.8,23.7h4.5c2.3,0,4.3,1.8,4.4,4.2c-0.1,2.4-2.1,4.2-4.5,4.2h-1.3v3.5h-3.1
									C-17.8,35.6-17.8,23.7-17.8,23.7z M-11.9,27.9c0-0.7-0.6-1.3-1.4-1.3h-0.1h-1.3v2.6h1.3C-12.6,29.2-12,28.7-11.9,27.9
									L-11.9,27.9z"/>
								<path class="st1" d="M-8.1,29.7c-0.2-3.6,2.6-6.6,6.2-6.8c3.6-0.2,6.6,2.6,6.8,6.2s-2.6,6.6-6.2,6.8c-0.1,0-0.2,0-0.3,0
									C-5,36-8,33.4-8.1,29.9C-8.1,29.8-8.1,29.7-8.1,29.7z M1.7,29.7c0.1-1.8-1.4-3.4-3.2-3.4c-1.8-0.1-3.4,1.4-3.4,3.2
									c-0.1,1.8,1.4,3.4,3.2,3.4h0.1c1.8,0.1,3.3-1.3,3.3-3.1C1.7,29.7,1.7,29.7,1.7,29.7L1.7,29.7z"/>
								<path class="st1" d="M5.9,29.7c-0.2-3.6,2.6-6.6,6.2-6.8c3.6-0.2,6.6,2.6,6.8,6.2s-2.6,6.6-6.2,6.8c-0.1,0-0.2,0-0.3,0
									c-3.4,0.1-6.3-2.6-6.5-6C5.9,29.8,5.9,29.7,5.9,29.7z M15.7,29.7c0.1-1.8-1.4-3.4-3.2-3.4c-1.8-0.1-3.4,1.4-3.4,3.2
									c-0.1,1.8,1.4,3.4,3.2,3.4h0.1C14.2,32.9,15.6,31.5,15.7,29.7L15.7,29.7L15.7,29.7z"/>
								<path class="st1" d="M28.1,32.6v2.9h-7.7V23.7h3.1v8.9H28.1z"/>
								<path class="st1" d="M44.6,35.7c-1.1-0.1-2.3-0.4-3.2-1c-1,0.8-2.2,1.2-3.4,1.1c-2.9,0-4.5-1.9-4.5-3.8
									c0-1.3,0.7-2.5,1.8-3.2c-0.4-0.6-0.6-1.4-0.6-2.1c0.1-2,1.8-3.5,3.8-3.3c1.7-0.1,3.3,1.2,3.6,2.9L39.4,27c0-0.6-0.4-1-1-1.1
									c-0.5,0-0.9,0.4-0.9,0.9c0,0,0,0,0,0.1c0,1.1,1.4,2.7,3,4c0.1-0.5,0.2-1,0.2-1.5h2.9c0,1.1-0.2,2.1-0.6,3.1
									c0.5,0.3,1.1,0.5,1.7,0.5L44.6,35.7z M38.9,33c-0.8-0.6-1.5-1.4-2.2-2.1c-0.3,0.3-0.5,0.7-0.5,1.1c0,0.8,0.6,1.3,1.7,1.3
									C38.2,33.2,38.5,33.1,38.9,33z"/>
							</g>
						</g>
					</g>
				</g>
				<g id="Group_3551_3_">
					<g id="_SEFTON__3_">
						<g>
							<g>
								<path class="st1" d="M-66.1,51.6l1.9-1.9c0.6,0.8,1.5,1.2,2.4,1.2c0.7,0,1.3-0.2,1.3-0.7s-1.2-1.1-2.4-1.7
									c-1.5-0.6-2.8-1.6-2.8-3.4c0-2,1.9-3.5,4.2-3.5c1.5-0.1,3,0.7,3.7,2l-1.8,1.8c-0.4-0.6-1.1-0.9-1.8-0.9
									c-0.6,0-1.1,0.3-1.1,0.7s0.8,0.7,2.1,1.3c1.8,0.8,3.1,1.9,3.1,3.6c0,2.2-2.1,3.6-4.5,3.6C-63.8,53.7-65.5,52.9-66.1,51.6z"
									/>
								<path class="st1" d="M-52.8,44.7v1.6h3.7v2.6h-3.7v1.7h4.6v2.9h-7.7V41.7h7.7v2.9L-52.8,44.7L-52.8,44.7z"/>
								<path class="st1" d="M-43.4,44.7v1.9h3.8v2.6h-3.8v4.4h-3.1V41.7h7.6v3H-43.4z"/>
							</g>
							<g>
								<path class="st1" d="M-29.5,44.7h-2.8v8.9h-3.1v-8.9h-2.8v-2.9h8.8L-29.5,44.7z"/>
							</g>
							<g>
								<path class="st1" d="M-29.2,47.7c0-3.6,2.9-6.5,6.5-6.5s6.5,2.9,6.5,6.5c0,3.4-2.8,6.2-6.3,6.2c-0.1,0-0.2,0-0.2,0
									c-3.4,0.2-6.3-2.5-6.5-5.9C-29.2,47.8-29.2,47.8-29.2,47.7z M-19.4,47.7c0.1-1.8-1.4-3.4-3.2-3.4c-1.8-0.1-3.4,1.4-3.4,3.2
									c-0.1,1.8,1.4,3.4,3.2,3.4h0.1C-21,50.9-19.5,49.5-19.4,47.7L-19.4,47.7L-19.4,47.7z"/>
								<path class="st1" d="M-4.5,41.7v11.9h-1l-6.1-5.9v5.8h-3.1V41.6h1l6,5.9v-5.8H-4.5z"/>
							</g>
						</g>
					</g>
				</g>
			</g>
			<g id="_CAMHS_3_">
				<g>
					<path class="st1" d="M15.8,44.8L15,45.4c-0.4-0.6-1-1.1-1.7-1.4s-1.4-0.5-2.2-0.5s-1.7,0.2-2.4,0.6c-0.7,0.4-1.3,1-1.7,1.7
						s-0.6,1.5-0.6,2.4c0,1.2,0.5,2.4,1.4,3.3c0.9,0.9,2.1,1.4,3.4,1.3c1.5,0,2.9-0.6,3.8-1.8l0.8,0.6c-0.5,0.7-1.2,1.2-2,1.6
						c-0.8,0.4-1.8,0.6-2.7,0.6C8,54,5.4,51.6,5.3,48.6c0-0.1,0-0.3,0-0.4c0-1.5,0.5-3,1.6-4c1.1-1.1,2.6-1.7,4.2-1.6
						c0.9,0,1.9,0.2,2.7,0.6C14.6,43.5,15.3,44.1,15.8,44.8z"/>
					<path class="st1" d="M22.3,42.8l5,10.8h-1.1l-1.7-3.5h-4.6l-1.7,3.5H17l5.1-10.8H22.3z M22.2,45.1L20.4,49H24L22.2,45.1z"/>
					<path class="st1" d="M28.6,53.6l1.5-10.8h0.2l4.4,8.8l4.3-8.8h0.2l1.6,10.8h-1l-1.1-7.7l-3.8,7.7h-0.3l-3.8-7.8l-1.1,7.8H28.6z
						"/>
					<path class="st1" d="M42.8,42.8h1.1v4.5h5.5v-4.5h1.1v10.8h-1.1v-5.2h-5.5v5.2h-1.1V42.8z"/>
					<path class="st1" d="M52,51.5l0.9-0.5c0.6,1.2,1.4,1.8,2.2,1.8c0.3,0,0.7-0.1,1-0.2c0.6-0.3,1-0.9,1-1.6c0-0.4-0.1-0.8-0.4-1.1
						c-0.5-0.7-1.2-1.2-1.8-1.7c-0.6-0.4-1.2-0.9-1.7-1.5c-0.4-0.5-0.6-1.1-0.6-1.6c0-0.4,0.1-0.9,0.3-1.3c0.2-0.4,0.6-0.7,1-0.9
						s0.9-0.3,1.3-0.3c0.5,0,1,0.1,1.4,0.4c0.6,0.4,1,0.8,1.4,1.4l-0.9,0.7c-0.3-0.4-0.6-0.8-1-1.1c-0.3-0.2-0.6-0.3-0.9-0.2
						c-0.4,0-0.8,0.1-1.1,0.4c-0.3,0.3-0.4,0.6-0.4,1c0,0.2,0.1,0.5,0.2,0.7c0.1,0.3,0.3,0.5,0.5,0.7c0.1,0.1,0.6,0.5,1.4,1.1
						c0.7,0.5,1.4,1.1,1.9,1.8c0.3,0.5,0.5,1,0.5,1.6c0,0.8-0.3,1.5-0.9,2c-0.6,0.6-1.4,0.9-2.2,0.9c-0.6,0-1.3-0.2-1.8-0.5
						C52.9,52.8,52.3,52.2,52,51.5z"/>
				</g>
			</g>
		</g>
	</g>
</g>
</svg>
