<svg id="Layer_1" data-name="Layer 1" xmlns="http://www.w3.org/2000/svg" viewBox="0 0 124.39 31.62"><defs><style>.cls-1{isolation:isolate;}.cls-2{fill:#023047;}</style></defs><g id="Group_3550" data-name="Group 3550"><g id="Group_3540" data-name="Group 3540"><g id="Group_3543" data-name="Group 3543"><g id="LiverpooL_" data-name="LiverpooL "><g class="cls-1"><g class="cls-1"><path class="cls-2" d="M13.68,10.46V13.4H6V1.59H9.16v8.87Z" transform="translate(-4.99 -1.25)"/><path class="cls-2" d="M15,1.59h3.14V13.4H15Z" transform="translate(-4.99 -1.25)"/><path class="cls-2" d="M31.61,1.59,26.17,13.52H24.75L19.33,1.59h3.39L25.44,8l2.73-6.4Z" transform="translate(-4.99 -1.25)"/><path class="cls-2" d="M35.89,4.51V6.16h3.75V8.77H35.89v1.69h4.55V13.4H32.79V1.59h7.65V4.51Z" transform="translate(-4.99 -1.25)"/><path class="cls-2" d="M48.49,13.4,45.33,8.27V13.4H42.2V1.59h4.48C49.22,1.59,51,3.31,51,5.43a3.57,3.57,0,0,1-2,3.23l3.16,4.74ZM45.32,6.78H46.6a1.19,1.19,0,1,0,0-2.38H45.32Z" transform="translate(-4.99 -1.25)"/><path class="cls-2" d="M53.29,1.59h4.46a4.31,4.31,0,0,1,4.46,4.14,4.35,4.35,0,0,1-4.46,4.19H56.42V13.4H53.29Zm5.89,4.16a1.31,1.31,0,0,0-1.43-1.26H56.42V7h1.33A1.32,1.32,0,0,0,59.18,5.75Z" transform="translate(-4.99 -1.25)"/><path class="cls-2" d="M63,7.51A6.49,6.49,0,1,1,69.5,13.7,6.24,6.24,0,0,1,63,7.51Zm9.79,0a3.31,3.31,0,1,0-3.31,3.21A3.22,3.22,0,0,0,72.82,7.49Z" transform="translate(-4.99 -1.25)"/><path class="cls-2" d="M77,7.51a6.49,6.49,0,1,1,6.47,6.19A6.24,6.24,0,0,1,77,7.51Zm9.79,0A3.31,3.31,0,1,0,83.5,10.7,3.22,3.22,0,0,0,86.81,7.49Z" transform="translate(-4.99 -1.25)"/><path class="cls-2" d="M99.17,10.46V13.4H91.52V1.59h3.14v8.87Z" transform="translate(-4.99 -1.25)"/><path class="cls-2" d="M115.7,13.55a7.31,7.31,0,0,1-3.25-1,5.15,5.15,0,0,1-3.39,1.15c-2.92,0-4.49-1.92-4.49-3.78a3.89,3.89,0,0,1,1.81-3.17,4.67,4.67,0,0,1-.62-2.11,3.6,3.6,0,0,1,3.78-3.35,3.5,3.5,0,0,1,3.59,2.87l-2.7.69a1.09,1.09,0,0,0-1-1.07.92.92,0,0,0-.9,1c0,1.12,1.36,2.68,3,4a6.7,6.7,0,0,0,.22-1.5l2.89,0a9,9,0,0,1-.59,3.14,4.73,4.73,0,0,0,1.73.53ZM110,10.82a17.73,17.73,0,0,1-2.2-2.12,1.39,1.39,0,0,0-.54,1.07c0,.76.63,1.29,1.66,1.29A2.32,2.32,0,0,0,110,10.82Z" transform="translate(-4.99 -1.25)"/></g></g></g></g><g id="Group_3551" data-name="Group 3551"><g id="_SEFTON_" data-name=" SEFTON "><g class="cls-1"><g class="cls-1"><path class="cls-2" d="M5,29.4l1.89-1.86a2.91,2.91,0,0,0,2.4,1.16c.67,0,1.32-.24,1.32-.72s-1.21-1.14-2.37-1.66c-1.49-.64-2.77-1.62-2.77-3.4,0-2.05,1.94-3.5,4.18-3.5a3.79,3.79,0,0,1,3.67,2L11.5,23.18a2.21,2.21,0,0,0-1.82-.9c-.65,0-1.11.33-1.11.73s.83.72,2.11,1.26c1.84.77,3.07,1.9,3.07,3.64,0,2.25-2.1,3.65-4.46,3.65C7.35,31.56,5.58,30.7,5,29.4Z" transform="translate(-4.99 -1.25)"/><path class="cls-2" d="M18.28,22.51v1.65H22v2.61H18.28v1.69h4.56V31.4H15.18V19.59h7.66v2.92Z" transform="translate(-4.99 -1.25)"/><path class="cls-2" d="M27.68,22.51v1.91h3.75V27H27.68v4.37h-3.1V19.56h7.65v3Z" transform="translate(-4.99 -1.25)"/></g><g class="cls-1"><path class="cls-2" d="M41.65,22.52H38.82V31.4H35.68V22.52H32.85V19.59h8.8Z" transform="translate(-4.99 -1.25)"/></g><g class="cls-1"><path class="cls-2" d="M41.88,25.51a6.49,6.49,0,0,1,13,0,6.23,6.23,0,0,1-6.49,6.19A6.22,6.22,0,0,1,41.88,25.51Zm9.8,0a3.32,3.32,0,1,0-3.32,3.21A3.22,3.22,0,0,0,51.68,25.49Z" transform="translate(-4.99 -1.25)"/><path class="cls-2" d="M66.59,19.58V31.52h-1l-6.07-5.88v5.77H56.38V19.48h1l6.05,5.86V19.58Z" transform="translate(-4.99 -1.25)"/></g></g></g></g></g><g id="_CAMHS" data-name=" CAMHS"><g class="cls-1"><path class="cls-2" d="M75.12,20.35,70.65,32.86H69.53L74,20.35Z" transform="translate(-4.99 -1.25)"/><path class="cls-2" d="M86.9,22.63l-.85.65a4.59,4.59,0,0,0-1.69-1.39,4.85,4.85,0,0,0-2.16-.47,4.71,4.71,0,0,0-2.39.62,4.38,4.38,0,0,0-1.7,1.66,4.62,4.62,0,0,0-.61,2.35,4.35,4.35,0,0,0,1.36,3.28,4.66,4.66,0,0,0,3.4,1.32,4.79,4.79,0,0,0,3.79-1.77l.85.64a5.39,5.39,0,0,1-2,1.59,6.35,6.35,0,0,1-2.69.56A5.54,5.54,0,0,1,76.37,26,5.32,5.32,0,0,1,78,22a5.69,5.69,0,0,1,4.15-1.62,6.08,6.08,0,0,1,2.73.6A5.32,5.32,0,0,1,86.9,22.63Z" transform="translate(-4.99 -1.25)"/><path class="cls-2" d="M93.46,20.63l5,10.77H97.32l-1.69-3.55H91L89.31,31.4h-1.2L93.2,20.63Zm-.13,2.28-1.85,3.9h3.68Z" transform="translate(-4.99 -1.25)"/><path class="cls-2" d="M99.67,31.4l1.54-10.77h.17l4.38,8.84,4.34-8.84h.17l1.55,10.77h-1l-1.06-7.71-3.82,7.71h-.27l-3.85-7.76-1.06,7.76Z" transform="translate(-4.99 -1.25)"/><path class="cls-2" d="M113.93,20.63H115v4.51h5.49V20.63h1.08V31.4h-1.08V26.2H115v5.2h-1.07Z" transform="translate(-4.99 -1.25)"/><path class="cls-2" d="M123.07,29.39l.92-.55c.64,1.19,1.39,1.78,2.23,1.78a2.11,2.11,0,0,0,1-.25,1.78,1.78,0,0,0,1-1.58,1.87,1.87,0,0,0-.37-1.06A8.86,8.86,0,0,0,126,26a9.84,9.84,0,0,1-1.67-1.47,2.71,2.71,0,0,1-.57-1.65,2.54,2.54,0,0,1,.33-1.28,2.38,2.38,0,0,1,1-.91,2.77,2.77,0,0,1,1.33-.34,2.82,2.82,0,0,1,1.42.38,4.8,4.8,0,0,1,1.41,1.39l-.88.67a4.4,4.4,0,0,0-1-1.07,1.75,1.75,0,0,0-.93-.25,1.5,1.5,0,0,0-1.07.39,1.33,1.33,0,0,0-.41,1,1.64,1.64,0,0,0,.15.68,2.35,2.35,0,0,0,.53.72c.14.13.61.49,1.39,1.07a7.74,7.74,0,0,1,1.92,1.84,3,3,0,0,1,.52,1.62,2.78,2.78,0,0,1-.89,2,3,3,0,0,1-2.16.86,3.15,3.15,0,0,1-1.78-.52A4.77,4.77,0,0,1,123.07,29.39Z" transform="translate(-4.99 -1.25)"/></g></g></g></svg>