<svg xmlns="http://www.w3.org/2000/svg" width="124.47" height="32.143" viewBox="0 0 124.47 32.143">
  <g id="Group_3550" data-name="Group 3550" transform="translate(0 0.003)">
    <g id="Group_3540" data-name="Group 3540">
      <g id="Group_3543" data-name="Group 3543">
        <g id="LiverpooL_" data-name="LiverpooL ">
          <path id="Path_14530" data-name="Path 14530" d="M9.56,10.42v2.94H1.88V1.55H5v8.87Z" transform="translate(-0.88 -0.68)" fill="#fff"/>
          <path id="Path_14531" data-name="Path 14531" d="M10.88,1.55H14V13.36H10.88Z" transform="translate(-0.88 -0.68)" fill="#fff"/>
          <path id="Path_14532" data-name="Path 14532" d="M27.49,1.55,22.05,13.48H20.63L15.21,1.55H18.6L21.32,8l2.73-6.4Z" transform="translate(-0.88 -0.68)" fill="#fff"/>
          <path id="Path_14533" data-name="Path 14533" d="M31.77,4.47V6.12h3.75V8.73H31.77v1.69h4.55v2.94H28.67V1.55h7.65V4.47Z" transform="translate(-0.88 -0.68)" fill="#fff"/>
          <path id="Path_14534" data-name="Path 14534" d="M44.37,13.36,41.21,8.23v5.13H38.08V1.55h4.48a4,4,0,0,1,4.32,3.84,3.56,3.56,0,0,1-2,3.23L48,13.36ZM41.2,6.74h1.28a1.19,1.19,0,0,0,0-2.38H41.2Z" transform="translate(-0.88 -0.68)" fill="#fff"/>
          <path id="Path_14535" data-name="Path 14535" d="M49.17,1.55h4.46a4.3,4.3,0,0,1,4.46,4.14,4.35,4.35,0,0,1-4.46,4.19H52.3v3.48H49.17Zm5.89,4.16a1.31,1.31,0,0,0-1.35-1.27H52.3V7h1.33a1.32,1.32,0,0,0,1.43-1.21Z" transform="translate(-0.88 -0.68)" fill="#fff"/>
          <path id="Path_14536" data-name="Path 14536" d="M58.88,7.47a6.49,6.49,0,1,1,6.79,6.18h-.29a6.24,6.24,0,0,1-6.49-6C58.89,7.61,58.88,7.54,58.88,7.47Zm9.79,0a3.31,3.31,0,1,0-3.4,3.2h.09a3.23,3.23,0,0,0,3.34-3.1V7.45Z" transform="translate(-0.88 -0.68)" fill="#fff"/>
          <path id="Path_14537" data-name="Path 14537" d="M72.88,7.47a6.49,6.49,0,1,1,6.79,6.18h-.32a6.24,6.24,0,0,1-6.46-6C72.89,7.59,72.88,7.53,72.88,7.47Zm9.79,0a3.31,3.31,0,1,0-3.42,3.18h.13a3.23,3.23,0,0,0,3.31-3.13V7.45Z" transform="translate(-0.88 -0.68)" fill="#fff"/>
          <path id="Path_14538" data-name="Path 14538" d="M95.05,10.42v2.94H87.4V1.55h3.14v8.87Z" transform="translate(-0.88 -0.68)" fill="#fff"/>
          <path id="Path_14539" data-name="Path 14539" d="M111.58,13.51a7.48,7.48,0,0,1-3.25-1,5.2,5.2,0,0,1-3.39,1.15c-2.92,0-4.49-1.92-4.49-3.78a3.89,3.89,0,0,1,1.81-3.17,4.78,4.78,0,0,1-.62-2.11,3.6,3.6,0,0,1,3.78-3.35A3.49,3.49,0,0,1,109,4.12l-2.7.69a1.07,1.07,0,0,0-1-1.07.91.91,0,0,0-.9.93v.07c0,1.12,1.36,2.68,3,4a6.4,6.4,0,0,0,.22-1.5h2.89a8.7,8.7,0,0,1-.59,3.14,5,5,0,0,0,1.73.53Zm-5.7-2.73a19.179,19.179,0,0,1-2.2-2.12,1.39,1.39,0,0,0-.54,1.07c0,.76.63,1.29,1.66,1.29a2.47,2.47,0,0,0,1.08-.24Z" transform="translate(-0.88 -0.68)" fill="#fff"/>
        </g>
      </g>
      <g id="Group_3551" data-name="Group 3551">
        <g id="_SEFTON_" data-name=" SEFTON ">
          <path id="Path_14540" data-name="Path 14540" d="M.88,29.36,2.77,27.5a2.93,2.93,0,0,0,2.4,1.16c.67,0,1.32-.24,1.32-.72S5.28,26.8,4.12,26.28c-1.49-.64-2.77-1.62-2.77-3.4,0-2.05,1.94-3.5,4.18-3.5a3.77,3.77,0,0,1,3.67,2L7.38,23.14a2.17,2.17,0,0,0-1.82-.9c-.65,0-1.11.33-1.11.73s.83.72,2.11,1.26c1.84.77,3.07,1.9,3.07,3.64,0,2.25-2.1,3.65-4.46,3.65C3.23,31.52,1.46,30.66.88,29.36Z" transform="translate(-0.88 -0.68)" fill="#fff"/>
          <path id="Path_14541" data-name="Path 14541" d="M14.16,22.47v1.65h3.72v2.61H14.16v1.69h4.56v2.94H11.06V19.55h7.66v2.92Z" transform="translate(-0.88 -0.68)" fill="#fff"/>
          <path id="Path_14542" data-name="Path 14542" d="M23.56,22.47v1.91h3.75V27H23.56v4.37h-3.1V19.52h7.65v3Z" transform="translate(-0.88 -0.68)" fill="#fff"/>
          <path id="Path_14543" data-name="Path 14543" d="M37.53,22.48H34.7v8.88H31.56V22.48H28.73V19.55h8.8Z" transform="translate(-0.88 -0.68)" fill="#fff"/>
          <path id="Path_14544" data-name="Path 14544" d="M37.76,25.47a6.5,6.5,0,0,1,13,0,6.22,6.22,0,0,1-6.26,6.19h-.23a6.22,6.22,0,0,1-6.5-5.93C37.77,25.64,37.76,25.55,37.76,25.47Zm9.8,0a3.32,3.32,0,1,0-3.42,3.2h.1a3.23,3.23,0,0,0,3.32-3.12v-.09Z" transform="translate(-0.88 -0.68)" fill="#fff"/>
          <path id="Path_14545" data-name="Path 14545" d="M62.47,19.54V31.48h-1L55.4,25.6v5.77H52.26V19.44h1l6.05,5.86V19.54Z" transform="translate(-0.88 -0.68)" fill="#fff"/>
        </g>
      </g>
    </g>
    <g id="_CAMHS" data-name=" CAMHS">
      <path id="Path_14546" data-name="Path 14546" d="M71,20.31,66.53,32.82H65.41l4.47-12.51Z" transform="translate(-0.88 -0.68)" fill="#fff"/>
      <path id="Path_14547" data-name="Path 14547" d="M82.78,22.59l-.85.65a4.47,4.47,0,0,0-1.69-1.39,4.6,4.6,0,0,0-2.16-.47,4.69,4.69,0,0,0-2.39.62A4.37,4.37,0,0,0,74,23.66,4.58,4.58,0,0,0,73.38,26a4.37,4.37,0,0,0,1.36,3.28,4.69,4.69,0,0,0,3.4,1.32,4.78,4.78,0,0,0,3.79-1.77l.85.64a5.46,5.46,0,0,1-2,1.59,6.36,6.36,0,0,1-2.69.56,5.55,5.55,0,0,1-5.83-5.23v-.44a5.35,5.35,0,0,1,1.63-4A5.66,5.66,0,0,1,78,20.34a6,6,0,0,1,2.73.6A5.23,5.23,0,0,1,82.78,22.59Z" transform="translate(-0.88 -0.68)" fill="#fff"/>
      <path id="Path_14548" data-name="Path 14548" d="M89.34,20.59l5,10.77H93.2l-1.69-3.55H86.88l-1.69,3.55H84l5.09-10.77Zm-.13,2.28-1.85,3.9H91Z" transform="translate(-0.88 -0.68)" fill="#fff"/>
      <path id="Path_14549" data-name="Path 14549" d="M95.55,31.36l1.54-10.77h.17l4.38,8.84L106,20.59h.17l1.55,10.77h-1l-1.06-7.71-3.82,7.71h-.27L97.7,23.6l-1.06,7.76Z" transform="translate(-0.88 -0.68)" fill="#fff"/>
      <path id="Path_14550" data-name="Path 14550" d="M109.81,20.59h1.07V25.1h5.49V20.59h1.08V31.36h-1.08v-5.2h-5.49v5.2h-1.07Z" transform="translate(-0.88 -0.68)" fill="#fff"/>
      <path id="Path_14551" data-name="Path 14551" d="M119,29.35l.92-.55c.64,1.19,1.39,1.78,2.23,1.78a2.15,2.15,0,0,0,1-.25,1.77,1.77,0,0,0,1-1.58,1.81,1.81,0,0,0-.37-1.06,8.44,8.44,0,0,0-1.9-1.69,10.17,10.17,0,0,1-1.67-1.47,2.84,2.84,0,0,1-.57-1.65,2.6,2.6,0,0,1,.33-1.28,2.37,2.37,0,0,1,1-.91,2.81,2.81,0,0,1,2.75,0,4.56,4.56,0,0,1,1.41,1.39l-.88.67a4.25,4.25,0,0,0-1-1.07,1.69,1.69,0,0,0-.93-.25,1.48,1.48,0,0,0-1.07.39,1.34,1.34,0,0,0-.41,1,1.81,1.81,0,0,0,.15.68,2.49,2.49,0,0,0,.53.72c.14.13.61.49,1.39,1.07a7.47,7.47,0,0,1,1.92,1.84,2.92,2.92,0,0,1,.52,1.62,2.77,2.77,0,0,1-.89,2,3,3,0,0,1-2.16.86,3.3,3.3,0,0,1-1.78-.52A4.77,4.77,0,0,1,119,29.35Z" transform="translate(-0.88 -0.68)" fill="#fff"/>
    </g>
  </g>
</svg>
