<svg id="Icon" xmlns="http://www.w3.org/2000/svg" width="80.561" height="80.561" viewBox="0 0 80.561 80.561">
  <path id="Path_13654" data-name="Path 13654" d="M106.66,165a40.248,40.248,0,0,1-18.873,34.125c-3.1,1.951-12.254,2.925-21.407,2.925s-18.305-.974-21.407-2.923A40.282,40.282,0,1,1,106.66,165Z" transform="translate(-26.1 -124.72)" fill="#48588b"/>
  <path id="Path_13655" data-name="Path 13655" d="M260.02,165a40.248,40.248,0,0,1-18.873,34.125c-3.1,1.951-12.254,2.925-21.407,2.925V124.72A40.28,40.28,0,0,1,260.02,165Z" transform="translate(-179.46 -124.72)" fill="#3c4a83"/>
  <circle id="Ellipse_135" data-name="Ellipse 135" cx="11.63" cy="11.63" r="11.63" transform="translate(26.285 43.565) rotate(-76.7)" fill="#f9c4b9"/>
  <path id="Path_13656" data-name="Path 13656" d="M231.37,248.2a11.63,11.63,0,0,1-11.63,11.63V236.57A11.631,11.631,0,0,1,231.37,248.2Z" transform="translate(-179.46 -213.303)" fill="#ffb19e"/>
  <path id="Path_13657" data-name="Path 13657" d="M159.644,365.169v11.1a40.309,40.309,0,0,1-42.814,0v-11.1a16.777,16.777,0,0,1,16.777-16.779h9.261A16.777,16.777,0,0,1,159.644,365.169Z" transform="translate(-97.957 -301.863)" fill="#60e2f4"/>
  <path id="Path_13658" data-name="Path 13658" d="M241.147,365.169v11.1a40.071,40.071,0,0,1-21.407,6.155V348.39h4.63a16.777,16.777,0,0,1,16.777,16.779Z" transform="translate(-179.46 -301.863)" fill="#29c5ec"/>
</svg>
