<svg id="mental-health" xmlns="http://www.w3.org/2000/svg" width="83.912" height="98.461" viewBox="0 0 83.912 98.461">
  <g id="Group_3423" data-name="Group 3423" transform="translate(0 13.485)">
    <path id="Path_14272" data-name="Path 14272" d="M105.332,155.03H74.407a2.887,2.887,0,0,1-2.887-2.887v-5.628h-9.4a16.348,16.348,0,0,1-16.329-16.329v-5.959H40.679a2.887,2.887,0,0,1-2.548-4.245l7.657-14.373v-4.471A31.313,31.313,0,0,1,74.014,70.067a2.888,2.888,0,0,1,3.164,2.874v8.547a2.887,2.887,0,0,1-2.6,2.873,3.044,3.044,0,0,0,0,6.058,2.887,2.887,0,0,1,2.6,2.873v4.952h3.6a8.8,8.8,0,0,1,13.52,0h11.034a2.887,2.887,0,0,1,2.887,2.887v51.01A2.887,2.887,0,0,1,105.332,155.03Z" transform="translate(-37.791 -70.054)" fill="#ffe4c1"/>
  </g>
  <g id="Group_3424" data-name="Group 3424" transform="translate(44.645)">
    <path id="Path_14273" data-name="Path 14273" d="M307.541,31.209H294.988a1.444,1.444,0,0,1-1.275-.766,4.48,4.48,0,0,0-7.933,0,1.444,1.444,0,0,1-1.275.766H276.5a1.444,1.444,0,0,1-1.444-1.444v-6.65a7.378,7.378,0,0,1,0-14.181V1.575A1.444,1.444,0,0,1,276.362.138C277.315.046,278.274,0,279.213,0a29.855,29.855,0,0,1,29.772,29.765,1.444,1.444,0,0,1-1.444,1.444Z" transform="translate(-269.718 0)" fill="#fdd1a3"/>
  </g>
  <path id="Path_14274" data-name="Path 14274" d="M246.822,98.244H235.788a8.8,8.8,0,0,0-13.52,0h-3.6V93.292a2.887,2.887,0,0,0-2.6-2.873,3.044,3.044,0,0,1,0-6.058,2.887,2.887,0,0,0,2.6-2.873V72.941a2.888,2.888,0,0,0-3.164-2.874c-.839.081-1.67.2-2.494.345v81.731a2.887,2.887,0,0,0,2.887,2.887h30.924a2.888,2.888,0,0,0,2.887-2.887V101.131a2.887,2.887,0,0,0-2.887-2.887Z" transform="translate(-179.281 -56.569)" fill="#fdd1a3"/>
</svg>
