<?xml version="1.0" encoding="utf-8"?>
<!-- Generator: Adobe Illustrator 25.2.1, SVG Export Plug-In . SVG Version: 6.00 Build 0)  -->
<svg version="1.1" id="Layer_1" xmlns="http://www.w3.org/2000/svg" xmlns:xlink="http://www.w3.org/1999/xlink" x="0px" y="0px"
	 viewBox="0 0 60 60" style="enable-background:new 0 0 60 60;" xml:space="preserve">
<style type="text/css">
	.st0{fill:#DFE0DF;}
	.st1{fill:#878787;}
</style>
<rect class="st0" width="60" height="60"/>
<path class="st1" d="M28.8,38.3c0-0.2,0-0.3,0.1-0.5c0.1-0.1,0.1-0.3,0.3-0.4c0.1-0.1,0.2-0.2,0.4-0.3c0.1-0.1,0.3-0.1,0.5-0.1
	c0.2,0,0.3,0,0.5,0.1c0.1,0.1,0.3,0.2,0.4,0.3c0.1,0.1,0.2,0.2,0.3,0.4c0.1,0.1,0.1,0.3,0.1,0.5c0,0.2,0,0.3-0.1,0.5
	c-0.1,0.1-0.1,0.3-0.3,0.4c-0.1,0.1-0.2,0.2-0.4,0.3c-0.1,0.1-0.3,0.1-0.5,0.1c-0.2,0-0.3,0-0.5-0.1c-0.1-0.1-0.3-0.1-0.4-0.3
	c-0.1-0.1-0.2-0.2-0.3-0.4C28.8,38.6,28.8,38.4,28.8,38.3z M30.9,26V32c0,0.3,0,0.6,0,0.9c0,0.3,0,0.6,0,0.9c0,0.3,0,0.6-0.1,0.9
	c0,0.3-0.1,0.6-0.1,1h-1.2c0-0.4-0.1-0.7-0.1-1c0-0.3-0.1-0.6-0.1-0.9c0-0.3,0-0.6,0-0.9c0-0.3,0-0.6,0-0.9V26H30.9z M30,17.3
	c-0.5,0-0.9,0.2-1.2,0.7L14.7,40.6c-0.3,0.4-0.3,1,0,1.4c0.2,0.4,0.7,0.7,1.2,0.7h28.2c0.5,0,1-0.3,1.2-0.7c0.2-0.4,0.2-1,0-1.4
	L31.2,17.9C30.9,17.5,30.5,17.3,30,17.3L30,17.3z"/>
</svg>
