<svg id="Layer_1" data-name="Layer 1" xmlns="http://www.w3.org/2000/svg" viewBox="0 0 167 167"><defs><style>.cls-1{fill:#219ebc;}.cls-2{fill:#8ecae6;}.cls-3{fill:#fff;}.cls-4,.cls-6{fill:none;}.cls-4{stroke:#fff;}.cls-5{fill:#342326;}.cls-6{stroke:#342326;}</style></defs><g id="Group_3147" data-name="Group 3147"><g id="Mask_Group_28" data-name="Mask Group 28"><g id="Group_2956" data-name="Group 2956"><path class="cls-1" d="M167,79.1v75.7A12.18,12.18,0,0,1,154.8,167H68.6c-1.1-4.7-.9-10.4.9-17C76.2,124.2,108.4,73.8,167,79.1Z"/></g></g><path id="Path_13928" data-name="Path 13928" class="cls-2" d="M100.32,143.05c-.2.2.4,1.1,1.1,1.9a13,13,0,0,0,5.4,3.5,24.44,24.44,0,0,0,4.6,1.4,76,76,0,0,0,8.3,1.6c.4,0,.1,0,2.7.2l6.9.6a66.1,66.1,0,0,0,8.9-.1,28.4,28.4,0,0,0,6.5-1,17.85,17.85,0,0,0,6.2-3c1.6-1.2,3-2.8,2.8-3.1s-.7.2-3.2,1.1c-.8.3-1.6.5-2.3.8s-2.9,1-3.2,1.1a43.83,43.83,0,0,1-8,1.7,42.59,42.59,0,0,1-8,.2,105.8,105.8,0,0,1-11.3-1.5s-9.9-1.6-13.1-3.4a17.38,17.38,0,0,1-1.9-1c-1.5-.8-2.2-1.2-2.4-1Z"/><path id="Path_13929" data-name="Path 13929" class="cls-3" d="M118.42,151.75c-.1.2,0,.3.2,1.2.1,1.2,0,1.4.1,2.3a2.69,2.69,0,0,0,.5,1.5c.4.5.8.2,2.2.4s1.3.5,1.9.3a2.94,2.94,0,0,0,1.6-1.5c.5-.9,1-2.6.4-3.7-.3-.4-.6-.5-2.9-.8-3-.3-3.8-.2-4,.3Z"/><path id="Path_13930" data-name="Path 13930" class="cls-3" d="M125.52,152.65c-.1.1,0,.1,0,1a14.72,14.72,0,0,0,0,2.1,2.84,2.84,0,0,0,.4,1.3,2.27,2.27,0,0,0,1.6.6c.8.1.9-.1,2.1,0s1.3.2,1.6,0,.5-.8.7-2c.1-.5.1-.6.3-1.9s.2-1.3.1-1.5c-.3-.6-1.3-.2-3.6-.1-1.9.1-2.9-.1-3.2.5Z"/><g id="Group_3095" data-name="Group 3095"><g id="Ellipse_190" data-name="Ellipse 190"><circle class="cls-3" cx="142.52" cy="124.35" r="7.2"/><circle class="cls-4" cx="142.52" cy="124.35" r="6.6"/></g><g id="Ellipse_191" data-name="Ellipse 191"><circle class="cls-5" cx="141.32" cy="124.25" r="2.4"/><circle class="cls-6" cx="141.32" cy="124.25" r="1.8"/></g></g><g id="Group_3094" data-name="Group 3094"><g id="Ellipse_188" data-name="Ellipse 188"><circle class="cls-3" cx="116.12" cy="122.75" r="7.2"/><circle class="cls-4" cx="116.12" cy="122.75" r="6.6"/></g><g id="Ellipse_216" data-name="Ellipse 216"><circle class="cls-5" cx="117.32" cy="122.85" r="2.4"/><circle class="cls-6" cx="117.32" cy="122.85" r="1.8"/></g></g></g></svg>