<svg id="Layer_1" data-name="Layer 1" xmlns="http://www.w3.org/2000/svg" xmlns:xlink="http://www.w3.org/1999/xlink" viewBox="0 0 167 167"><defs><style>.cls-1,.cls-4,.cls-7,.cls-8{fill:none;}.cls-2{fill:#8ecae6;}.cls-3{fill:#342326;}.cls-4{stroke:#342326;}.cls-5{clip-path:url(#clip-path);}.cls-6{fill:#161615;}.cls-7,.cls-8{stroke:#161615;stroke-miterlimit:10;}.cls-7{stroke-width:0.75px;}.cls-8{stroke-width:0.5px;}.cls-9{fill:#005fab;}.cls-10{fill:#fff;}</style><clipPath id="clip-path"><rect class="cls-1" x="99.55" y="111.51" width="51.7" height="41.3"/></clipPath></defs><g id="Group_3514" data-name="Group 3514"><g id="Mask_Group_27" data-name="Mask Group 27"><g id="Group_2956" data-name="Group 2956"><path class="cls-2" d="M167,106.3v48.5A12.18,12.18,0,0,1,154.8,167H77c-2.3-5.6-2.6-12.9-.6-22.2,5.4-25.2-7.9-29.7,20.6-53.3C122.2,70.5,156.1,97.6,167,106.3Z"/></g></g><g id="Ellipse_268" data-name="Ellipse 268"><circle class="cls-3" cx="128.75" cy="120.02" r="1.5"/><circle class="cls-4" cx="128.75" cy="120.02" r="1"/></g><g id="Ellipse_269" data-name="Ellipse 269"><circle class="cls-3" cx="107.75" cy="122.02" r="1.5"/><circle class="cls-4" cx="107.75" cy="122.02" r="1"/></g></g><g class="cls-5"><g id="Group_3174" data-name="Group 3174"><path id="Path_14077" data-name="Path 14077" class="cls-6" d="M116.55,139.81a5.9,5.9,0,0,0,.9,7.1,6.52,6.52,0,0,0,6.2,1.8c4.1-1.2,5.8-7.6,3.1-10.4-2.4-2.3-8.1-2-10.2,1.5"/><path id="Path_14078" data-name="Path 14078" class="cls-7" d="M116.55,139.81a5.9,5.9,0,0,0,.9,7.1,6.52,6.52,0,0,0,6.2,1.8c4.1-1.2,5.8-7.6,3.1-10.4C124.35,136,118.65,136.31,116.55,139.81Z"/><path id="Path_14079" data-name="Path 14079" class="cls-8" d="M114.35,149.91a12.11,12.11,0,0,0,8.8,2.4,11.36,11.36,0,0,0,9.1-7.1"/><path id="Path_14080" data-name="Path 14080" class="cls-9" d="M149.25,127.11a6.1,6.1,0,0,1,1.2,1.6c.6,1.1,1.1,2.1.5,3.1a3.71,3.71,0,0,1-2.6,1.8,2.7,2.7,0,0,1-2.7-1.4c-.6-.9-.4-1.9-.2-3.3.2-1.1.5-3.2,1.5-3.5.6-.1,1.3.6,2.3,1.7"/><path id="Path_14081" data-name="Path 14081" class="cls-9" d="M147,113.71a6.52,6.52,0,0,1,1.6,2.1c.8,1.4,1.4,2.7.6,4.2a5.44,5.44,0,0,1-3.7,2.5,3.87,3.87,0,0,1-3.8-1.8c-.8-1.2-.6-2.5-.2-4.4.3-1.5.8-4.3,2.2-4.7,1-.3,1.9.6,3.3,2.1"/><path id="Path_14082" data-name="Path 14082" class="cls-10" d="M114.35,122.11a7.31,7.31,0,1,1-7.3-7.6A7.47,7.47,0,0,1,114.35,122.11Z"/><path id="Path_14084" data-name="Path 14084" class="cls-10" d="M136.75,119.81a7.31,7.31,0,1,1-7.3-7.6A7.47,7.47,0,0,1,136.75,119.81Z"/></g></g><g id="Ellipse_268-2" data-name="Ellipse 268"><circle class="cls-3" cx="129.25" cy="121.81" r="1.5"/><circle class="cls-4" cx="129.25" cy="121.81" r="1"/></g><g id="Ellipse_269-2" data-name="Ellipse 269"><circle class="cls-3" cx="108.25" cy="123.81" r="1.5"/><circle class="cls-4" cx="108.25" cy="123.81" r="1"/></g></svg>