<svg xmlns="http://www.w3.org/2000/svg" width="129.091" height="108.92" viewBox="0 0 129.091 108.92">
  <g id="man" transform="translate(0 -0.001)">
    <path id="Path_14278" data-name="Path 14278" d="M341.187,188.452c0,3.354-2.017,6.072-4.5,6.072s-3.933-3.122-3.933-6.476,1.445-5.669,3.933-5.669S341.187,185.1,341.187,188.452Zm0,0" transform="translate(-248.854 -136.395)" fill="#e8916f"/>
    <path id="Path_14279" data-name="Path 14279" d="M478.539,188.452c0,3.354,2.017,6.072,4.5,6.072s3.933-3.122,3.933-6.476-1.445-5.669-3.933-5.669S478.539,185.1,478.539,188.452Zm0,0" transform="translate(-357.885 -136.395)" fill="#d98868"/>
    <path id="Path_14280" data-name="Path 14280" d="M404.156,281.125h9.186v14.72h-9.186Zm0,0" transform="translate(-302.256 -210.244)" fill="#d98868"/>
    <path id="Path_14281" data-name="Path 14281" d="M356.793,145.656V133.241a15.592,15.592,0,0,1,15.593-15.593h1.885a15.592,15.592,0,0,1,15.592,15.593v12.414a16.522,16.522,0,0,1-16.521,16.522h-.027A16.522,16.522,0,0,1,356.793,145.656Zm0,0" transform="translate(-266.835 -87.985)" fill="#ebad88"/>
    <path id="Path_14282" data-name="Path 14282" d="M415.132,117.648H413.27a15.721,15.721,0,0,0-1.825.11,15.62,15.62,0,0,1,13.779,15.519v12.34a16.556,16.556,0,0,1-13.779,16.33,16.539,16.539,0,0,0,19.29-16.33V133.277A15.616,15.616,0,0,0,415.132,117.648Zm0,0" transform="translate(-307.708 -87.985)" fill="#e8916f"/>
    <path id="Path_14283" data-name="Path 14283" d="M380.111,334.076v2.1a1.009,1.009,0,0,1-1.009,1.009H338.13a1.008,1.008,0,0,1-1.009-1.009v-2.1c0-9.042,6.358-16.373,14.2-16.373h14.586C373.753,317.7,380.111,325.034,380.111,334.076Zm0,0" transform="translate(-252.123 -237.6)" fill="#47d5e6"/>
    <path id="Path_14284" data-name="Path 14284" d="M428.187,317.7h-7.792c7.844,0,14.2,7.331,14.2,16.373v3.109h6.784a1.009,1.009,0,0,0,1.009-1.009v-2.1C442.389,325.034,436.031,317.7,428.187,317.7Zm0,0" transform="translate(-314.4 -237.6)" fill="#22c0d4"/>
    <path id="Path_14285" data-name="Path 14285" d="M395.066,317.7h13.77l-6.884,19.482Zm0,0" transform="translate(-295.458 -237.6)" fill="#dcdfe8"/>
    <path id="Path_14288" data-name="Path 14288" d="M344.736,114.75s1.376.556,2.788-2.1c1.615-3.034,5.871-4.729,10.972-4.544,5.887.213,8.547-1.7,9.9-3.775a.253.253,0,0,1,.452.056c1.726,5.139,4.068,3.875,5.607,8.626a2.363,2.363,0,0,0,3.3,1.735s6.579-3.82,3.189-9.886c.582-12.191-8.962-12.913-8.962-12.913s-4.363-5.549-16.321-2.662c-17.256,4.164-14.192,16.309-14.192,16.309S338.5,111.35,344.736,114.75Zm0,0" transform="translate(-254.848 -66.153)" fill="#ffd659"/>
    <path id="Path_14289" data-name="Path 14289" d="M432.15,104.876c.583-12.19-8.962-12.912-8.962-12.912s-3.785-4.806-13.957-3.141a12.9,12.9,0,0,1,4.717,1.895,14.354,14.354,0,0,0,3.4,1.7c2.759.946,7.427,3.827,7.014,12.462a6.3,6.3,0,0,1,.367,6.044,9.842,9.842,0,0,1,.935,2.107,2.363,2.363,0,0,0,3.3,1.735S435.541,110.941,432.15,104.876Zm0,0" transform="translate(-306.051 -66.165)" fill="#ffbd54"/>
    <path id="Path_14290" data-name="Path 14290" d="M71.41,281.125H80.6v14.72H71.41Zm0,0" transform="translate(-53.405 -210.244)" fill="#d98868"/>
    <path id="Path_14291" data-name="Path 14291" d="M24.047,145.656V133.241a15.592,15.592,0,0,1,15.592-15.593h1.885a15.592,15.592,0,0,1,15.592,15.593v12.414a16.522,16.522,0,0,1-16.521,16.522h-.026A16.522,16.522,0,0,1,24.047,145.656Zm0,0" transform="translate(-17.984 -87.985)" fill="#ebad88"/>
    <path id="Path_14292" data-name="Path 14292" d="M82.382,117.648H80.52a15.721,15.721,0,0,0-1.825.11,15.62,15.62,0,0,1,13.779,15.519v12.34A16.556,16.556,0,0,1,78.7,161.948a16.539,16.539,0,0,0,19.29-16.33V133.277A15.616,15.616,0,0,0,82.382,117.648Zm0,0" transform="translate(-58.854 -87.985)" fill="#e8916f"/>
    <path id="Path_14293" data-name="Path 14293" d="M47.361,334.076v2.1a1.008,1.008,0,0,1-1.009,1.009H5.38a1.009,1.009,0,0,1-1.009-1.009v-2.1c0-9.042,6.358-16.373,14.2-16.373H33.159C41,317.7,47.361,325.034,47.361,334.076Zm0,0" transform="translate(-3.269 -237.6)" fill="#ff2c5c"/>
    <path id="Path_14294" data-name="Path 14294" d="M95.437,317.7H87.645c7.845,0,14.2,7.331,14.2,16.373v3.109h6.784a1.008,1.008,0,0,0,1.009-1.009v-2.1C109.639,325.034,103.281,317.7,95.437,317.7Zm0,0" transform="translate(-65.547 -237.6)" fill="#e62753"/>
    <path id="Path_14295" data-name="Path 14295" d="M62.32,317.7H76.09L69.2,337.185Zm0,0" transform="translate(-46.607 -237.6)" fill="#dcdfe8"/>
    <path id="Path_14298" data-name="Path 14298" d="M25.8,106.952s-9.652,4.34-12.985,9.945c-4.38,7.365-4.5,14.958-6.662,22.2a.506.506,0,0,1-.911.128C3.754,136.907,0,130.364,0,123.562c0-36.372,26.591-31.968,27.779-29.2,5.363-2.246,16.118,2.4,16.118,23.7,0,10.263-1.158,17.327-4.285,21.858a.505.505,0,0,1-.91-.174c-.6-2.707-2.176-10.1-2.926-16.638C34.056,108.1,25.8,106.952,25.8,106.952Zm0,0" transform="translate(0 -69.231)" fill="#ffd659"/>
    <path id="Path_14299" data-name="Path 14299" d="M79.326,94.359c-.479-1.113-5.078-2.492-10.4-1.365.942.229,1.654.816,2.525,2.369a11.264,11.264,0,0,0,5.052,4.765c5.792,2.675,9.444,8.257,11.182,17.933.411,2.284-.06,4.476-.187,6.478.8,6.157,2.191,12.694,2.75,15.206a.505.505,0,0,0,.91.174c3.127-4.53,4.285-11.594,4.285-21.858C95.444,96.754,84.689,92.114,79.326,94.359Zm0,0" transform="translate(-51.548 -69.233)" fill="#ffbd54"/>
    <path id="Path_14300" data-name="Path 14300" d="M141.216,140.933c0,4.726-2.851,8.558-6.367,8.558s-5.56-4.4-5.56-9.126,2.043-7.989,5.56-7.989S141.216,136.206,141.216,140.933Zm0,0" transform="translate(-96.691 -98.998)" fill="#e8916f"/>
    <path id="Path_14301" data-name="Path 14301" d="M335.406,140.933c0,4.726,2.851,8.558,6.367,8.558s5.56-4.4,5.56-9.126-2.043-7.989-5.56-7.989S335.406,136.206,335.406,140.933Zm0,0" transform="translate(-250.84 -98.998)" fill="#d98868"/>
    <path id="Path_14302" data-name="Path 14302" d="M230.246,271.543h12.987V292.29H230.246Zm0,0" transform="translate(-172.194 -203.078)" fill="#d98868"/>
    <path id="Path_14303" data-name="Path 14303" d="M163.285,80.545V63.188a22.043,22.043,0,0,1,22.044-22.044h2.665a22.044,22.044,0,0,1,22.045,22.044V80.545A23.359,23.359,0,0,1,186.68,103.9h-.036A23.359,23.359,0,0,1,163.285,80.545Zm0,0" transform="translate(-122.116 -30.77)" fill="#ebad88"/>
    <path id="Path_14304" data-name="Path 14304" d="M245.759,41.145h-2.632a22.314,22.314,0,0,0-2.58.155,22.04,22.04,0,0,1,19.481,21.872V80.564a23.357,23.357,0,0,1-19.481,23.016,23.628,23.628,0,0,0,3.9.324,23.358,23.358,0,0,0,23.376-23.34V63.171A22.043,22.043,0,0,0,245.759,41.145Zm0,0" transform="translate(-179.898 -30.77)" fill="#e8916f"/>
    <path id="Path_14305" data-name="Path 14305" d="M196.248,346.175v2.87a1.513,1.513,0,0,1-1.513,1.513H136.982a1.513,1.513,0,0,1-1.513-1.513v-2.87c0-12.743,8.989-23.074,20.079-23.074h20.621C187.259,323.1,196.248,333.432,196.248,346.175Zm0,0" transform="translate(-101.313 -241.637)" fill="#685c79"/>
    <path id="Path_14306" data-name="Path 14306" d="M273.781,323.1h-7.792c11.09,0,20.08,10.33,20.08,23.074v4.383h6.279a1.512,1.512,0,0,0,1.513-1.513v-2.87C293.859,333.432,284.87,323.1,273.781,323.1Zm0,0" transform="translate(-198.925 -241.637)" fill="#594f69"/>
    <path id="Path_14307" data-name="Path 14307" d="M217.395,323.1h19.467l-9.734,27.457Zm0,0" transform="translate(-162.583 -241.637)" fill="#ffd659"/>
    <path id="Path_14313" data-name="Path 14313" d="M146.233,37.059s1.944.783,3.941-2.957c2.283-4.277,8.3-6.666,15.511-6.406,8.5.306,12.239-2.513,14.117-5.5a.252.252,0,0,1,.452.056c2.446,7.485,5.8,5.6,8,12.364,1.288,3.966,4.668,2.446,4.668,2.446s9.3-5.384,4.508-13.934c.823-17.181-12.672-18.2-12.672-18.2s-6.167-7.82-23.075-3.752c-24.4,5.87-20.065,22.986-20.065,22.986S137.422,32.268,146.233,37.059Zm0,0" transform="translate(-105.165)" fill="#8c4a37"/>
    <path id="Path_14314" data-name="Path 14314" d="M275.033,23.125c.823-17.181-12.672-18.2-12.672-18.2S257.452-1.3,244.387.248c7.28,1,10.183,4.678,10.183,4.678s13.495,1.017,12.672,18.2c2.826,5.041.752,8.98-1.425,11.366.014.041.028.081.04.122,1.289,3.966,4.669,2.446,4.669,2.446S279.827,31.675,275.033,23.125Zm0,0" transform="translate(-182.769 0)" fill="#804231"/>
  </g>
</svg>
