<svg id="Layer_1" data-name="Layer 1" xmlns="http://www.w3.org/2000/svg" viewBox="0 0 167 167"><defs><style>.cls-1{fill:#ffb703;}.cls-2,.cls-6,.cls-8{fill:none;}.cls-2{stroke:#161615;stroke-miterlimit:10;stroke-width:0.25px;}.cls-3{fill:#271a1d;}.cls-4{fill:#df2617;}.cls-5{fill:#fff;}.cls-6{stroke:#fff;}.cls-7{fill:#342326;}.cls-8{stroke:#342326;}</style></defs><g id="Group_3515" data-name="Group 3515"><g id="Group_3188" data-name="Group 3188"><g id="Mask_Group_27" data-name="Mask Group 27"><g id="Group_2956" data-name="Group 2956"><path class="cls-1" d="M167,100.83v53.8a12.18,12.18,0,0,1-12.2,12.2H80c-5-5.9-6.7-14.8-3.9-27.6,2.5-12.1.8-19.4,1.5-26.3.1-.6.1-1.1.2-1.7,1.1-6.9,5.2-13.9,18.9-25.2C122,65,156,92.23,167,100.83Z"/></g></g></g><path class="cls-2" d="M70.42,109.48c.1-.2.2-.3.3-.5h0c.9-1.6,1.8-3.5,1-5-1.1-2.2-5-4.2,5.3-30.3,9.9-25,43.2-12.2,36.9-66.6"/><path id="Path_14109" data-name="Path 14109" class="cls-2" d="M64.42,111.38a1.5,1.5,0,0,1,1.4-1,1.28,1.28,0,0,1,1,1.1"/><path id="Path_14110" data-name="Path 14110" class="cls-2" d="M76.22,109.58a1.26,1.26,0,0,0-1.6-.5,1.2,1.2,0,0,0-.6,1.3"/><path id="Path_14111" data-name="Path 14111" class="cls-2" d="M78.52,114a1.22,1.22,0,0,0-1.2-1.2,1.3,1.3,0,0,0-1.2.8"/><path id="Path_14112" data-name="Path 14112" class="cls-2" d="M63.92,114.28a1.25,1.25,0,0,1,.7-1.7,1.42,1.42,0,0,1,1.6.5"/><path id="Path_14113" data-name="Path 14113" class="cls-2" d="M78,112a1.4,1.4,0,0,0-1.2-1.4,1.57,1.57,0,0,0-1.4.9"/><path id="Path_14114" data-name="Path 14114" class="cls-3" d="M76.42,113.38a5.26,5.26,0,1,1-6-4.4h0a5.34,5.34,0,0,1,6,4.4Z"/><path id="Path_14117" data-name="Path 14117" class="cls-4" d="M82,126.48c-.2.4,2.5,3.1,3.6,4.3a20,20,0,0,0,4.1,3.6c2.5,1.7,4.9,2.2,8.4,3.1a49.1,49.1,0,0,0,10.2,1.3,116.16,116.16,0,0,0,11.8.2c5.5-.1,8.3-.2,11.6-1a23.91,23.91,0,0,0,8.8-3.5c2.3-1.5,3.8-3.1,6.4-5.9,1-1,4.3-4.7,4-5.2s-3.7,1.9-3.9,2.1c-1.9,1.3-2.4,2.1-3.9,3.2a19.21,19.21,0,0,1-5,2.9,31,31,0,0,1-8.4,2.4,88.51,88.51,0,0,1-8.8,1.2,86.89,86.89,0,0,1-10.2.3,56.49,56.49,0,0,1-11.6-1.3,38,38,0,0,1-8.1-2.5c-5.5-2.3-8.8-5.6-9-5.2Z"/><path id="Path_14118" data-name="Path 14118" class="cls-5" d="M108.92,138.58c-.1.3.1.3.3,1.4.3,1.4.1,1.7.4,2.8a3.7,3.7,0,0,0,.8,1.8c.6.5,1,.2,2.6.3s1.6.4,2.3.2a3.71,3.71,0,0,0,1.7-2c.5-1.2.8-3.3-.1-4.5-.4-.5-.8-.6-3.5-.6C109.92,137.88,109.12,138,108.92,138.58Z"/><path id="Path_14119" data-name="Path 14119" class="cls-5" d="M117.12,138.58c0,.2,0,.2.1,1.3a26.6,26.6,0,0,0,.3,2.8,2.93,2.93,0,0,0,.7,1.6,2.21,2.21,0,0,0,1.9.6,17.85,17.85,0,0,0,2.3-.2c1.2-.1,1.5.2,1.8-.2s.5-1.1.5-2.6v-2.6c0-1.6.1-1.7-.1-1.9-.4-.7-1.5-.1-4,.2C118.62,138,117.42,137.78,117.12,138.58Z"/><path id="Path_14124" data-name="Path 14124" class="cls-3" d="M69.92,115.08c-.2,0-.4-.1-.4-.3s.1-.4.3-.4.4.1.4.3h0c0,.2-.1.4-.3.4Z"/><path id="Path_14125" data-name="Path 14125" class="cls-3" d="M73.22,114.58c-.2,0-.4-.1-.4-.3s.1-.4.3-.4.4.1.4.3h0c0,.2-.1.3-.3.4Z"/><g id="Ellipse_190" data-name="Ellipse 190"><circle class="cls-5" cx="99.72" cy="115.28" r="6"/><circle class="cls-6" cx="99.72" cy="115.28" r="5.5"/></g><g id="Ellipse_273" data-name="Ellipse 273"><circle class="cls-5" cx="122.72" cy="111.28" r="6"/><circle class="cls-6" cx="122.72" cy="111.28" r="5.5"/></g><g id="Ellipse_191" data-name="Ellipse 191"><circle class="cls-7" cx="97.72" cy="115.28" r="2"/><circle class="cls-8" cx="97.72" cy="115.28" r="1.5"/></g><g id="Ellipse_272" data-name="Ellipse 272"><circle class="cls-7" cx="120.72" cy="111.28" r="2"/><circle class="cls-8" cx="120.72" cy="111.28" r="1.5"/></g></g></svg>