<svg xmlns="http://www.w3.org/2000/svg" xmlns:xlink="http://www.w3.org/1999/xlink" width="212" height="137" viewBox="0 0 212 137">
  <defs>
    <filter id="pexels-photo-3972931" x="0" y="0" width="212" height="137" filterUnits="userSpaceOnUse">
      <feOffset dy="3" input="SourceAlpha"/>
      <feGaussianBlur stdDeviation="3" result="blur"/>
      <feFlood flood-opacity="0.161"/>
      <feComposite operator="in" in2="blur"/>
      <feComposite in="SourceGraphic"/>
    </filter>
  </defs>
  <g id="Group_3590" data-name="Group 3590" transform="translate(10 -2364)">
    <g id="Group_2834" data-name="Group 2834" transform="translate(-5 352)">
      <g transform="matrix(1, 0, 0, 1, -5, 2012)" filter="url(#pexels-photo-3972931)">
        <rect id="pexels-photo-3972931-2" data-name="pexels-photo-3972931" width="194" height="119" rx="10" transform="translate(9 6)" fill="#fafafa"/>
      </g>
    </g>
    <g id="Group_3398" data-name="Group 3398" transform="translate(-15 632.4)">
      <g id="picture" transform="translate(85 1782.292)">
        <g id="Group_3393" data-name="Group 3393" transform="translate(0 0)">
          <g id="Group_3392" data-name="Group 3392">
            <path id="Path_14268" data-name="Path 14268" d="M42.049,68.267h-37A5.046,5.046,0,0,0,0,73.313V96.86a5.046,5.046,0,0,0,5.046,5.046h37a5.046,5.046,0,0,0,5.046-5.046V73.313A5.046,5.046,0,0,0,42.049,68.267ZM43.731,96.86a1.682,1.682,0,0,1-1.682,1.682h-37A1.682,1.682,0,0,1,3.364,96.86v-.986l6.728-6.728,5.539,5.539a1.682,1.682,0,0,0,2.378,0L31.957,80.737,43.731,92.511V96.86Zm0-9.106L33.146,77.17a1.682,1.682,0,0,0-2.378,0L16.819,91.118l-5.539-5.539a1.682,1.682,0,0,0-2.378,0L3.364,91.118V73.313a1.682,1.682,0,0,1,1.682-1.682h37a1.682,1.682,0,0,1,1.682,1.682V87.754Z" transform="translate(0 -68.267)" fill="#023047"/>
          </g>
        </g>
        <g id="Group_3395" data-name="Group 3395" transform="translate(10.092 6.728)">
          <g id="Group_3394" data-name="Group 3394">
            <path id="Path_14269" data-name="Path 14269" d="M107.446,136.533a5.046,5.046,0,1,0,5.046,5.046A5.046,5.046,0,0,0,107.446,136.533Zm0,6.728a1.682,1.682,0,1,1,1.682-1.682A1.682,1.682,0,0,1,107.446,143.261Z" transform="translate(-102.4 -136.533)" fill="#023047"/>
          </g>
        </g>
      </g>
    </g>
  </g>
</svg>
