<svg id="Layer_1" data-name="Layer 1" xmlns="http://www.w3.org/2000/svg" xmlns:xlink="http://www.w3.org/1999/xlink" viewBox="0 0 167 167"><defs><style>.cls-1,.cls-8,.cls-9{fill:none;}.cls-2{fill:#fb8500;}.cls-3{clip-path:url(#clip-path);}.cls-4{fill:#271a1d;}.cls-5{fill:#e44327;}.cls-6{fill:#161615;}.cls-7{fill:#fff;}.cls-8,.cls-9{stroke:#161615;stroke-miterlimit:10;}.cls-8{stroke-width:0.5px;}.cls-9{stroke-width:0.25px;}.cls-10{fill:#ffb703;}</style><clipPath id="clip-path"><rect class="cls-1" x="44.32" y="64.58" width="113.6" height="91.5"/></clipPath></defs><g id="Group_3202" data-name="Group 3202"><g id="Group_3201" data-name="Group 3201"><path class="cls-2" d="M167,99.5v55.3A12.18,12.18,0,0,1,154.8,167H80.1c-11.5-17.4-12-52.8,1-62.5C110.5,82.4,154.8,94.6,167,99.5Z"/></g></g><g class="cls-3"><g id="Group_3201-2" data-name="Group 3201"><path id="Path_14144" data-name="Path 14144" class="cls-4" d="M56.72,75.68a1.2,1.2,0,1,1-1.2-1.2,1.22,1.22,0,0,1,1.2,1.2h0"/><path id="Path_14145" data-name="Path 14145" class="cls-5" d="M52.52,85.88c.1-1.6-.5-2-.2-2.8s1.4-.8,4.9-1.1c3.7-.3,3.3-.3,4.9-.4,4.7-.2,5.3,0,5.6.5.5.9-.6,1.8-.4,4.1.2,1.9,1.1,2.4.8,3.2-.5,1.2-3.1,1.7-4.8,1.1a9.47,9.47,0,0,0-2.9-.7h-.8a11.36,11.36,0,0,0-2.5.6c-1,.5-1.1.8-1.7,1a3.45,3.45,0,0,1-4-2c-.3-1.1.9-1.5,1.1-3.5"/><path id="Path_14146" data-name="Path 14146" class="cls-6" d="M55.42,85.48a4.68,4.68,0,0,1,.2,1.7c-.2,1.2-1,1.6-.8,2s1,.5,1.6.3l.6-.3a9.13,9.13,0,0,1,1.3-.8,4.11,4.11,0,0,1,2.2,0c1,.2,1,.6,2.1.8.8.2,1.8.5,2.1,0,.2-.2.1-.6,0-1.1-.2-1-.6-1.2-.8-1.8-.3-1.2.9-2.1.5-2.6s-1.8.3-4,.4c-3.1.2-5.3-1.1-5.6-.4,0,.3.3.5.6,1.8"/><path id="Path_14147" data-name="Path 14147" class="cls-7" d="M56.92,84.88a1.7,1.7,0,0,0,.1.7,2.18,2.18,0,0,0,.5.8,3.09,3.09,0,0,0,.8.2,1.41,1.41,0,0,0,.9-.1,1,1,0,0,0,.4-.5v-.2c0-.2.1-.4.1-.6v-.8c-.2-.4-.8-.4-1.6-.5-.6,0-1,0-1.2.2v.8"/><path id="Path_14148" data-name="Path 14148" class="cls-7" d="M60.42,84.08c-.2.2,0,.5.1,1.8,0,.3,0,.4.1.5a1.3,1.3,0,0,0,1.2.1.76.76,0,0,0,.5-.2,2.19,2.19,0,0,0,.5-.3,3.33,3.33,0,0,0,.3-.6,1.27,1.27,0,0,0-.1-.6c0-.2-.1-.3-.1-.5s-.2-.5-.5-.6a1.34,1.34,0,0,0-.5.1c-.4.1-.5,0-.9.1a1,1,0,0,1-.6.2"/><path id="Path_14149" data-name="Path 14149" class="cls-7" d="M61.82,88.88c-.1-.2,0-.3.2-1.1,0-.2,0-.3.1-.3.2-.2.7,0,.9.1s.2.1.4.2.3.2.4.3.1.3.2.4-.1.2-.1.4-.1.2-.1.3-.2.3-.4.3-.1,0-.4-.1a6.37,6.37,0,0,0-.7-.2c-.2-.2-.4-.2-.5-.3"/><path id="Path_14150" data-name="Path 14150" class="cls-7" d="M57.92,88.48c.1-.1,0-.3-.2-.8l-.1-.3c-.2-.2-.7,0-.8,0s-.2.1-.3.2l-.3.3a.6.6,0,0,0-.1.4c0,.1.1.3.1.4s.1.2.1.3.2.3.4.4.1,0,.3-.1h.1a.22.22,0,0,0,.2-.2c.1-.1.1-.2.2-.3s.3-.2.4-.3"/><path id="Path_14151" data-name="Path 14151" class="cls-8" d="M76.22,80.78a15.71,15.71,0,0,1-15.8,15.7,15.75,15.75,0,1,1,15.8-15.7Z"/><circle id="Ellipse_289" data-name="Ellipse 289" class="cls-8" cx="77.82" cy="97.38" r="3.7"/><path id="Path_14152" data-name="Path 14152" class="cls-4" d="M65.52,75a1.2,1.2,0,1,1-1.2-1.2h0a1.29,1.29,0,0,1,1.2,1.2h0"/><path id="Path_14153" data-name="Path 14153" class="cls-9" d="M58,76a3.3,3.3,0,1,1-3.3-3.3h0A3.4,3.4,0,0,1,58,76Z"/><path id="Path_14157" data-name="Path 14157" class="cls-7" d="M112.32,116c0,4.7-3.5,8.4-7.7,8.4s-7.7-3.8-7.7-8.4,3.5-8.4,7.7-8.4S112.32,111.28,112.32,116Z"/><path id="Path_14158" data-name="Path 14158" class="cls-7" d="M135.92,113.38c0,4.7-3.5,8.4-7.7,8.4s-7.7-3.8-7.7-8.4,3.5-8.4,7.7-8.4S135.92,108.78,135.92,113.38Z"/><path id="Path_14154" data-name="Path 14154" class="cls-9" d="M68,75a3.3,3.3,0,1,1-3.3-3.3h0A3.33,3.33,0,0,1,68,75Z"/><path id="Path_14155" data-name="Path 14155" class="cls-4" d="M128.32,114.68a2.8,2.8,0,1,1-2.8-2.8,2.8,2.8,0,0,1,2.8,2.8h0"/><path id="Path_14156" data-name="Path 14156" class="cls-4" d="M109.52,116.08a2.7,2.7,0,1,1-2.7-2.7,2.69,2.69,0,0,1,2.7,2.7h0"/><path id="Path_14159" data-name="Path 14159" class="cls-10" d="M90.72,152.08c-.3-.1-.2-1.6-.1-2.2a7.68,7.68,0,0,1,1.8-4,16.83,16.83,0,0,1,4.8-4.4,25.68,25.68,0,0,1,6.7-2.5,62.1,62.1,0,0,1,8.4-1.6c4.2-.6,7.4-.9,9.9-1.1a82.06,82.06,0,0,1,9.9-.5,41.76,41.76,0,0,1,7.9,1.1,25.66,25.66,0,0,1,6.1,2,11.31,11.31,0,0,1,4.9,4c1.4,2,2,4.3,1.8,4.4s-.9-1.5-2.7-3.5a12.06,12.06,0,0,0-2.4-2.1,7.5,7.5,0,0,0-2-1,37.52,37.52,0,0,0-6.5-2,49.05,49.05,0,0,0-6.7-.8,75.28,75.28,0,0,0-9.5,0,82.82,82.82,0,0,0-14.8,2.3,45,45,0,0,0-6,1.7c-3.1,1.2-6,2.3-8,4.3-2.5,2.7-3,6.1-3.5,5.9"/><path id="Path_14160" data-name="Path 14160" class="cls-7" d="M111.42,140.08c-.2.4-.2,1.4.3,3.3.5,2.1.9,2.6,1.1,2.8a3.53,3.53,0,0,0,1.3.8,3.84,3.84,0,0,0,4.4-1.6,4.8,4.8,0,0,0,.5-1.7,9.18,9.18,0,0,0-.5-2.8c-.4-1.6-.2-1.8-.5-2.1-.5-.5-1.1-.2-3.2.2-2.5.7-3,.5-3.4,1.1"/><path id="Path_14161" data-name="Path 14161" class="cls-1" d="M103.42,129.08c-.2.4-.2,1.4.3,3.3.5,2.1.9,2.6,1.1,2.8a3.53,3.53,0,0,0,1.3.8,3.84,3.84,0,0,0,4.4-1.6,4.8,4.8,0,0,0,.5-1.7,9.18,9.18,0,0,0-.5-2.8c-.4-1.6-.2-1.8-.5-2.1-.5-.5-1.1-.2-3.2.2C104.32,128.68,103.82,128.48,103.42,129.08Z"/><path id="Path_14162" data-name="Path 14162" class="cls-7" d="M125.12,137.48c2.9-.3,3.4-.4,3.7.1.5.6.5,1.6.4,3-.1,1.6-.2,3.1-1.2,4a4.23,4.23,0,0,1-3,.7,3.16,3.16,0,0,1-2.6-.8c-.7-.8-.7-1.9-.7-3.3s0-2.4.5-3.1c.4-.4.8-.4,2.9-.6"/><path id="Path_14163" data-name="Path 14163" class="cls-1" d="M117.12,126.48c2.9-.3,3.4-.4,3.7.1.5.6.5,1.6.4,3-.1,1.6-.2,3.1-1.2,4a4.23,4.23,0,0,1-3,.7,3.16,3.16,0,0,1-2.6-.8c-.7-.8-.7-1.9-.7-3.3s0-2.4.5-3.1C114.62,126.68,115,126.68,117.12,126.48Z"/></g></g></svg>