<svg id="Layer_1" data-name="Layer 1" xmlns="http://www.w3.org/2000/svg" xmlns:xlink="http://www.w3.org/1999/xlink" viewBox="0 0 167 167"><defs><style>.cls-1,.cls-5{fill:none;}.cls-2{fill:#8ecae6;}.cls-3{clip-path:url(#clip-path);}.cls-4{fill:#fbfbfb;}.cls-5{stroke:#161615;stroke-miterlimit:10;stroke-width:0.25px;}.cls-6{fill:#219ebc;}.cls-7{fill:#161615;}.cls-8{fill:#fff;}.cls-9{fill:#271a1d;}</style><clipPath id="clip-path"><rect class="cls-1" x="94.09" y="86.26" width="52.9" height="85.1"/></clipPath></defs><g id="Group_3194" data-name="Group 3194"><g id="Mask_Group_27" data-name="Mask Group 27"><g id="Group_2956" data-name="Group 2956"><path class="cls-2" d="M167,119.81v35A12.18,12.18,0,0,1,154.8,167H71.6c-1.3-7-.8-18.3,2.1-36.5C83.1,72,137.1,100.51,167,119.81Z"/></g></g></g><g class="cls-3"><g id="Group_3192" data-name="Group 3192"><path id="Path_14133" data-name="Path 14133" class="cls-4" d="M107.09,117.66a5.14,5.14,0,0,1-5.1,5.2,5.25,5.25,0,0,1,0-10.5A5.16,5.16,0,0,1,107.09,117.66Z"/><path id="Path_14134" data-name="Path 14134" class="cls-4" d="M122.69,116.06a5.19,5.19,0,0,1-5.2,5,5.1,5.1,0,0,1,.1-10.2,5,5,0,0,1,5.1,5.2Z"/><path id="Path_14126" data-name="Path 14126" class="cls-5" d="M125.39,105c1.5-5.1,2.8-11.2-.8-15a13.87,13.87,0,0,1-10.8,2.5c-.4-.1-1-.3-1-.7a1,1,0,0,1,.7-.8,4.69,4.69,0,0,1,5.9,2.8c.1.2.1.4.2.6.1,1.1-.8,2.5-1.7,1.9a6.65,6.65,0,0,1,9.2,1.4c-.5-1.3,1.2-2.5,2.6-2.2s2.2,1.6,3,2.7a44.39,44.39,0,0,0-5.3-12.7,8.49,8.49,0,0,0-2.1-2.5,8,8,0,0,0-4.3-.9c-2.3,0-4.8.3-6.6,1.8a3,3,0,0,0-1.2,1.7,3.07,3.07,0,0,0,1.5,2.9,8.08,8.08,0,0,0,3.4.8,5.29,5.29,0,0,0,.3-3.7c-1-.2-1.7,1-1.5,2a3.57,3.57,0,0,0,1.9,2.1,14.12,14.12,0,0,0,5.7,1.8,12.41,12.41,0,0,0-.9-3.8,8.37,8.37,0,0,0,1.3,2.9,4.55,4.55,0,0,1,.5-2.8,1.78,1.78,0,0,1,2.4-.6.1.1,0,0,1,.1.1c-1.7,0-2.7-2.6-1.4-3.7s3.7.5,3.2,2.1a1,1,0,0,1-.7.7,1.14,1.14,0,0,1-.8-.3,7.36,7.36,0,0,1-2.6-7.1,12.19,12.19,0,0,1,6,.8c1.8.9,3.2,3.1,2.5,5a40.41,40.41,0,0,1,8,4.8,11.23,11.23,0,0,0-4,1.4,3.65,3.65,0,0,0-1.7,3.7c-1.7.3-3.2-1.1-4.4-2.3a30.08,30.08,0,0,0-11.5-6.6,1.81,1.81,0,0,0-1.6.1c-.4.4-.1,1.3.4,1.1"/><path id="Path_14127" data-name="Path 14127" class="cls-6" d="M97.29,135.46c-.5.6-1,1.3-1.5,2a9.88,9.88,0,0,0-1.5,3.3,7.7,7.7,0,0,0,1,6.1,10.34,10.34,0,0,0,3.1,2.4,11.29,11.29,0,0,0,1.5.9,12.27,12.27,0,0,0,2.6,1.2,15.53,15.53,0,0,0,3.6.8c.6.1,1.4.1,2.9.2s2.5.1,3.4.1a48.86,48.86,0,0,0,5.4-.3,25,25,0,0,0,3.8-.6,4.91,4.91,0,0,0,1.2-.3,13.5,13.5,0,0,0,3.2-1.1,8.6,8.6,0,0,0,2.6-2,9.14,9.14,0,0,0,2-2.4,10,10,0,0,0,1-2.9c.4-2.7.7-4.1.4-5.5-.8-3.8-4.3-5.9-5.6-6.8a12.31,12.31,0,0,0-6.2-2c-3,0-3.4,1.4-6.7,1.9-4.8.7-5.6-2-9.1-.8-.2,0-2.8.8-7.1,5.8"/><path id="Path_14128" data-name="Path 14128" class="cls-7" d="M104.29,135.16a12.18,12.18,0,0,0-3.1,2.9,7.4,7.4,0,0,0-1.2,6.1c.7,2.2,2.8,4.2,4,3.8.7-.2.5-1,1.6-2.4a8.38,8.38,0,0,1,3.4-2.5c.9-.4,1.2-.3,4.5-.6,4.7-.3,5.1-.5,6.4-.2a15.4,15.4,0,0,1,3.5,1.5c2.8,1.4,3.1,2,3.7,1.7,1.8-.7,2.2-8.4-1.3-11.1a12,12,0,0,0-4.8-2c-1.4-.2-1.9-.1-5.6.3-4.9.4-6.7.2-9.7,1.7-.4.2-.9.5-1.4.8"/><path id="Path_14129" data-name="Path 14129" class="cls-8" d="M108.59,133.36c2.9-.6,3.3-.8,3.7-.5.6.4.6,1.2.7,2.4s.1,2.5-.8,3.4a4.36,4.36,0,0,1-2.9.9,4.24,4.24,0,0,1-2.7-.3c-.8-.5-.9-1.4-1.1-2.6a3.22,3.22,0,0,1,.2-2.6,22.5,22.5,0,0,1,2.9-.7"/><path id="Path_14130" data-name="Path 14130" class="cls-8" d="M115,132.76c-.3.3-.3,1.1-.1,2.7a4.07,4.07,0,0,0,.8,2.4,3.17,3.17,0,0,0,1.2.8,5.66,5.66,0,0,0,2.6.3,3.47,3.47,0,0,0,2-1,3.29,3.29,0,0,0,.7-1.3,5.83,5.83,0,0,0-.2-2.3c-.2-1.4,0-1.5-.3-1.8-.4-.5-1.1-.3-3.2-.2-2.6.1-3.1-.1-3.5.4"/><path id="Path_14131" data-name="Path 14131" class="cls-9" d="M119.69,116.06a2.12,2.12,0,0,1-1.9,2.3,2.11,2.11,0,1,1-.4-4.2h.2a2,2,0,0,1,2.1,1.9"/><path id="Path_14132" data-name="Path 14132" class="cls-9" d="M104.09,117.66a2.08,2.08,0,0,1-2.1,1.9,1.91,1.91,0,0,1-.4-3.8h.4a2,2,0,0,1,2.1,1.9"/></g></g></svg>