<?xml version="1.0" encoding="utf-8"?>
<!-- Generator: Adobe Illustrator 25.0.1, SVG Export Plug-In . SVG Version: 6.00 Build 0)  -->
<svg version="1.1" id="Layer_1" xmlns="http://www.w3.org/2000/svg" xmlns:xlink="http://www.w3.org/1999/xlink" x="0px" y="0px"
	 viewBox="0 0 167 167" style="enable-background:new 0 0 167 167;" xml:space="preserve">
<style type="text/css">
	.st0{display:none;}
	.st1{display:inline;}
	.st2{fill:#219EBC;}
	.st3{clip-path:url(#SVGID_2_);}
	.st4{fill:#FAFAFA;stroke:#161615;stroke-width:0.75;stroke-miterlimit:10;}
	.st5{fill:none;stroke:#161615;stroke-width:0.25;stroke-miterlimit:10;}
	.st6{fill:#023047;}
	.st7{font-family:'CenturyGothic-Bold';}
	.st8{font-size:14px;}
	.st9{fill:#8EC9E6;}
	.st10{fill:#161615;}
	.st11{fill:#FFFFFF;}
	.st12{fill:#FFB703;}
	.st13{fill:none;stroke:#FFFFFF;}
	.st14{fill:#FB8500;}
	.st15{fill:#1D1D1B;}
	.st16{fill:#342326;}
	.st17{fill:none;stroke:#342326;}
	.st18{display:none;opacity:0.45;fill:#FF0000;stroke:#000000;stroke-miterlimit:10;enable-background:new    ;}
	.st19{display:inline;fill:none;}
	.st20{display:inline;fill:none;stroke:#1D1D1B;stroke-width:2;}
	.st21{display:inline;fill:#FCB704;}
	.st22{display:inline;fill:#1D1D1B;}
	.st23{display:inline;fill:#FFFFFF;}
	.st24{clip-path:url(#SVGID_4_);}
	.st25{fill:#005FAB;}
	.st26{fill:none;stroke:#342326;stroke-width:1.001;stroke-miterlimit:4.0042;}
	.st27{display:inline;fill:none;stroke:#161615;stroke-width:0.25;stroke-miterlimit:10;}
	.st28{display:inline;fill:#271A1D;}
	.st29{display:inline;fill:#DF2617;}
	.st30{fill:#8ECAE6;}
	.st31{clip-path:url(#SVGID_6_);}
	.st32{fill:#FBFBFB;}
	.st33{fill:#271A1D;}
	.st34{clip-path:url(#SVGID_8_);}
</style>
<g id="Group_3208" transform="translate(-244.094 -1289.616)" class="st0">
	<g id="Mask_Group_30" transform="translate(244.094 1289.616)" class="st1">
		<g id="Group_3173" transform="translate(42.947 34.939)">
			<path class="st2" d="M121.7,53.2v62.9c0,6.7-5.4,12.2-12.2,12.2H23.2c0,0,0-0.1-0.1-0.1C-8.9,63.9,103.8,16.1,121.7,53.2z"/>
		</g>
	</g>
	<g id="Group_3172" transform="translate(308 1347.638)" class="st1">
		<g>
			<g>
				<defs>
					<rect id="SVGID_1_" x="21" y="38.8" width="61.6" height="55.4"/>
				</defs>
				<clipPath id="SVGID_2_">
					<use xlink:href="#SVGID_1_"  style="overflow:visible;"/>
				</clipPath>
				<g id="Group_3171" transform="translate(0 0)" class="st3">
					<path id="Path_14075" class="st4" d="M49.5,50.1c0,5.8-4.3,10.5-9.6,10.5s-9.6-4.7-9.6-10.5s4.3-10.5,9.6-10.5
						S49.5,44.3,49.5,50.1z"/>
					<path id="Path_14074" class="st4" d="M72.6,50.1c0,5.8-4.3,10.5-9.6,10.5s-9.6-4.7-9.6-10.5s4.3-10.5,9.6-10.5
						c4.4,0,8,3.6,9.2,7.3C72.4,47.9,72.6,49,72.6,50.1z"/>
					<path id="Path_14069" class="st5" d="M49.6,49.7c-0.3-0.9,0-1.8,0.7-2.5c0.9-0.6,2.1-0.4,2.6,0.5c0,0,0.1,0.1,0.1,0.2
						c0.3,0.6,0.4,1.3,0.2,1.9"/>
					<text transform="matrix(-1 0 0 1 66.1897 55.4267)" class="st6 st7 st8">B</text>
					<text transform="matrix(1 0 0 1 34.6685 55.3086)" class="st6 st7 st8">A</text>
					<path id="Path_14070" class="st9" d="M35.2,76.2c-2.5,1.4-2.4,2-6.3,5.1c-5.4,4.3-8.1,5.3-7.8,6.5c0.2,1,2.3,0.6,7.8,2.5
						c2.2,0.8,2.5,1,4.9,1.8c2,0.7,4,1.2,6,1.6c4.3,0.7,4.8-0.8,10.6-0.8c2.4,0.1,4.9,0.3,7.3,0.6c3,0.4,4.3,0.7,6.4,0.4
						c1.2-0.2,1.5-0.4,4.6-1.4c3.8-1.3,4.1-1.2,7.1-2.2c4.5-1.5,6.7-2.3,6.8-3.2c0.1-0.8-0.7-1.6-8.9-7c-3.8-2.5-4.4-2.9-5.2-3.3
						c-2.6-1.4-5.3-2.6-8.1-3.5c-2.7-0.9-5.6-1.4-8.5-1.5c-2.9,0-5.8,0.4-8.5,1.2C40.5,73.8,37.8,74.8,35.2,76.2"/>
					<path id="Path_14071" class="st10" d="M41.4,77.5c-1.4,0.8-2.7,1.8-3.9,2.9c-1.5,1.3-2.2,1.7-3,2.5c-1.8,1.7-3.2,3.1-2.9,4.1
						c0.4,1.2,3,1.3,4.2,1.4c1.5,0,2.9-0.1,4.4-0.4c1.6-0.1,3.2-0.1,4.8,0c3.3,0.1,4,0.1,6.1,0.2c5.2,0.1,4.5-0.1,7.4,0
						c3.4,0.2,4.6,0.6,7.2,0.2c1.4-0.2,2.7-0.7,3.9-1.5c1-0.7,2-1.4,2.1-2.4c0-1.4-2-1.4-5.9-4.6c-1.5-1.4-3.2-2.5-5.1-3.2
						c-1.5-0.5-2.1-0.4-6.3-0.6c-5.8-0.2-8.3-0.6-11.1,0.5C42.6,76.9,42,77.2,41.4,77.5"/>
					<path id="Path_14072" class="st11" d="M46.5,76c3.3-0.3,3.8-0.4,4.3,0c0.6,0.6,0.5,1.6,0.4,3c-0.1,1.5-0.2,3-1.4,4
						c-0.9,0.7-2,0.7-3.4,0.7c-1.3,0-2.2-0.1-2.9-0.7c-0.8-0.8-0.8-1.8-0.9-3.2c0-1.3-0.1-2.3,0.6-3C43.6,76.2,44.1,76.2,46.5,76"/>
					<path id="Path_14073" class="st11" d="M53.7,76.2c-0.3,0.3-0.5,1.3-0.5,3.2c0,2.1,0.4,2.8,0.6,3c0.3,0.5,0.8,0.9,1.3,1.1
						C56,84,57,84.3,58,84.2c0.9,0,1.7-0.3,2.4-0.9c0.4-0.4,0.8-0.9,0.9-1.5c0.2-0.9,0.2-1.9,0.1-2.8c0-1.7,0.2-1.7,0-2.1
						c-0.4-0.6-1.2-0.5-3.6-0.7C54.8,76,54.3,75.7,53.7,76.2"/>
				</g>
			</g>
		</g>
	</g>
</g>
<g id="Group_3141" transform="translate(-81.482 -758.832)" class="st0">
	<g id="Mask_Group_27" transform="translate(81.482 758.832)" class="st1">
		<g id="Group_2956" transform="translate(47.872 46.604)">
			<path class="st12" d="M116.8,63.4v41.2c0,6.7-5.4,12.2-12.2,12.2H85.8l-40.5-0.2c-2-4.9-3.1-12.3-1.4-20.7
				c4.5-22.6-6.6-26.6,17.5-47.7S112.4,60.5,116.8,63.4z"/>
		</g>
	</g>
	<g id="Ellipse_148" transform="translate(168 826)" class="st1">
		<circle class="st11" cx="48.8" cy="47.3" r="6"/>
		<circle class="st13" cx="48.8" cy="47.3" r="5.5"/>
	</g>
	<g id="Group_3092" transform="translate(160.227 846.713)" class="st1">
		<path id="Path_13988" class="st14" d="M45.8,56.5c0.9,0.6,1.9,1.1,3,1.4c1.9,0.5,3.8,0.5,5.7,0.1c2.5-0.5,4.8-1.5,6.9-2.9
			c2.5-1.6,5.1-3.2,6.2-6.3c0.6-1.5,0.7-3.1,0.2-4.6c-0.7-1.9-2.6-3.1-4.7-2.9c-1.4,0-2.9,0.4-5.5,2.3c-2.5,1.9-1.8,2.5-4.6,3.5
			s-5.6,0.6-6.5,0.8c-2.3,0.3-3.9,2.4-3.7,4.6C43.1,53.9,43.7,55.2,45.8,56.5L45.8,56.5z"/>
		<path id="Path_13989" class="st15" d="M50,55.1c-1-0.3-1.9-0.8-2.7-1.6c-0.5-0.5-1.5-1.5-1.2-2.4c0.4-1.1,2.3-1.3,2.9-1.4
			c1.6-0.2,1.8,0.3,3.2,0c1.1-0.2,2.2-0.8,3.1-1.5c1.3-1,1.1-1.4,2.4-2.4c0.8-0.7,1.8-1.2,2.9-1.4c0.8-0.2,1.7,0,2.5,0.4
			c1.1,0.8,1.1,2.4,1.1,3.4c0.1,1.3-0.3,2.6-1.1,3.6c-0.6,0.7-1.1,0.8-3.8,1.9c-3.7,1.5-3.8,1.8-5.1,2C52.8,55.7,51.4,55.6,50,55.1
			L50,55.1z"/>
		<path id="Path_13990" class="st11" d="M52.6,54.7c-0.1-0.3-0.1-0.6,0-0.9c0-0.4,0.3-0.8,0.6-1.1c0.3-0.2,0.7-0.4,1.1-0.4
			c0.4-0.2,0.9-0.2,1.3-0.1c0.3,0.1,0.5,0.3,0.7,0.6c0,0.1,0.1,0.1,0.1,0.2c0.1,0.2,0.2,0.5,0.2,0.7c0.1,0.3,0.1,0.6,0.2,1
			c-0.1,0.5-1,0.8-2.1,1c-0.9,0.2-1.4,0.3-1.7,0.1C52.8,55.4,52.7,55.1,52.6,54.7L52.6,54.7z"/>
		<path id="Path_13991" class="st11" d="M57.6,54.3c-0.4-0.1-0.4-0.6-1-2.1c-0.1-0.3-0.2-0.5-0.2-0.7c0.2-0.6,1.2-0.9,1.4-1
			c0.3-0.1,0.5-0.1,0.8-0.2c0.3-0.1,0.6-0.1,0.9,0c0.3,0.1,0.5,0.2,0.7,0.4c0.1,0.2,0.2,0.5,0.3,0.7s0.1,0.4,0.1,0.7
			c0.1,0.4,0,0.7-0.3,1c-0.2,0.2-0.2,0.1-0.7,0.3S59,53.7,58.4,54C58.1,54.2,57.9,54.3,57.6,54.3L57.6,54.3z"/>
	</g>
	<g id="Ellipse_222" transform="translate(171 831)" class="st1">
		<circle class="st16" cx="44.8" cy="43.3" r="2"/>
		<circle class="st17" cx="44.8" cy="43.3" r="1.5"/>
	</g>
	<g id="Ellipse_231" transform="translate(149 835)" class="st1">
		<circle class="st11" cx="48.8" cy="47.3" r="6"/>
		<circle class="st13" cx="48.8" cy="47.3" r="5.5"/>
	</g>
	<g id="Ellipse_221" transform="translate(155 839)" class="st1">
		<circle class="st16" cx="44.8" cy="43.3" r="2"/>
		<circle class="st17" cx="44.8" cy="43.3" r="1.5"/>
	</g>
</g>
<path class="st18" d="M164.6,15.8v135.3c0,6.7-5.4,12.2-12.2,12.2H14.6c-6.7,0-12.2-5.5-12.2-12.2V15.8c0-6.7,5.5-12.2,12.2-12.2
	h137.9C159.2,3.7,164.6,9.1,164.6,15.8z"/>
<g id="Group_3148" transform="translate(-258.52 -759.151)" class="st0">
	<g id="Mask_Group_27_1_" transform="translate(258.52 759.15)" class="st1">
		<g id="Group_2956_1_" transform="translate(52.086 60.968)">
			<path class="st2" d="M112.5,48.6v41.6c0,6.7-5.4,12.2-12.2,12.2H48.9C44.7,98.8,48,92.2,44,80.7c-5.7-16.1-12.7-32,16.1-45.1
				C82,25.5,105.5,39.2,112.5,48.6z"/>
		</g>
	</g>
	<path id="Path_13814" class="st19" d="M367.8,877.7c0,0.4,0.1,0.8,0.3,1.2c0.2,0.6,0.6,1.1,1.1,1.4c0.3,0.3,0.7,0.4,1.1,0.5
		c0.8,0.2,1.7,0,2.4-0.5c0.7-0.4,1.2-1,1.5-1.8c0.3-0.6,0.5-1.2,0.6-1.9c0-1.3-0.9-3-2.3-3.2c-0.8-0.1-1.6,0.1-2.3,0.6
		c-0.7,0.4-1.2,0.9-1.6,1.6C368.2,876.3,367.9,877,367.8,877.7z"/>
	<path id="Path_13816" class="st19" d="M384.7,872.1c-0.4,0.4-0.6,0.9-0.8,2.1c-0.3,1.5-0.5,2.3-0.2,2.9c0.6,1.4,2,2.4,3.5,2.4
		c1.4,0,2.7-0.7,3.5-1.8c0.7-1.1,0.8-2.5,0.2-3.6c-0.6-1.2-1.8-2-3.1-2.3C387.3,871.7,385.7,871.3,384.7,872.1z"/>
	<rect id="Rectangle_2491" x="366.4" y="865.8" class="st19" width="25.5" height="35"/>
	<path id="Path_13818" class="st19" d="M369.3,880c0,0.4,0.1,0.8,0.3,1.2c0.2,0.6,0.6,1.1,1.1,1.4c0.3,0.3,0.7,0.4,1.1,0.5
		c0.8,0.2,1.7,0,2.4-0.5c0.7-0.4,1.2-1,1.5-1.8c0.3-0.6,0.5-1.2,0.6-1.9c0-1.3-0.9-3-2.3-3.2c-0.8-0.1-1.6,0.1-2.3,0.6
		c-0.7,0.4-1.2,0.9-1.6,1.6C369.7,878.6,369.4,879.3,369.3,880z"/>
	<path id="Path_13820" class="st19" d="M386.2,874.4c-0.4,0.4-0.6,0.9-0.8,2.1c-0.3,1.5-0.5,2.3-0.2,2.9c0.6,1.4,2,2.4,3.5,2.4
		c1.4,0,2.7-0.7,3.5-1.8c0.7-1.1,0.8-2.5,0.2-3.6c-0.6-1.2-1.8-2-3.1-2.3C388.9,874,387.2,873.6,386.2,874.4z"/>
	<g id="Group_3077" transform="translate(333.621 853.564)" class="st1">
		<path id="Path_13821" class="st9" d="M40.9,37.7c0.2-2.3-0.9-3-0.3-4.1c0.7-1.1,2.4-1.1,8.6-1.3c6.4-0.2,5.8-0.2,8.7-0.2
			c8.3,0,9.3,0.3,9.8,1c1,1.4-1.1,2.7-0.7,6c0.4,2.8,2,3.6,1.4,4.8c-0.9,1.8-5.4,2.3-8.5,1.4c-1.7-0.6-3.4-1-5.1-1.2
			C54.3,44,53.9,44,53.4,44c-1.5,0-2.9,0.3-4.3,0.7c-1.8,0.6-1.9,1.1-3,1.3c-2.5,0.6-6.4-1-7.1-3.3C38.4,41.1,40.6,40.6,40.9,37.7
			L40.9,37.7z"/>
		<path id="Path_13822" class="st15" d="M46,37.1c0.3,0.8,0.4,1.6,0.4,2.5c-0.3,1.7-1.7,2.3-1.4,2.9c0.3,0.6,1.9,0.7,2.8,0.5
			c0.3-0.1,0.7-0.2,1-0.4c0.7-0.5,1.5-0.9,2.4-1.1c1.3-0.3,2.7-0.2,3.9,0.1c1.8,0.4,1.8,0.9,3.8,1.4c1.4,0.3,3.2,0.8,3.7,0.1
			c0.3-0.3,0.1-0.8-0.1-1.6c-0.4-1.5-1.1-1.8-1.4-2.7c-0.6-1.8,1.5-3,0.9-3.8c-0.6-0.9-3.2,0.3-7.1,0.4c-5.4,0.1-9.3-2-9.9-1
			C44.9,34.9,45.5,35.2,46,37.1L46,37.1z"/>
		<path id="Path_13823" class="st11" d="M48.7,36.4c0,0.4,0,0.7,0.2,1.1c0.2,0.5,0.5,0.9,0.9,1.2c0.5,0.2,1,0.3,1.5,0.3
			c0.5,0.1,1.1,0.1,1.6-0.1c0.3-0.2,0.6-0.4,0.7-0.8c0-0.1,0.1-0.2,0.1-0.3c0.1-0.3,0.1-0.6,0.1-0.9c0-0.4,0-0.8,0-1.1
			c-0.3-0.6-1.4-0.7-2.7-0.8c-1.1-0.1-1.8-0.1-2.1,0.2C48.7,35.5,48.7,35.9,48.7,36.4L48.7,36.4z"/>
		<path id="Path_13824" class="st11" d="M54.9,35.5c-0.4,0.3-0.1,0.8,0.2,2.6c0.1,0.4,0.1,0.6,0.2,0.8c0.5,0.5,1.8,0.3,2.1,0.3
			c0.3-0.1,0.6-0.1,0.9-0.2c0.3-0.1,0.7-0.2,1-0.5c0.2-0.2,0.4-0.5,0.5-0.8c0-0.3-0.1-0.6-0.1-0.8c-0.1-0.3-0.1-0.5-0.3-0.7
			c-0.2-0.4-0.5-0.7-0.9-0.9c-0.3-0.1-0.3,0-1,0.1s-0.8,0-1.7,0C55.5,35.3,55.2,35.4,54.9,35.5L54.9,35.5z"/>
		<path id="Path_13825" class="st11" d="M57.3,42.7c-0.2-0.2,0-0.5,0.4-1.7c0.1-0.3,0.1-0.4,0.2-0.5c0.4-0.3,1.3,0.1,1.5,0.1
			c0.2,0.1,0.4,0.2,0.6,0.3c0.2,0.1,0.5,0.3,0.6,0.4c0.1,0.2,0.2,0.4,0.3,0.6c0,0.2-0.1,0.4-0.2,0.5c-0.1,0.2-0.1,0.3-0.2,0.4
			c-0.2,0.2-0.4,0.4-0.7,0.5c-0.2,0-0.2-0.1-0.7-0.2c-0.5-0.1-0.6-0.1-1.2-0.3C57.7,42.9,57.5,42.8,57.3,42.7L57.3,42.7z"/>
		<path id="Path_13826" class="st11" d="M50.5,41.9c0.1-0.2-0.1-0.4-0.4-1.3C50,40.2,50,40.1,49.9,40c-0.4-0.3-1.3-0.1-1.5,0
			s-0.4,0.1-0.6,0.2c-0.2,0.1-0.4,0.2-0.6,0.4C47.1,40.8,47,41,47,41.2c0.1,0.2,0.1,0.4,0.2,0.6c0.1,0.2,0.2,0.4,0.3,0.5
			c0.2,0.3,0.4,0.5,0.7,0.6c0.2,0,0.2,0,0.6-0.1c0.2,0,0.1,0,0.3-0.1s0.3-0.1,0.4-0.2c0.3-0.2,0.3-0.2,0.4-0.4
			C50.2,41.9,50.4,42,50.5,41.9L50.5,41.9z"/>
	</g>
	<g id="Ellipse_149" transform="translate(332 836)" class="st1">
		<circle class="st11" cx="44.9" cy="38" r="6"/>
		<circle class="st13" cx="44.9" cy="38" r="5.5"/>
	</g>
	<g id="Ellipse_150" transform="translate(353 835)" class="st1">
		<circle class="st11" cx="44.9" cy="38" r="6"/>
		<circle class="st13" cx="44.9" cy="38" r="5.5"/>
	</g>
	<g id="Ellipse_153" transform="translate(355 839)" class="st1">
		<circle class="st16" cx="40.9" cy="34" r="2"/>
		<circle class="st17" cx="40.9" cy="34" r="1.5"/>
	</g>
	<g id="Ellipse_220" transform="translate(338 840)" class="st1">
		<circle class="st16" cx="40.9" cy="34" r="2"/>
		<circle class="st17" cx="40.9" cy="34" r="1.5"/>
	</g>
	<line id="Line_258" class="st20" x1="371.4" y1="866.5" x2="383.4" y2="870.5"/>
	<line id="Line_259" class="st20" x1="391.4" y1="869.5" x2="403.4" y2="865.5"/>
</g>
<g id="Group_3093" transform="translate(-220.2 -1970.701)" class="st0">
	<g id="Mask_Group_27_2_" transform="translate(220.2 1970.701)" class="st1">
		<g id="Group_2956_2_" transform="translate(54.663 63.548)">
			<path class="st12" d="M109.9,41.4v46.2c0,6.7-5.4,12.2-12.2,12.2H41.6C30.2,84.6,25.4,52.2,44,35.9C68,14.9,104.8,38,109.9,41.4z
				"/>
		</g>
	</g>
	<path id="Path_14021" class="st21" d="M327.5,2106c0.7-1.4,1.7-2.6,2.8-3.7c2-1.8,4.5-3,7.1-3.5c3.4-0.8,7-1,10.5-0.3
		c4.1,0.6,8.4,1.2,11.8,4.6c1.7,1.6,2.9,3.7,3.2,6c0.3,3-1.3,6.4-4,7.6c-1.7,0.8-3.9,0.3-8.4-0.8c-4.3-1-5.1-1.8-7.9-1.7
		c-1.8,0.1-3.6,0.4-5.3,1c-2.2,0.8-2.2,1.4-3.6,1.8c-3.1,0.8-7.8-1.3-8.7-4.3C324.6,2110.8,325.7,2109,327.5,2106L327.5,2106z"/>
	<path id="Path_14022" class="st22" d="M333.7,2105.3c-1.1,1-1.9,2.3-2.3,3.7c-0.3,1-0.9,3,0.1,4c1.1,1.2,3.7,0.4,4.5,0.2
		c2.1-0.6,2.1-1.5,4-2c1.6-0.3,3.2-0.3,4.8,0.2c2.2,0.5,2.2,1.2,4.6,1.8c1.5,0.5,3.1,0.5,4.6,0.2c1.2-0.3,2.2-1,2.8-2
		c0.9-1.8-0.1-3.8-0.8-5.2c-0.7-1.7-2-3.2-3.6-4.1c-1.2-0.6-1.9-0.4-6-0.2c-5.6,0.2-5.9-0.1-7.7,0.4
		C336.8,2102.8,335.1,2103.9,333.7,2105.3L333.7,2105.3z"/>
	<path id="Path_14023" class="st23" d="M345.2,2103.1c0,0.6,0.1,1.2,0.4,1.8c0.2,0.7,0.6,1.3,1.2,1.7c0.2,0.2,0.6,0.4,3,0.4
		s2.7-0.3,2.9-0.5c0.3-0.4,0.3-0.9,0.3-2c0-1.5,0-2.2-0.5-2.7s-1.4-0.4-3.2-0.3c-0.8,0-0.9,0.1-1.5,0.1c-1,0-1.3-0.2-1.7,0
		C345.5,2102.1,345.2,2102.6,345.2,2103.1L345.2,2103.1z"/>
	<path id="Path_14024" class="st23" d="M336.2,2103.1c0,0.6,0.1,1.2,0.4,1.8c0.2,0.7,0.6,1.3,1.2,1.7c0.2,0.2,0.6,0.4,3,0.4
		s2.7-0.3,2.9-0.5c0.3-0.4,0.3-0.9,0.3-2c0-1.5,0-2.2-0.5-2.7s-1.4-0.4-3.2-0.3c-0.8,0-0.9,0.1-1.5,0.1c-1,0-1.3-0.2-1.7,0
		C336.5,2102.1,336.2,2102.6,336.2,2103.1L336.2,2103.1z"/>
	<g id="Ellipse_196" transform="translate(297.016 2047.016)" class="st1">
		<circle class="st11" cx="37.5" cy="33.2" r="6"/>
		<circle class="st13" cx="37.5" cy="33.2" r="5.5"/>
	</g>
	<g id="Ellipse_198" transform="translate(318.016 2046.016)" class="st1">
		<circle class="st11" cx="37.5" cy="33.2" r="6"/>
		<circle class="st13" cx="37.5" cy="33.2" r="5.5"/>
	</g>
	<g id="Ellipse_199" transform="translate(321.016 2051.016)" class="st1">
		<circle class="st16" cx="33.5" cy="29.2" r="2"/>
		<circle class="st17" cx="33.5" cy="29.2" r="1.5"/>
	</g>
	<g id="Ellipse_210" transform="translate(302.016 2052.016)" class="st1">
		<circle class="st16" cx="33.5" cy="29.2" r="2"/>
		<circle class="st17" cx="33.5" cy="29.2" r="1.5"/>
	</g>
</g>
<g id="Group_3144" transform="translate(-250.201 -1465.043)" class="st0">
	<g id="Mask_Group_27_4_" transform="translate(250.201 1465.043)" class="st1">
		<g id="Group_2956_4_" transform="translate(58.121 81.15)">
			<path class="st14" d="M106.5,8.4V70c0,6.7-5.4,12.2-12.2,12.2H0.7C-17.4,49.5-18.3,1.2,106.5,8.4z"/>
		</g>
	</g>
	<path id="Path_14008" class="st21" d="M343.6,1608.1c1.8,1.9,3.7,3.7,5.7,5.3c2,1.7,4.2,3.1,6.6,4.3c4.2,1.6,8.7,2,13.1,1.1
		c2.8-0.5,7.9-1.4,11.8-5.4c0.1-0.1,0.6-0.7,1.2-1.4c1-1.1,2.1-2.2,3.2-3.2c1.7-1.7,3.2-3.5,4.4-5.5c3.4-4.8,5.8-8.2,5-9.1
		c-0.9-1-5.3,2.6-10.8,2.9c-1.2,0.1-2.5,0.1-3.7,0c-2.5-0.3-3.4-1.1-6.6-0.3c-2.9,1-5.9,1.7-8.9,2c-0.7,0-1.4,0-2.1,0
		c-2.2-0.2-4.4-0.7-6.5-1.5c-1-0.4-1.1-0.6-1.8-0.9c-1.1-0.5-8.5,0.4-10.1,0.5c-6,0.5-9.5-4.4-10.5-3.3
		C332.4,1594.8,339.4,1603.5,343.6,1608.1L343.6,1608.1z"/>
	<path id="Path_14009" class="st22" d="M351.4,1609.3c-2.8-2.4-2.6-1.6-5-3.8c-0.8-0.7-6.2-5.4-5.3-6.6c0.4-0.6,1.7,0.2,7,0.7
		c3.3,0.3,4.9,0.5,5.2,0.5c0.8-0.1,1.7-0.1,2.5,0.3s1.1,0.9,2.2,1.5c0.4,0.2,0.8,0.4,1.3,0.5c1.9,0.5,4,0.6,6,0.1
		c2.7-0.5,2.8-1.4,5.7-2c1.9-0.3,3.8-0.3,5.7,0.1c5.4,1,10.5-2.9,11.4-1.6c1.1,1.7-6.6,8.7-8.9,10.7c-0.9,0.9-1.9,1.7-3,2.3
		c-2.8,1.5-5.9,2.3-9,2.5c-2.8,0.3-5.6,0-8.2-0.6c-0.4-0.1-0.8-0.2-1.3-0.4C355.3,1612.4,353.2,1611,351.4,1609.3L351.4,1609.3z"/>
	<path id="Path_14010" class="st23" d="M355.7,1610.8c0.1-0.6,0.4-1.1,0.7-1.5c0.4-0.7,1.1-1.1,1.8-1.4c0.7-0.1,1.4,0,2.1,0.2
		c0.8,0.1,1.5,0.4,2.1,0.9c0.4,0.4,0.6,0.9,0.6,1.4c0,0.1,0,0.3,0,0.4c0,0.5-0.1,0.9-0.2,1.4c-0.3,1.1-0.4,1.7-0.5,1.7
		c-0.6,0.8-2.2,0.4-4-0.1c-1.5-0.4-2.4-0.6-2.7-1.3C355.4,1611.9,355.5,1611.3,355.7,1610.8L355.7,1610.8z"/>
	<path id="Path_14011" class="st23" d="M363.8,1614.3c-0.5-0.5-0.1-1.2,0.1-4.2c0.1-0.7,0-0.9,0.3-1.2c0.7-0.8,2.6-0.5,3-0.4
		c0.5,0.1,0.9,0.2,1.3,0.4c0.5,0.1,1,0.4,1.4,0.7c0.4,0.4,0.6,0.8,0.7,1.3c0,0.4-0.1,0.9-0.2,1.3s-0.2,0.8-0.3,1.2
		c-0.3,0.5-0.7,0.8-1.1,1.1c-0.5,0.2-1,0.2-1.5,0.2c-0.8,0-1.6,0-2.4-0.1C364.7,1614.5,364.2,1614.4,363.8,1614.3L363.8,1614.3z"/>
	<path id="Path_14017" class="st23" d="M360.3,1603c-0.2,0.2-0.2,0.7-0.1,1.7c0,0.6,0.2,1.1,0.6,1.5c0.3,0.2,0.6,0.4,0.9,0.5
		c0.6,0.2,1.3,0.3,1.9,0.2c0.5,0,1-0.3,1.4-0.6c0.2-0.2,0.4-0.5,0.5-0.8c0.1-0.4,0-0.6-0.1-1.4c-0.1-0.9,0-0.9-0.2-1.1
		c-0.3-0.3-0.8-0.2-2.4-0.2C361,1602.8,360.6,1602.7,360.3,1603L360.3,1603z"/>
	<g id="Group_3090" transform="translate(336.949 1556.794)" class="st1">
		<g id="Ellipse_182" transform="translate(0.051 0.206)">
			<circle class="st11" cx="14.8" cy="22.2" r="9.5"/>
			<circle class="st13" cx="14.8" cy="22.2" r="8.8"/>
		</g>
		<g id="Ellipse_183" transform="translate(6.051 4.206)">
			<circle class="st16" cx="11" cy="17.5" r="2.9"/>
			<circle class="st17" cx="11" cy="17.5" r="2.2"/>
		</g>
	</g>
	<g id="Group_3091" transform="translate(357.256 1557.606)" class="st1">
		<g id="Ellipse_184" transform="translate(-0.256 0.394)">
			<circle class="st11" cx="24.1" cy="22.7" r="9.5"/>
			<circle class="st13" cx="24.1" cy="22.7" r="8.8"/>
		</g>
		<g id="Ellipse_185" transform="translate(2.744 4.394)">
			<circle class="st16" cx="18.9" cy="17.9" r="2.9"/>
			<circle class="st17" cx="18.9" cy="17.9" r="2.2"/>
		</g>
	</g>
</g>
<g id="Group_3166" transform="translate(-78.482 -1648.043)" class="st0">
	<path id="Path_13929" class="st23" d="M194.6,1789.3c-0.1,0.2,0.1,0.3,0.2,1.2c0.2,1.2,0,1.4,0.3,2.3c0.1,0.5,0.3,1.1,0.6,1.5
		c0.5,0.5,0.8,0.2,2.2,0.3c1.3,0.1,1.4,0.4,1.9,0.2c0.7-0.3,1.3-0.9,1.5-1.6c0.4-0.9,0.8-2.7,0.1-3.7c-0.3-0.4-0.7-0.5-3-0.6
		C195.4,1788.7,194.7,1788.8,194.6,1789.3L194.6,1789.3z"/>
	<path id="Path_13930" class="st23" d="M201.7,1789.8c-0.1,0.1,0,0.1,0,1c0,0.7,0,1.4,0.1,2.1c0,0.5,0.2,0.9,0.5,1.3
		c0.5,0.4,1.1,0.6,1.7,0.5c0.9,0.1,0.9-0.1,2.1-0.1c1.1,0,1.3,0.2,1.6-0.1c0.4-0.3,0.5-0.9,0.6-2c0.1-0.6,0-0.6,0.2-2
		c0.1-1.3,0.1-1.3,0.1-1.5c-0.3-0.6-1.3-0.1-3.6,0.1C203,1789.3,201.9,1789.2,201.7,1789.8L201.7,1789.8z"/>
	<g id="Group_3155" transform="translate(-57 158)" class="st1">
		<g id="Mask_Group_27_3_" transform="translate(135.482 1490.043)">
			<g id="Group_2956_3_" transform="translate(58.045 53.383)">
				<path class="st12" d="M106.6,38.2v59.5c0,6.7-5.4,12.2-12.2,12.2H27.6C0.8,40.7,82.8,4.1,106.6,38.2z"/>
			</g>
		</g>
	</g>
	<g id="Group_3165" transform="translate(148.352 1718.656)" class="st1">
		<g>
			<g>
				<defs>
					<rect id="SVGID_3_" x="24.6" y="28.7" width="49.7" height="53.7"/>
				</defs>
				<clipPath id="SVGID_4_">
					<use xlink:href="#SVGID_3_"  style="overflow:visible;"/>
				</clipPath>
				<g id="Group_3164" transform="translate(0 0)" class="st24">
					<path id="Path_14047" class="st25" d="M34.5,48.8c0,0.6-0.1,1.1-0.3,1.7c-0.4,1-0.7,1.8-1.7,2.1c-0.9,0.2-1.9,0-2.6-0.5
						c-0.7-0.6-1-1.6-0.7-2.5c0.2-0.9,0.9-1.4,2-2c0.8-0.5,2.3-1.5,3.1-1.1C34.7,46.8,34.6,47.6,34.5,48.8"/>
					<path id="Path_14048" class="st25" d="M28.3,49.9c0,0.4-0.1,0.8-0.3,1.2c-0.3,0.7-0.5,1.3-1.2,1.5c-0.6,0.2-1.2,0-1.7-0.3
						c-0.4-0.5-0.6-1.1-0.4-1.7c0.2-0.6,0.7-1,1.3-1.5c0.6-0.4,1.6-1.1,2-0.8C28.4,48.5,28.3,49,28.3,49.9"/>
					<path id="Path_14049" class="st25" d="M27.8,55.4c0,0.3-0.1,0.6-0.2,0.9c-0.2,0.5-0.4,1-0.9,1.2c-0.4,0.1-0.9,0-1.3-0.3
						c-0.3-0.4-0.5-0.9-0.3-1.3c0.1-0.5,0.5-0.7,1-1.1c0.4-0.3,1.2-0.9,1.5-0.6C28,54.3,27.9,54.7,27.8,55.4"/>
					<path id="Path_14050" class="st14" d="M36.3,65.3c-1.4,2.3-2,4.9-1.7,7.6c0,1.8,0.6,3.6,1.7,5c0.7,0.7,1.5,1.3,2.3,1.6
						c2.7,1.5,5.6,2.4,8.6,2.9c1.8,0.2,2,0.1,8.1-0.3c7-0.4,9.9-0.3,12.9-1.9c1.3-0.6,2.4-1.5,3.3-2.6c0.7-0.9,1.3-1.9,1.7-3
						c0.8-1.9,1.1-4,0.9-6.1c-0.4-2.8-1.8-5.3-3.9-7.1c-1.7-1.3-4.4-1.8-9.8-2.7c-1.4-0.2-2.8-0.4-4.3-0.4s-2.9,0-4.4,0.2
						c-2.9,0.3-5.7,1.1-8.4,2.3C39.7,62.4,37.8,63.2,36.3,65.3"/>
					<path id="Path_14051" class="st10" d="M42.7,65c-2.8,0.8-4.4,3.8-3.6,6.6c0,0.1,0,0.1,0.1,0.2c0.6,2.4,2.7,5.3,4.7,5.1
						c1.9-0.2,2.1-2.9,4.1-3.1c1.8-0.2,2.5,2.2,4.4,2c1.8-0.2,1.9-2.5,3.7-2.7c2.1-0.3,3.4,3,5.3,2.6c1.5-0.3,1.5-2.4,3-2.5
						c1.6-0.2,2.4,2.4,3.5,2.1c1.7-0.4,3.2-8.1-0.3-11.2c-1.6-1.2-3.5-2-5.5-2.3c-1.6-0.3-2.2-0.1-6.4,0.3
						c-5.8,0.5-8.4,0.5-11.1,1.9C43.8,64.3,43.2,64.6,42.7,65"/>
					<path id="Path_14052" class="st11" d="M47.6,62.9c3.3-0.7,3.8-0.9,4.3-0.5c0.7,0.5,0.7,1.4,0.8,2.8c0.1,1.5,0.1,2.9-0.9,3.9
						c-1,0.7-2.1,1.1-3.3,1.1c-1,0.3-2.1,0.2-3-0.3c-0.9-0.6-1-1.6-1.2-2.9s-0.4-2.2,0.2-2.9C44.8,63.5,45.2,63.4,47.6,62.9"/>
					<path id="Path_14053" class="st11" d="M54.8,62.1c-0.3,0.3-0.4,1.3-0.1,3.1c0,1,0.4,2,1,2.7c0.4,0.4,0.9,0.7,1.4,0.9
						c0.9,0.4,2,0.5,3,0.3c0.8-0.1,1.6-0.5,2.2-1.1c0.4-0.4,0.6-1,0.7-1.5c0.1-0.9,0-1.8-0.2-2.6c-0.2-1.6,0-1.7-0.3-2
						c-0.5-0.5-1.3-0.3-3.7-0.2C55.9,61.8,55.3,61.6,54.8,62.1"/>
					<path id="Path_14054" class="st11" d="M47.2,39.2c0.2,4.2-3.1,7.7-7.2,7.9c-4.2-0.2-7.4-3.7-7.2-7.9c-0.2-4.2,3.1-7.7,7.2-7.9
						C44.1,31.5,47.3,35,47.2,39.2z"/>
					<path id="Path_14056" class="st11" d="M69.3,36.8c0.2,4.2-3.1,7.7-7.2,7.9c-4.2-0.2-7.4-3.7-7.2-7.9c-0.2-4.2,3.1-7.7,7.2-7.9
						C66.3,29.1,69.5,32.6,69.3,36.8z"/>
				</g>
			</g>
		</g>
	</g>
	<g id="Ellipse_265" transform="matrix(0.995, -0.105, 0.105, 0.995, 158.859, 1726.378)" class="st1">
		<circle class="st16" cx="25.8" cy="35.3" r="2.4"/>
		<circle class="st26" cx="25.8" cy="35.3" r="1.8"/>
	</g>
	<g id="Ellipse_266" transform="matrix(0.995, -0.105, 0.105, 0.995, 176.859, 1724.378)" class="st1">
		<circle class="st16" cx="29.4" cy="35.3" r="2.4"/>
		<circle class="st26" cx="29.4" cy="35.3" r="1.8"/>
	</g>
</g>
<g id="Group_3515" transform="translate(-41.797 -1970.982)" class="st0">
	<g id="Group_3188" transform="translate(41.797 1970.982)" class="st1">
		<g id="Mask_Group_27_5_" transform="translate(0 0)">
			<g id="Group_2956_5_" transform="translate(76.219 78.962)">
				<path class="st12" d="M88.4,18.4v53.8c0,6.7-5.4,12.2-12.2,12.2H1.4c-5-5.9-6.7-14.8-3.9-27.6C0,44.7-1.7,37.4-1,30.5
					c0.1-0.6,0.1-1.1,0.2-1.7c1.1-6.9,5.2-13.9,18.9-25.2C43.4-17.4,77.4,9.8,88.4,18.4z"/>
			</g>
		</g>
	</g>
	<path class="st27" d="M109.8,2077c0.1-0.2,0.2-0.3,0.3-0.5l0,0c0.9-1.6,1.8-3.5,1-5c-1.1-2.2-5-4.2,5.3-30.3
		c9.9-25,43.2-12.2,36.9-66.6"/>
	<path id="Path_14109" class="st27" d="M103.8,2078.9c0.2-0.6,0.8-1,1.4-1c0.5,0.1,0.9,0.5,1,1.1"/>
	<path id="Path_14110" class="st27" d="M115.6,2077.1c-0.3-0.5-1-0.8-1.6-0.5c-0.5,0.3-0.7,0.8-0.6,1.3"/>
	<path id="Path_14111" class="st27" d="M117.9,2081.5c0-0.6-0.5-1.2-1.2-1.2c-0.5,0-1,0.3-1.2,0.8"/>
	<path id="Path_14112" class="st27" d="M103.3,2081.8c-0.3-0.7,0-1.4,0.7-1.7c0.6-0.2,1.2,0,1.6,0.5"/>
	<path id="Path_14113" class="st27" d="M117.4,2079.5c0-0.7-0.5-1.3-1.2-1.4c-0.6,0-1.2,0.4-1.4,0.9"/>
	<path id="Path_14114" class="st28" d="M115.8,2080.9c0.5,2.9-1.5,5.6-4.4,6c-2.9,0.5-5.6-1.5-6-4.4c-0.5-2.9,1.5-5.6,4.4-6l0,0
		C112.6,2076.1,115.3,2078,115.8,2080.9L115.8,2080.9z"/>
	<path id="Path_14117" class="st29" d="M121.4,2094c-0.2,0.4,2.5,3.1,3.6,4.3c1.2,1.4,2.6,2.6,4.1,3.6c2.5,1.7,4.9,2.2,8.4,3.1
		c3.3,0.8,6.7,1.2,10.2,1.3c3.9,0.3,7.9,0.3,11.8,0.2c5.5-0.1,8.3-0.2,11.6-1c3.1-0.6,6.1-1.7,8.8-3.5c2.3-1.5,3.8-3.1,6.4-5.9
		c1-1,4.3-4.7,4-5.2s-3.7,1.9-3.9,2.1c-1.9,1.3-2.4,2.1-3.9,3.2c-1.5,1.2-3.2,2.2-5,2.9c-2.7,1.2-5.5,2-8.4,2.4
		c-2.9,0.6-5.9,0.9-8.8,1.2c-3.4,0.3-6.8,0.4-10.2,0.3c-3.9,0-7.8-0.5-11.6-1.3c-2.8-0.5-5.5-1.4-8.1-2.5
		C124.9,2096.9,121.6,2093.6,121.4,2094L121.4,2094z"/>
	<path id="Path_14118" class="st23" d="M148.3,2106.1c-0.1,0.3,0.1,0.3,0.3,1.4c0.3,1.4,0.1,1.7,0.4,2.8c0.1,0.7,0.4,1.3,0.8,1.8
		c0.6,0.5,1,0.2,2.6,0.3c1.5,0.1,1.6,0.4,2.3,0.2c0.8-0.4,1.4-1.2,1.7-2c0.5-1.2,0.8-3.3-0.1-4.5c-0.4-0.5-0.8-0.6-3.5-0.6
		C149.3,2105.4,148.5,2105.5,148.3,2106.1z"/>
	<path id="Path_14119" class="st23" d="M156.5,2106.1c0,0.2,0,0.2,0.1,1.3c0,0.9,0.2,1.9,0.3,2.8c0.1,0.6,0.3,1.2,0.7,1.6
		c0.5,0.5,1.2,0.7,1.9,0.6c0.8,0,1.5-0.1,2.3-0.2c1.2-0.1,1.5,0.2,1.8-0.2c0.4-0.4,0.5-1.1,0.5-2.6c0-0.7,0-0.7,0-2.6
		c0-1.6,0.1-1.7-0.1-1.9c-0.4-0.7-1.5-0.1-4,0.2C158,2105.5,156.8,2105.3,156.5,2106.1z"/>
	<path id="Path_14124" class="st28" d="M109.3,2082.6c-0.2,0-0.4-0.1-0.4-0.3s0.1-0.4,0.3-0.4c0.2,0,0.4,0.1,0.4,0.3l0,0
		C109.6,2082.4,109.5,2082.6,109.3,2082.6L109.3,2082.6z"/>
	<path id="Path_14125" class="st28" d="M112.6,2082.1c-0.2,0-0.4-0.1-0.4-0.3s0.1-0.4,0.3-0.4c0.2,0,0.4,0.1,0.4,0.3l0,0
		C112.9,2081.9,112.8,2082,112.6,2082.1L112.6,2082.1z"/>
	<g id="Ellipse_190" transform="translate(137 2081)" class="st1">
		<circle class="st11" cx="2.1" cy="1.8" r="6"/>
		<circle class="st13" cx="2.1" cy="1.8" r="5.5"/>
	</g>
	<g id="Ellipse_273" transform="translate(160 2077)" class="st1">
		<circle class="st11" cx="2.1" cy="1.8" r="6"/>
		<circle class="st13" cx="2.1" cy="1.8" r="5.5"/>
	</g>
	<g id="Ellipse_191" transform="translate(139 2085)" class="st1">
		<circle class="st16" cx="-1.9" cy="-2.2" r="2"/>
		<circle class="st17" cx="-1.9" cy="-2.2" r="1.5"/>
	</g>
	<g id="Ellipse_272" transform="translate(162 2081)" class="st1">
		<circle class="st16" cx="-1.9" cy="-2.2" r="2"/>
		<circle class="st17" cx="-1.9" cy="-2.2" r="1.5"/>
	</g>
</g>
<g id="Group_3517" transform="translate(-73.201 -2177.491)">
	<g id="Group_3194" transform="translate(-149.428 1237.572)">
		<g id="Mask_Group_27_6_" transform="translate(222.629 939.919)">
			<g id="Group_2956_6_" transform="translate(44.51 59.184)">
				<path class="st30" d="M120.1,56.9v35c0,6.7-5.4,12.2-12.2,12.2H24.7c-1.3-7-0.8-18.3,2.1-36.5C36.2,9.1,90.2,37.6,120.1,56.9z"
					/>
			</g>
		</g>
	</g>
	<g>
		<g>
			<defs>
				<rect id="SVGID_5_" x="313.5" y="4471.7" width="52.9" height="85.1"/>
			</defs>
			<clipPath id="SVGID_6_">
				<use xlink:href="#SVGID_5_"  style="overflow:visible;"/>
			</clipPath>
			<g id="Group_3192" transform="translate(145 2231)" class="st31">
				<path id="Path_14133" class="st32" d="M36.5,60.1c0,2.8-2.2,5.2-5.1,5.2c-2.9-0.1-5.2-2.5-5.1-5.4c0.1-2.8,2.3-5,5.1-5.1
					C34.3,54.9,36.6,57.3,36.5,60.1z"/>
				<path id="Path_14134" class="st32" d="M52.1,58.5c-0.1,2.8-2.4,5-5.2,5c-2.8-0.1-5-2.4-5-5.2c0.1-2.8,2.3-5,5.1-5
					C49.9,53.3,52.1,55.7,52.1,58.5L52.1,58.5z"/>
				<path id="Path_14126" class="st5" d="M54.8,47.4c1.5-5.1,2.8-11.2-0.8-15c-3.1,2.3-7,3.2-10.8,2.5c-0.4-0.1-1-0.3-1-0.7
					s0.4-0.7,0.7-0.8c2.4-0.8,5,0.4,5.9,2.8c0.1,0.2,0.1,0.4,0.2,0.6c0.1,1.1-0.8,2.5-1.7,1.9c3-2.1,7-1.5,9.2,1.4
					c-0.5-1.3,1.2-2.5,2.6-2.2s2.2,1.6,3,2.7c-1.1-4.5-2.9-8.8-5.3-12.7c-0.5-1-1.3-1.8-2.2-2.5c-1.3-0.7-2.8-1-4.3-0.9
					c-2.3,0-4.8,0.3-6.6,1.8c-0.6,0.4-1,1-1.2,1.7c-0.1,1.2,0.5,2.3,1.5,2.9c1.1,0.5,2.2,0.8,3.4,0.8c0.5-1.2,0.7-2.5,0.3-3.7
					c-1-0.2-1.7,1-1.5,2c0.3,0.9,1,1.7,1.9,2.1c1.7,1,3.7,1.6,5.7,1.8c-0.1-1.3-0.4-2.6-0.9-3.8c0.2,1,0.7,2,1.3,2.9
					c-0.1-1,0-1.9,0.5-2.8c0.5-0.8,1.6-1.1,2.4-0.6c0,0,0.1,0,0.1,0.1c-1.7,0-2.7-2.6-1.4-3.7s3.7,0.5,3.2,2.1
					c-0.1,0.3-0.3,0.6-0.7,0.7c-0.3,0-0.6-0.1-0.8-0.3c-2.1-1.7-3.1-4.4-2.6-7.1c2-0.1,4.2-0.1,6,0.8s3.2,3.1,2.5,5
					c2.9,1.3,5.5,2.9,8,4.8c-1.4,0.2-2.8,0.7-4.1,1.4c-1.3,0.8-1.9,2.2-1.7,3.7c-1.7,0.3-3.2-1.1-4.4-2.3c-3.3-3-7.2-5.3-11.5-6.6
					c-0.5-0.2-1.1-0.2-1.6,0.1c-0.4,0.4-0.1,1.3,0.4,1.1"/>
				<path id="Path_14127" class="st2" d="M26.6,77.9c-0.5,0.6-1,1.3-1.5,2c-0.7,1-1.2,2.1-1.5,3.3c-0.5,2.1-0.2,4.3,1,6.1
					c0.9,1,1.9,1.8,3.1,2.4c0.2,0.2,0.8,0.5,1.5,0.9c0.8,0.5,1.7,0.9,2.6,1.2c1.2,0.4,2.4,0.7,3.6,0.8c0.6,0.1,1.4,0.1,2.9,0.2
					c1.6,0.1,2.5,0.1,3.4,0.1c1.8,0,3.6-0.1,5.4-0.3c1.3-0.1,2.5-0.3,3.8-0.6c0.2,0,0.6-0.1,1.2-0.3c1.1-0.2,2.1-0.6,3.2-1.1
					c1-0.5,1.9-1.2,2.6-2c0.8-0.7,1.5-1.5,2-2.4s0.8-1.9,1-2.9c0.4-2.7,0.7-4.1,0.4-5.5C60.5,76,57,73.9,55.7,73
					c-1.8-1.2-4-1.9-6.2-2c-3,0-3.4,1.4-6.7,1.9c-4.8,0.7-5.6-2-9.1-0.8C33.5,72.1,31,73,26.6,77.9"/>
				<path id="Path_14128" class="st10" d="M33.7,77.7c-1.2,0.8-2.2,1.7-3.1,2.9c-1.3,1.8-1.7,4-1.2,6.1c0.7,2.2,2.8,4.2,4,3.8
					c0.7-0.2,0.5-1,1.6-2.4c0.9-1.1,2.1-2,3.4-2.5c0.9-0.4,1.2-0.3,4.5-0.6c4.7-0.3,5.1-0.5,6.4-0.2c1.2,0.4,2.4,0.8,3.5,1.5
					c2.8,1.4,3.1,2,3.7,1.7c1.8-0.7,2.2-8.4-1.3-11.1c-1.4-1-3.1-1.7-4.8-2c-1.4-0.2-1.9-0.1-5.6,0.3c-4.9,0.4-6.7,0.2-9.7,1.7
					C34.7,77.1,34.2,77.4,33.7,77.7"/>
				<path id="Path_14129" class="st11" d="M38,75.9c2.9-0.6,3.3-0.8,3.7-0.5c0.6,0.4,0.6,1.2,0.7,2.4c0.1,1.3,0.1,2.5-0.8,3.4
					c-0.8,0.6-1.9,1-2.9,0.9c-0.9,0.2-1.8,0.1-2.7-0.3c-0.8-0.5-0.9-1.4-1.1-2.6c-0.2-1.1-0.3-1.9,0.2-2.6
					C35.5,76.4,35.9,76.3,38,75.9"/>
				<path id="Path_14130" class="st11" d="M44.3,75.2c-0.3,0.3-0.3,1.1-0.1,2.7c0,0.9,0.3,1.7,0.8,2.4c0.3,0.4,0.8,0.6,1.2,0.8
					c0.8,0.3,1.7,0.4,2.6,0.3c0.7-0.1,1.4-0.4,2-1c0.3-0.4,0.6-0.8,0.7-1.3c0.1-0.8,0-1.6-0.2-2.3c-0.2-1.4,0-1.5-0.3-1.8
					c-0.4-0.5-1.1-0.3-3.2-0.2C45.2,74.9,44.8,74.7,44.3,75.2"/>
				<path id="Path_14131" class="st33" d="M49.1,58.5c0.1,1.1-0.7,2.2-1.9,2.3C46,60.9,45,60,44.9,58.9s0.7-2.2,1.9-2.3
					c0.1,0,0.1,0,0.2,0C48.1,56.6,49,57.4,49.1,58.5"/>
				<path id="Path_14132" class="st33" d="M33.5,60.1c-0.1,1.1-1,1.9-2.1,1.9c-1,0.1-2-0.7-2.1-1.7s0.7-2,1.7-2.1c0.1,0,0.3,0,0.4,0
					C32.5,58.2,33.4,59,33.5,60.1"/>
			</g>
		</g>
	</g>
</g>
<g>
	<defs>
		<rect id="SVGID_7_" x="91.7" y="63.5" width="52.9" height="85.1"/>
	</defs>
	<clipPath id="SVGID_8_">
		<use xlink:href="#SVGID_7_"  style="overflow:visible;"/>
	</clipPath>
	<g id="Group_3192_1_" transform="translate(0 19)" class="st34">
		<path id="Path_14133_1_" class="st32" d="M104.7,94.9c0,2.8-2.2,5.2-5.1,5.2c-2.9-0.1-5.2-2.5-5.1-5.4c0.1-2.8,2.3-5,5.1-5.1
			C102.5,89.7,104.8,92,104.7,94.9z"/>
		<path id="Path_14134_1_" class="st32" d="M120.3,93.3c-0.1,2.8-2.4,5-5.2,5s-5-2.4-5-5.2c0.1-2.8,2.3-5,5.1-5
			C118.1,88.1,120.4,90.4,120.3,93.3C120.3,93.3,120.3,93.3,120.3,93.3z"/>
		<path id="Path_14126_1_" class="st5" d="M123,82.2c1.5-5.1,2.8-11.2-0.8-15c-3.1,2.3-7,3.2-10.8,2.5c-0.4-0.1-1-0.3-1-0.7
			c0-0.4,0.4-0.7,0.7-0.8c2.4-0.8,5,0.4,5.9,2.8c0.1,0.2,0.1,0.4,0.2,0.6c0.1,1.1-0.8,2.5-1.7,1.9c3-2.1,7-1.5,9.2,1.4
			c-0.5-1.3,1.2-2.5,2.6-2.2s2.2,1.6,3,2.7c-1.1-4.5-2.9-8.8-5.3-12.7c-0.5-1-1.3-1.8-2.1-2.5c-1.3-0.7-2.8-1-4.3-0.9
			c-2.3,0-4.8,0.3-6.6,1.8c-0.6,0.4-1,1-1.2,1.7c-0.1,1.2,0.5,2.3,1.5,2.9c1.1,0.5,2.2,0.8,3.4,0.8c0.5-1.2,0.7-2.5,0.3-3.7
			c-1-0.2-1.7,1-1.5,2c0.3,0.9,1,1.7,1.9,2.1c1.7,1,3.7,1.6,5.7,1.8c-0.1-1.3-0.4-2.6-0.9-3.8c0.2,1,0.7,2,1.3,2.9
			c-0.1-1,0-1.9,0.5-2.8c0.5-0.8,1.6-1.1,2.4-0.6c0,0,0.1,0,0.1,0.1c-1.7,0-2.7-2.6-1.4-3.7c1.3-1.1,3.7,0.5,3.2,2.1
			c-0.1,0.3-0.3,0.6-0.7,0.7c-0.3,0-0.6-0.1-0.8-0.3c-2.1-1.7-3.1-4.4-2.6-7.1c2-0.1,4.2-0.1,6,0.8c1.8,0.9,3.2,3.1,2.5,5
			c2.9,1.3,5.5,2.9,8,4.8c-1.4,0.2-2.8,0.7-4,1.4c-1.3,0.8-1.9,2.2-1.7,3.7c-1.7,0.3-3.2-1.1-4.4-2.3c-3.3-3-7.2-5.3-11.5-6.6
			c-0.5-0.2-1.1-0.2-1.6,0.1c-0.4,0.4-0.1,1.3,0.4,1.1"/>
		<path id="Path_14127_1_" class="st2" d="M94.9,112.7c-0.5,0.6-1,1.3-1.5,2c-0.7,1-1.2,2.1-1.5,3.3c-0.5,2.1-0.2,4.3,1,6.1
			c0.9,1,1.9,1.8,3.1,2.4c0.2,0.2,0.8,0.5,1.5,0.9c0.8,0.5,1.7,0.9,2.6,1.2c1.2,0.4,2.4,0.7,3.6,0.8c0.6,0.1,1.4,0.1,2.9,0.2
			c1.6,0.1,2.5,0.1,3.4,0.1c1.8,0,3.6-0.1,5.4-0.3c1.3-0.1,2.5-0.3,3.8-0.6c0.2,0,0.6-0.1,1.2-0.3c1.1-0.2,2.1-0.6,3.2-1.1
			c1-0.5,1.9-1.2,2.6-2c0.8-0.7,1.5-1.5,2-2.4c0.5-0.9,0.8-1.9,1-2.9c0.4-2.7,0.7-4.1,0.4-5.5c-0.8-3.8-4.3-5.9-5.6-6.8
			c-1.8-1.2-4-1.9-6.2-2c-3,0-3.4,1.4-6.7,1.9c-4.8,0.7-5.6-2-9.1-0.8C101.8,106.9,99.2,107.7,94.9,112.7"/>
		<path id="Path_14128_1_" class="st10" d="M101.9,112.4c-1.2,0.8-2.2,1.7-3.1,2.9c-1.3,1.8-1.7,4-1.2,6.1c0.7,2.2,2.8,4.2,4,3.8
			c0.7-0.2,0.5-1,1.6-2.4c0.9-1.1,2.1-2,3.4-2.5c0.9-0.4,1.2-0.3,4.5-0.6c4.7-0.3,5.1-0.5,6.4-0.2c1.2,0.4,2.4,0.8,3.5,1.5
			c2.8,1.4,3.1,2,3.7,1.7c1.8-0.7,2.2-8.4-1.3-11.1c-1.4-1-3.1-1.7-4.8-2c-1.4-0.2-1.9-0.1-5.6,0.3c-4.9,0.4-6.7,0.2-9.7,1.7
			C102.9,111.8,102.4,112.1,101.9,112.4"/>
		<path id="Path_14129_1_" class="st11" d="M106.2,110.6c2.9-0.6,3.3-0.8,3.7-0.5c0.6,0.4,0.6,1.2,0.7,2.4c0.1,1.3,0.1,2.5-0.8,3.4
			c-0.8,0.6-1.9,1-2.9,0.9c-0.9,0.2-1.8,0.1-2.7-0.3c-0.8-0.5-0.9-1.4-1.1-2.6c-0.2-1.1-0.3-1.9,0.2-2.6
			C103.7,111.1,104.1,111.1,106.2,110.6"/>
		<path id="Path_14130_1_" class="st11" d="M112.6,110c-0.3,0.3-0.3,1.1-0.1,2.7c0,0.9,0.3,1.7,0.8,2.4c0.3,0.4,0.8,0.6,1.2,0.8
			c0.8,0.3,1.7,0.4,2.6,0.3c0.7-0.1,1.4-0.4,2-1c0.3-0.4,0.6-0.8,0.7-1.3c0.1-0.8,0-1.6-0.2-2.3c-0.2-1.4,0-1.5-0.3-1.8
			c-0.4-0.5-1.1-0.3-3.2-0.2C113.5,109.7,113,109.5,112.6,110"/>
		<path id="Path_14131_1_" class="st33" d="M117.3,93.3c0.1,1.1-0.7,2.2-1.9,2.3s-2.2-0.7-2.3-1.9s0.7-2.2,1.9-2.3
			c0.1,0,0.1,0,0.2,0C116.3,91.3,117.3,92.2,117.3,93.3"/>
		<path id="Path_14132_1_" class="st33" d="M101.7,94.9c-0.1,1.1-1,1.9-2.1,1.9c-1,0.1-2-0.7-2.1-1.7c-0.1-1,0.7-2,1.7-2.1
			c0.1,0,0.3,0,0.4,0C100.7,92.9,101.7,93.8,101.7,94.9"/>
	</g>
</g>
</svg>
