<svg id="Layer_1" data-name="Layer 1" xmlns="http://www.w3.org/2000/svg" xmlns:xlink="http://www.w3.org/1999/xlink" viewBox="0 0 167 167"><defs><style>.cls-1,.cls-10,.cls-4{fill:none;}.cls-2{fill:#8ecae6;}.cls-3{clip-path:url(#clip-path);}.cls-4{stroke:#161615;stroke-miterlimit:10;stroke-width:0.5px;}.cls-5{fill:#fbfbfb;}.cls-6{fill:#219ebc;}.cls-7{fill:#161615;}.cls-8{fill:#fff;}.cls-9{fill:#342326;}.cls-10{stroke:#342326;}</style><clipPath id="clip-path"><rect class="cls-1" x="80.61" y="74.2" width="69" height="70.3" transform="translate(-32.58 51.08) rotate(-22)"/></clipPath></defs><g id="Group_3518" data-name="Group 3518"><g id="Group_3183" data-name="Group 3183"><g id="Group_3154" data-name="Group 3154"><g id="Mask_Group_27" data-name="Mask Group 27"><g id="Group_2956" data-name="Group 2956"><path class="cls-2" d="M167,123.6v31.2A12.18,12.18,0,0,1,154.8,167H77.5c1-6.7,3-15.9,5.9-28.2C101.7,63.1,142.6,105.9,167,123.6Z"/></g></g></g><g id="Group_3181" data-name="Group 3181"><g class="cls-3"><g id="Group_3180" data-name="Group 3180"><path id="Path_14086" data-name="Path 14086" class="cls-4" d="M89.34,95.26a4.71,4.71,0,0,0-.7-3.63c-1.35-1.68-3.74-.91-4.85-2.42-.57-.81-.83-2.18.26-4.94"/><path id="Path_14087" data-name="Path 14087" class="cls-4" d="M137.75,105.82a4.59,4.59,0,0,0,3.48-1c1.53-1.53.58-3.79,2-5.07.69-.65,2.15-1,5-.15"/><path id="Path_14088" data-name="Path 14088" class="cls-4" d="M131.61,102a5.25,5.25,0,0,0,2.94-2.2c.95-1.92-.85-3.81.06-5.41.44-.9,1.6-1.74,4.62-1.92"/><path id="Path_14089" data-name="Path 14089" class="cls-4" d="M125.55,99.12a4.57,4.57,0,0,0,2.19-2.87c.4-2.11-1.79-3.42-1.42-5.22.22-1,1-2,3.88-3.1"/><path id="Path_14090" data-name="Path 14090" class="cls-4" d="M117,99.35a4.79,4.79,0,0,0,1.4-3.33c-.23-2.19-2.6-2.85-2.74-4.66-.1-1,.48-2.23,3-3.94"/><path id="Path_14091" data-name="Path 14091" class="cls-4" d="M133.25,86.32a4.59,4.59,0,0,0,2.19-2.87c.4-2.12-1.79-3.43-1.43-5.23.23-1,1-2,3.89-3.09"/><path id="Path_14092" data-name="Path 14092" class="cls-4" d="M110.75,86.92a4.75,4.75,0,0,0,.72-3.6c-.61-2.12-3.1-2.35-3.54-4.1-.29-1,0-2.35,2.2-4.4"/><path id="Path_14093" data-name="Path 14093" class="cls-4" d="M109.57,100.8a5,5,0,0,0-.49-3.57c-1.26-1.79-3.68-1.12-4.69-2.65-.56-.81-.73-2.21.58-4.9"/><path id="Path_14094" data-name="Path 14094" class="cls-4" d="M99.84,106.26a4.48,4.48,0,0,0-.4-3.59c-1.26-1.79-3.7-1.22-4.71-2.75-.56-.81-.73-2.2.58-4.9"/><path id="Path_14095" data-name="Path 14095" class="cls-4" d="M92.8,116.69a5,5,0,0,0-3.11-1.84c-2.16-.09-3.15,2.14-5,2-.94-.13-2.19-.8-3.53-3.49"/><path id="Path_14096" data-name="Path 14096" class="cls-4" d="M93.6,110.32a4.71,4.71,0,0,0-1.93-3.09c-1.85-1.16-3.78.44-5.39-.48-.82-.55-1.56-1.73-1.52-4.69"/><path id="Path_14097" data-name="Path 14097" class="cls-5" d="M112,114.48a4.7,4.7,0,1,1-5.51-3.71h0a4.69,4.69,0,0,1,5.51,3.71Z"/><path id="Path_14098" data-name="Path 14098" class="cls-5" d="M125.45,110.65a4.8,4.8,0,0,1-9.43,1.84,4.87,4.87,0,0,1,3.8-5.63A4.8,4.8,0,0,1,125.45,110.65Z"/><path id="Path_14101" data-name="Path 14101" class="cls-6" d="M103.43,134.19a12.71,12.71,0,0,0-.88,3.33c-.31,2.09-.49,3.76.44,5.41a5.85,5.85,0,0,0,2.71,2.43,7.93,7.93,0,0,0,3.18.6,10.8,10.8,0,0,0,3.59-.39,10.17,10.17,0,0,0,2.34-1.07,21.09,21.09,0,0,1,2.44-1.08,25.14,25.14,0,0,1,4.69-1c2.16-.42,2.14-.52,3.44-.67.19,0,1-.09,2-.19.8-.05,1.49-.19,2.29-.24a8.48,8.48,0,0,0,1.46-.38,6.91,6.91,0,0,0,2.53-1.62,7.27,7.27,0,0,0,1.91-3.83,11.38,11.38,0,0,0,.48-5.9,7.19,7.19,0,0,0-1.39-3c-2.69-3.35-8.66-2.6-11.54-2.24a75.21,75.21,0,0,0-7.35,2c-6.17,1.81-8.33,2.74-10.11,4.61a10.47,10.47,0,0,0-2.23,3.19"/><path id="Path_14102" data-name="Path 14102" class="cls-7" d="M109,132.59a16.09,16.09,0,0,0-2.39,3.42c-1.66,2.46-1.76,2.48-1.94,3.13a3.89,3.89,0,0,0,1,3.37,4.12,4.12,0,0,0,2.72,1.41c.82,0,1.28-.25,3.89-1.47a33,33,0,0,1,3.58-1.51,31.77,31.77,0,0,1,4.22-.82c2.77-.44,4.47-.56,5.75-.81,5.85-.83,6.28-1.22,6.62-1.59,1.64-2.05.5-5.3.11-6.24a7.29,7.29,0,0,0-2.88-3.82,7.72,7.72,0,0,0-5-1.07c-1.41.07-1.88.27-5.34,1.35-4.81,1.44-7,1.86-9,3.48l-1.3,1.17"/><path id="Path_14103" data-name="Path 14103" class="cls-8" d="M124.35,139.59c2.88-.35,3.39-.35,3.71-.82s.24-1.37-.09-2.53-.67-2.42-1.8-3a4.47,4.47,0,0,0-3,.08,4,4,0,0,0-2.44,1.09c-.57.72-.4,1.6-.17,2.78a3.77,3.77,0,0,0,1,2.36c.38.34.77.26,2.87.05"/><path id="Path_14104" data-name="Path 14104" class="cls-8" d="M114.1,141.38c-.35-.23-.5-1-.61-2.63a4.15,4.15,0,0,1,.32-2.51,2.57,2.57,0,0,1,1-1,5.58,5.58,0,0,1,2.49-.79,2.91,2.91,0,0,1,2.06.62,3.15,3.15,0,0,1,.84,1.16,5.86,5.86,0,0,1,.24,2.29c.07,1.42.29,1.48,0,1.83-.3.57-1,.5-3.1.81-2.5.28-2.85.55-3.32.23"/><path id="Path_14105" data-name="Path 14105" class="cls-8" d="M112.55,130.27c-.16.24-.06.73.44,1.75a3.13,3.13,0,0,0,1,1.34,3.87,3.87,0,0,0,1,.32,3.42,3.42,0,0,0,2-.38,3.87,3.87,0,0,0,1.24-1,1.45,1.45,0,0,0,.22-1c0-.41-.11-.58-.48-1.43s-.27-.86-.51-1-.8,0-2.35.46c-1.93.57-2.34.55-2.48.88"/><path id="Path_14106" data-name="Path 14106" class="cls-8" d="M123.1,126.9c.24.16.43.63.62,1.61a2.29,2.29,0,0,1-.09,1.65,1.56,1.56,0,0,1-.67.74,4.06,4.06,0,0,1-1.77.85,2.64,2.64,0,0,1-1.55-.1,1.62,1.62,0,0,1-.74-.67c-.27-.36-.21-.57-.38-1.46s-.27-.86-.23-1.18c.24-.35.73-.44,2.26-1,1.85-.46,2.2-.73,2.55-.49"/></g></g></g><g id="Ellipse_270" data-name="Ellipse 270"><circle class="cls-9" cx="109.07" cy="114.96" r="1.5"/><circle class="cls-10" cx="109.07" cy="114.96" r="1"/></g><g id="Ellipse_271" data-name="Ellipse 271"><circle class="cls-9" cx="118.69" cy="112.07" r="1.5"/><circle class="cls-10" cx="118.69" cy="112.07" r="1"/></g></g></g></svg>