<svg id="Layer_1" data-name="Layer 1" xmlns="http://www.w3.org/2000/svg" viewBox="0 0 376 138"><defs><style>.cls-1{fill:#023047;}.cls-2{fill:#fbfbfb;}</style></defs><g id="Group_3530" data-name="Group 3530"><g id="Group_3290" data-name="Group 3290"><rect id="pexels-photo-5017023" class="cls-1" width="376" height="138"/></g><path id="Path_14371" data-name="Path 14371" class="cls-2" d="M212.2,48.1H164.42a6.52,6.52,0,0,0-6.52,6.52V85a6.52,6.52,0,0,0,6.52,6.52H212.2A6.52,6.52,0,0,0,218.72,85V54.62A6.52,6.52,0,0,0,212.2,48.1ZM214.37,85a2.18,2.18,0,0,1-2.17,2.18H164.42A2.19,2.19,0,0,1,162.24,85V83.75l8.69-8.69,7.15,7.16a2.2,2.2,0,0,0,3.08,0l18-18,15.2,15.2V85Zm0-11.75L200.7,59.6a2.17,2.17,0,0,0-3.07,0l-18,18-7.15-7.15a2.17,2.17,0,0,0-3.07,0l-7.16,7.15v-23a2.19,2.19,0,0,1,2.18-2.18H212.2a2.18,2.18,0,0,1,2.17,2.18Z" transform="translate(0 0)"/></g></svg>