<svg xmlns="http://www.w3.org/2000/svg" width="73.624" height="70.118" viewBox="0 0 73.624 70.118">
  <g id="books" transform="translate(0 -12)">
    <g id="Group_2870" data-name="Group 2870" transform="translate(4.643 56.408)">
      <path id="Path_13677" data-name="Path 13677" d="M97.225,339.373H42.445a10.664,10.664,0,0,1-10.664-10.664v-2.045A10.664,10.664,0,0,1,42.445,316h54.78Z" transform="translate(-31.781 -316)" fill="#ffebb7"/>
    </g>
    <g id="Group_2871" data-name="Group 2871" transform="translate(6.98 58.745)">
      <rect id="Rectangle_2346" data-name="Rectangle 2346" width="5.843" height="18.698" transform="translate(0 0)" fill="#5c546a"/>
    </g>
    <g id="Group_2872" data-name="Group 2872" transform="translate(2.305 36.541)">
      <path id="Path_13678" data-name="Path 13678" d="M78.011,196.361H15.781V180h62.23a3.214,3.214,0,0,1,3.214,3.214v9.933A3.214,3.214,0,0,1,78.011,196.361Z" transform="translate(-15.781 -180)" fill="#ffebb7"/>
    </g>
    <g id="Group_2873" data-name="Group 2873" transform="translate(10.486 15.506)">
      <rect id="Rectangle_2347" data-name="Rectangle 2347" width="59.6" height="17.53" transform="translate(0 0)" fill="#ffebb7"/>
    </g>
    <g id="Group_2874" data-name="Group 2874" transform="translate(2.337 54.071)">
      <path id="Path_13679" data-name="Path 13679" d="M83.781,328.047H30.024a14.024,14.024,0,1,1,0-28.047H83.781a2.337,2.337,0,0,1,0,4.675H30.024a9.349,9.349,0,1,0,0,18.7H83.781a2.337,2.337,0,1,1,0,4.675Z" transform="translate(-16 -300)" fill="#00c37a"/>
    </g>
    <g id="Group_2876" data-name="Group 2876" transform="translate(0 35.373)">
      <g id="Group_2875" data-name="Group 2875" transform="translate(0 0)">
        <path id="Path_13680" data-name="Path 13680" d="M63.106,190.7H1.169a1.169,1.169,0,0,1,0-2.337H63.106a3.51,3.51,0,0,0,3.506-3.506v-7.012a3.51,3.51,0,0,0-3.506-3.506H1.169a1.169,1.169,0,1,1,0-2.337H63.106a5.85,5.85,0,0,1,5.843,5.843v7.012A5.85,5.85,0,0,1,63.106,190.7Z" transform="translate(0 -172)" fill="#009bca"/>
      </g>
    </g>
    <g id="Group_2877" data-name="Group 2877" transform="translate(15.16 19.012)">
      <path id="Path_13681" data-name="Path 13681" d="M158.707,62.337H104.95a1.169,1.169,0,0,1-1.169-1.169h0A1.169,1.169,0,0,1,104.95,60h53.757Z" transform="translate(-103.781 -60)" fill="#e6be94"/>
    </g>
    <g id="Group_2878" data-name="Group 2878" transform="translate(15.16 23.686)">
      <path id="Path_13682" data-name="Path 13682" d="M158.707,94.337H104.95a1.169,1.169,0,0,1-1.169-1.169h0A1.169,1.169,0,0,1,104.95,92h53.757Z" transform="translate(-103.781 -92)" fill="#e6be94"/>
    </g>
    <g id="Group_2879" data-name="Group 2879" transform="translate(15.16 28.361)">
      <path id="Path_13683" data-name="Path 13683" d="M158.707,126.337H104.95a1.169,1.169,0,0,1-1.169-1.169h0A1.169,1.169,0,0,1,104.95,124h53.757Z" transform="translate(-103.781 -124)" fill="#e6be94"/>
    </g>
    <g id="Group_2880" data-name="Group 2880" transform="translate(2.305 40.047)">
      <path id="Path_13684" data-name="Path 13684" d="M15.781,204H76.55a1.169,1.169,0,0,1,1.169,1.169h0a1.169,1.169,0,0,1-1.169,1.169H15.781Z" transform="translate(-15.781 -204)" fill="#e6be94"/>
    </g>
    <g id="Group_2881" data-name="Group 2881" transform="translate(2.305 44.722)">
      <path id="Path_13685" data-name="Path 13685" d="M15.781,236H76.55a1.169,1.169,0,0,1,1.169,1.169h0a1.169,1.169,0,0,1-1.169,1.169H15.781Z" transform="translate(-15.781 -236)" fill="#e6be94"/>
    </g>
    <g id="Group_2882" data-name="Group 2882" transform="translate(2.305 49.396)">
      <path id="Path_13686" data-name="Path 13686" d="M15.781,268H76.55a1.169,1.169,0,0,1,1.169,1.169h0a1.169,1.169,0,0,1-1.169,1.169H15.781Z" transform="translate(-15.781 -268)" fill="#e6be94"/>
    </g>
    <g id="Group_2883" data-name="Group 2883" transform="translate(8.18 12)">
      <path id="Path_13687" data-name="Path 13687" d="M119.106,35.373H63.012A7.019,7.019,0,0,1,56,28.361V19.012A7.019,7.019,0,0,1,63.012,12h56.094a2.337,2.337,0,0,1,0,4.675H63.012a2.34,2.34,0,0,0-2.337,2.337v9.349A2.34,2.34,0,0,0,63.012,30.7h56.094a2.337,2.337,0,0,1,0,4.675Z" transform="translate(-56 -12)" fill="#ff4f19"/>
    </g>
    <g id="Group_2884" data-name="Group 2884" transform="translate(15.16 75.106)">
      <path id="Path_13688" data-name="Path 13688" d="M104.95,444a1.169,1.169,0,1,0,0,2.337h53.757V444Z" transform="translate(-103.781 -444)" fill="#e6be94"/>
    </g>
    <g id="Group_2885" data-name="Group 2885" transform="translate(15.16 70.432)">
      <path id="Path_13689" data-name="Path 13689" d="M104.95,412a1.169,1.169,0,0,0,0,2.337h53.757V412Z" transform="translate(-103.781 -412)" fill="#e6be94"/>
    </g>
    <g id="Group_2886" data-name="Group 2886" transform="translate(15.16 65.757)">
      <path id="Path_13690" data-name="Path 13690" d="M104.95,380a1.169,1.169,0,1,0,0,2.337h53.757V380Z" transform="translate(-103.781 -380)" fill="#e6be94"/>
    </g>
    <g id="Group_2887" data-name="Group 2887" transform="translate(15.16 61.083)">
      <path id="Path_13691" data-name="Path 13691" d="M104.95,348a1.169,1.169,0,1,0,0,2.337h53.757V348Z" transform="translate(-103.781 -348)" fill="#e6be94"/>
    </g>
  </g>
</svg>
