<svg id="Layer_1" data-name="Layer 1" xmlns="http://www.w3.org/2000/svg" viewBox="0 0 167 167"><defs><style>.cls-1{fill:#fb8500;}.cls-2{fill:#fff;}.cls-3,.cls-6{fill:none;}.cls-3{stroke:#fff;}.cls-4{fill:#fcb704;}.cls-5{fill:#342326;}.cls-6{stroke:#342326;}</style></defs><g id="Group_3145" data-name="Group 3145"><g id="Mask_Group_27" data-name="Mask Group 27"><g id="Group_2956" data-name="Group 2956"><path class="cls-1" d="M167,106.8v48a12.18,12.18,0,0,1-12.2,12.2h-54.4c-9.7-17.5-10.2-55.4,10.8-69.6C135.67,80.9,159.17,100.5,167,106.8Z"/></g></g><g id="Ellipse_204" data-name="Ellipse 204"><circle class="cls-2" cx="119.92" cy="114.8" r="6"/><circle class="cls-3" cx="119.92" cy="114.8" r="5.5"/></g><g id="Ellipse_205" data-name="Ellipse 205"><ellipse class="cls-2" cx="138.42" cy="116.8" rx="6.5" ry="6"/><ellipse class="cls-3" cx="138.42" cy="116.8" rx="6" ry="5.5"/></g><path id="Path_13845" data-name="Path 13845" class="cls-4" d="M106.72,139.9c-.2-.1,0-1.2.1-1.6a6.7,6.7,0,0,1,1.6-2.7,10.54,10.54,0,0,1,3.9-2.7,21.45,21.45,0,0,1,5-1.2,43,43,0,0,1,6.2-.4c3.1-.1,5.4,0,7.2.1a43.73,43.73,0,0,1,7.2.6,35.85,35.85,0,0,1,5.6,1.6,20.28,20.28,0,0,1,4.2,2,10.09,10.09,0,0,1,3.2,3.3,6.65,6.65,0,0,1,.9,3.4c-.1.1-.5-1.1-1.6-2.8a8,8,0,0,0-1.5-1.7,3.81,3.81,0,0,0-1.3-.9,31,31,0,0,0-4.5-2.1,40.51,40.51,0,0,0-4.7-1.2c-2.3-.4-4.5-.7-6.8-.9a66.19,66.19,0,0,0-10.9.3,34.69,34.69,0,0,0-4.5.6c-2.3.6-4.6,1.1-6.2,2.4-2.1,1.7-2.8,4.1-3.1,3.9Z"/><path id="Path_13846" data-name="Path 13846" class="cls-2" d="M122.72,133.1a3.94,3.94,0,0,0-.1,2.4,5,5,0,0,0,.5,2.1,2.7,2.7,0,0,0,.8.7,2.49,2.49,0,0,0,1.9.2,1.94,1.94,0,0,0,1.4-.9,3.08,3.08,0,0,0,.5-1.2,7.41,7.41,0,0,0-.1-2.1,12.58,12.58,0,0,0-.1-1.6c-.3-.4-.8-.2-2.3-.1-1.9.3-2.2.1-2.5.5Z"/><path id="Path_13847" data-name="Path 13847" class="cls-2" d="M132.82,132.5c2.1.1,2.4,0,2.7.4a3.23,3.23,0,0,1,0,2.2,4.1,4.1,0,0,1-1.3,2.8,2.46,2.46,0,0,1-2.2.2c-.8-.1-1.4-.2-1.8-.8a6.25,6.25,0,0,1,.5-4.7c.3-.2.5-.1,2.1-.1Z"/><g id="Ellipse_206" data-name="Ellipse 206"><circle class="cls-5" cx="121.92" cy="114.8" r="2"/><circle class="cls-6" cx="121.92" cy="114.8" r="1.5"/></g><g id="Ellipse_207" data-name="Ellipse 207"><circle class="cls-5" cx="136.92" cy="116.8" r="2"/><circle class="cls-6" cx="136.92" cy="116.8" r="1.5"/></g></g></svg>