<svg id="Layer_1" data-name="Layer 1" xmlns="http://www.w3.org/2000/svg" xmlns:xlink="http://www.w3.org/1999/xlink" viewBox="0 0 167 167"><defs><style>.cls-1,.cls-10,.cls-8{fill:none;}.cls-2{fill:#219ebc;}.cls-3{clip-path:url(#clip-path);}.cls-4{fill:#005fab;}.cls-5{fill:#8ecae6;}.cls-6{fill:#161615;}.cls-7{fill:#fff;}.cls-8{stroke:#fff;}.cls-9{fill:#342326;}.cls-10{stroke:#342326;}</style><clipPath id="clip-path"><rect class="cls-1" x="106.41" y="101.5" width="50" height="61.9"/></clipPath></defs><g id="Group_3519" data-name="Group 3519"><g id="Mask_Group_30" data-name="Mask Group 30"><g id="Group_3173" data-name="Group 3173"><path class="cls-2" d="M167,95.7v59.1A12.18,12.18,0,0,1,154.8,167h-63C69.2,113.1,146,71.9,167,95.7Z"/></g></g><g id="Group_3199" data-name="Group 3199"><g class="cls-3"><g id="Group_3198" data-name="Group 3198"><path id="Path_14137" data-name="Path 14137" class="cls-1" d="M124.81,112.3c0,4.4-3.3,8-7.3,8s-7.3-3.6-7.3-8,3.3-8.1,7.3-8.1S124.81,107.8,124.81,112.3Z"/><ellipse id="Ellipse_280" data-name="Ellipse 280" class="cls-1" cx="139.91" cy="109.8" rx="7.3" ry="8.1"/><path id="Path_14138" data-name="Path 14138" class="cls-4" d="M150.81,121.4a8.88,8.88,0,0,1,1.6,2.2c.7,1.5,1.4,2.8.7,4.3a4.5,4.5,0,0,1-3.4,2.4,3.73,3.73,0,0,1-3.6-1.9c-.8-1.2-.6-2.5-.3-4.5.2-1.5.7-4.3,1.9-4.7.9-.2,1.7.7,3.1,2.2"/><path id="Path_14139" data-name="Path 14139" class="cls-5" d="M106.51,150.7a12.27,12.27,0,0,1,1.3-6.5c2.2-4.5,6.2-6.4,10.8-8.4a41.38,41.38,0,0,1,17.2-4.1c6.8-.1,13.6-.2,17.5,4.8a16.32,16.32,0,0,1,3,8.8c.1,1.6.4,5.7-2,9.3-1.9,2.8-4.5,3.9-8.3,5.5a40,40,0,0,1-7.7,2.2,60.25,60.25,0,0,1-10.4,1.2,32,32,0,0,1-8.2-.4c-2.8-.6-5.8-1.2-8.6-3.8a13.6,13.6,0,0,1-4.6-8.6"/><path id="Path_14140" data-name="Path 14140" class="cls-6" d="M114.41,145.2a10.08,10.08,0,0,0,2.3,9.4,11.18,11.18,0,0,0,7.7,3.4,21.66,21.66,0,0,0,3.6-.1c.9-.1,1.8-.3,3.6-.6,2.6-.5,3-.6,4.5-.9,1.7-.3,2.9-.3,3.3-.4,3.2-.4,9.3-3.8,9.9-9.6.5-4.3-2.1-9.2-5.5-10.3a5,5,0,0,0-1.2-.2,44,44,0,0,0-9.6-.1c-3.8.5-7.7,1-12.1,3.4-3.2,1.8-5.5,3.1-6.5,6"/><path id="Path_14141" data-name="Path 14141" class="cls-7" d="M138.51,154.3a6.15,6.15,0,0,0-.7-2.3,5.11,5.11,0,0,0-1.5-2.1c-.3-.2-.7-.4-3.1.1s-2.7.9-2.9,1.2c-.3.6-.2,1.3.1,2.7a7.54,7.54,0,0,0,1,3.4c.4.4,1.2.3,2.8.1a15.52,15.52,0,0,0,1.6-.3,1.42,1.42,0,0,0,.6-.2c.9-.3,1.4-.4,1.6-.7a2.51,2.51,0,0,0,.5-1.9"/><path id="Path_14142" data-name="Path 14142" class="cls-7" d="M139,137.2a4.87,4.87,0,0,1,0,2.4,4.07,4.07,0,0,1-.8,2.4c-.2.3-.6.6-3,.8s-2.9,0-3.1-.2a6.56,6.56,0,0,1-.8-2.6,10.57,10.57,0,0,1-.1-3.6c.3-.5,1.1-.6,2.7-.9l1.6-.2h.6a3.22,3.22,0,0,1,1.7.1,2.66,2.66,0,0,1,1.2,1.8"/><path id="Path_14143" data-name="Path 14143" class="cls-7" d="M123.21,139.8a4.89,4.89,0,0,0,.8,2.3,6.23,6.23,0,0,0,1.5,2.1c.3.2.7.4,3.1-.2s2.7-.9,2.9-1.2c.3-.6.1-1.3-.1-2.7-.4-2.2-.8-3.2-1.1-3.4-.4-.4-1.2-.2-2.8,0a15.52,15.52,0,0,0-1.6.3,1.42,1.42,0,0,0-.6.2c-.9.3-1.4.4-1.6.7a2.24,2.24,0,0,0-.5,1.9"/></g></g></g><g id="Ellipse_281" data-name="Ellipse 281"><ellipse class="cls-7" cx="120.91" cy="110.5" rx="6.5" ry="6"/><ellipse class="cls-8" cx="120.91" cy="110.5" rx="6" ry="5.5"/></g><g id="Ellipse_283" data-name="Ellipse 283"><ellipse class="cls-7" cx="141.91" cy="111.5" rx="6.5" ry="6"/><ellipse class="cls-8" cx="141.91" cy="111.5" rx="6" ry="5.5"/></g><g id="Ellipse_282" data-name="Ellipse 282"><circle class="cls-9" cx="121.41" cy="111.5" r="2"/><circle class="cls-10" cx="121.41" cy="111.5" r="1.5"/></g><g id="Ellipse_284" data-name="Ellipse 284"><circle class="cls-9" cx="142.41" cy="112.5" r="2"/><circle class="cls-10" cx="142.41" cy="112.5" r="1.5"/></g></g></svg>