<svg id="satisfaction" xmlns="http://www.w3.org/2000/svg" width="109.5" height="109.386" viewBox="0 0 109.5 109.386">
  <path id="Path_14315" data-name="Path 14315" d="M164.634,0H211.67a15.238,15.238,0,0,1,15.259,15.217V51.865A15.238,15.238,0,0,1,211.67,67.083H192.981a.429.429,0,0,0-.427.423c-.187,7.887-5.62,10.3-12.232,10.3-.433,0-.4-.656.016-.772,5.405-1.512,4.5-8.026,4.2-9.6a.427.427,0,0,0-.419-.345H164.634a15.238,15.238,0,0,1-15.259-15.217V15.217A15.238,15.238,0,0,1,164.634,0Zm0,0" transform="translate(-117.429)" fill="#b5fcff"/>
  <path id="Path_14316" data-name="Path 14316" d="M416.356,0h-6.61a15.238,15.238,0,0,1,15.259,15.217V51.865a15.238,15.238,0,0,1-15.259,15.217h6.61a15.238,15.238,0,0,0,15.259-15.217V15.217A15.238,15.238,0,0,0,416.356,0Zm0,0" transform="translate(-322.115)" fill="#71f6fc"/>
  <path id="Path_14317" data-name="Path 14317" d="M10.117,219.173c0,4.016-2.418,7.271-5.4,7.271S0,222.705,0,218.69,1.733,211.9,4.716,211.9,10.117,215.158,10.117,219.173Zm0,0" transform="translate(0 -166.583)" fill="#e8916f"/>
  <path id="Path_14318" data-name="Path 14318" d="M206.117,219.173c0,4.016,2.419,7.271,5.4,7.271s4.716-3.739,4.716-7.754-1.733-6.788-4.716-6.788S206.117,215.158,206.117,219.173Zm0,0" transform="translate(-162.035 -166.583)" fill="#d98868"/>
  <path id="Path_14319" data-name="Path 14319" d="M100.957,351.293h11.017v17.626H100.957Zm0,0" transform="translate(-79.366 -276.163)" fill="#d98868"/>
  <path id="Path_14320" data-name="Path 14320" d="M34,154.02V139.245A18.714,18.714,0,0,1,52.71,120.531h2.231a18.714,18.714,0,0,1,18.713,18.713V154.02a19.829,19.829,0,1,1-39.658,0Zm0,0" transform="translate(-26.725 -94.754)" fill="#ebad88"/>
  <path id="Path_14321" data-name="Path 14321" d="M115.682,120.531h-2.231a18.731,18.731,0,0,0-2.189.132,18.712,18.712,0,0,1,16.524,18.581V154.02a19.834,19.834,0,0,1-16.524,19.554A19.838,19.838,0,0,0,134.4,154.02V139.245A18.714,18.714,0,0,0,115.682,120.531Zm0,0" transform="translate(-87.466 -94.754)" fill="#e8916f"/>
  <path id="Path_14322" data-name="Path 14322" d="M16.093,110.809s1.65.665,3.343-2.512c1.937-3.634,7.041-5.663,13.158-5.442,7.207.261,10.382-2.135,11.974-4.676a.213.213,0,0,1,.383.048c2.075,6.359,4.92,4.761,6.784,10.5,1.094,3.369,3.96,2.079,3.96,2.079s7.89-4.575,3.824-11.838c.7-14.6-10.749-15.461-10.749-15.461S43.539,76.866,29.2,80.322C8.5,85.308,12.178,99.85,12.178,99.85S8.62,106.738,16.093,110.809Zm0,0" transform="translate(-8.908 -62.36)" fill="#ffd659"/>
  <path id="Path_14323" data-name="Path 14323" d="M141.093,98.973c.7-14.6-10.749-15.461-10.749-15.461s-4.165-5.288-15.247-3.974c6.175.848,8.637,3.974,8.637,3.974s11.447.865,10.749,15.461a7.772,7.772,0,0,1-1.209,9.656l.035.1c1.093,3.369,3.96,2.079,3.96,2.079S145.159,106.236,141.093,98.973Zm0,0" transform="translate(-90.482 -62.362)" fill="#ffbd54"/>
  <path id="Path_14327" data-name="Path 14327" d="M301.25,47.681a16.086,16.086,0,0,1-5.109-6.759l-2.761-6.9c-.282-.746-1.409-.741-3.177-.283s-2.987,2.523-1.652,6.8l1.025,3.961a1.249,1.249,0,0,1-.826,1.5,30.3,30.3,0,0,1-7.826,1.083h-6.171a3.366,3.366,0,0,0-3.394,3.144,3.306,3.306,0,0,0,2.714,3.414.052.052,0,0,1,0,.1,3.3,3.3,0,0,0-2.714,3.414,3.366,3.366,0,0,0,3.394,3.145h1.226a.118.118,0,0,1,.042.23,3.351,3.351,0,0,0-2.423,3.248,3.221,3.221,0,0,0,3.22,3.132h2.015a.109.109,0,0,1,.038.212,3.5,3.5,0,0,0-2.555,3.169,3.225,3.225,0,0,0,3.242,3.228h23.409a5.521,5.521,0,0,0,5.52-5.52V56.722C308.486,53.733,305,50.58,301.25,47.681Zm0,0" transform="translate(-213.319 -26.27)" fill="#ebad88"/>
  <path id="Path_14328" data-name="Path 14328" d="M362.4,47.681a16.086,16.086,0,0,1-5.109-6.759l-2.761-6.9c-.282-.746-1.409-.741-3.177-.283-1.2.31-2.142,1.36-2.213,3.334l1.541,3.854a16.107,16.107,0,0,0,5.109,6.76c3.754,2.9,7.237,6.053,7.237,9.041V68a5.521,5.521,0,0,1-5.52,5.52h6.61a5.521,5.521,0,0,0,5.52-5.52V56.722C369.638,53.734,366.154,50.581,362.4,47.681Zm0,0" transform="translate(-274.471 -26.27)" fill="#e8916f"/>
  <path id="Path_14329" data-name="Path 14329" d="M57.735,422.136v2.434a1.283,1.283,0,0,1-1.283,1.283H7.463A1.284,1.284,0,0,1,6.18,424.57v-2.434c0-10.81,7.626-19.573,17.032-19.573H40.7C50.11,402.563,57.735,411.325,57.735,422.136Zm0,0" transform="translate(-4.858 -316.467)" fill="#685c79"/>
  <path id="Path_14330" data-name="Path 14330" d="M143.312,402.563H136.7c9.406,0,17.032,8.763,17.032,19.572v3.718h5.326a1.283,1.283,0,0,0,1.283-1.283v-2.435C160.344,411.325,152.719,402.563,143.312,402.563Zm0,0" transform="translate(-107.467 -316.467)" fill="#594f69"/>
  <path id="Path_14331" data-name="Path 14331" d="M88.105,402.563h16.513l-8.256,23.291Zm0,0" transform="translate(-69.263 -316.467)" fill="#fb8500"/>
</svg>
