<svg id="Layer_1" data-name="Layer 1" xmlns="http://www.w3.org/2000/svg" xmlns:xlink="http://www.w3.org/1999/xlink" viewBox="0 0 167 167"><defs><style>.cls-1,.cls-5{fill:none;}.cls-2{fill:#219ebc;}.cls-3{clip-path:url(#clip-path);}.cls-4{fill:#fff;}.cls-5{stroke:#271a1d;stroke-miterlimit:10;stroke-width:0.25px;}.cls-6{fill:#271a1d;}.cls-7{fill:#8ecae6;}.cls-8{fill:#161615;}.cls-9{clip-path:url(#clip-path-2);}</style><clipPath id="clip-path"><rect class="cls-1" x="428.86" y="5263.45" width="34.8" height="44.9"/></clipPath><clipPath id="clip-path-2"><rect class="cls-1" x="118.86" y="107.22" width="34.8" height="44.9"/></clipPath></defs><g id="Mask_Group_31" data-name="Mask Group 31"><g id="Group_3209" data-name="Group 3209"><path class="cls-2" d="M167,99v55.8A12.18,12.18,0,0,1,154.8,167h-48a74.49,74.49,0,0,1-6.3-10.2C76.1,108.1,153.8,70.7,167,99Z"/></g></g><g class="cls-3"><g id="Group_3210" data-name="Group 3210"><path id="Path_14165" data-name="Path 14165" class="cls-4" d="M130.36,110.75c0,3.6-2.5,6.5-5.7,6.5s-5.7-2.9-5.7-6.5,2.5-6.5,5.7-6.5S130.36,107.25,130.36,110.75Z"/><path id="Path_14166" data-name="Path 14166" class="cls-4" d="M148.56,107.65c0,3.6-2.5,6.5-5.7,6.5s-5.7-2.9-5.7-6.5,2.5-6.5,5.7-6.5S148.56,104.05,148.56,107.65Z"/><path id="Path_14167" data-name="Path 14167" class="cls-5" d="M151.56,115.65a9.76,9.76,0,0,1-4.1,3.7,8.59,8.59,0,0,1-5.9.7,9.32,9.32,0,0,1-5.6-4.5"/><path id="Path_14168" data-name="Path 14168" class="cls-5" d="M117.06,118.85a10.26,10.26,0,0,0,4.6,3,8.55,8.55,0,0,0,5.9-.3,9.47,9.47,0,0,0,4.8-5.4"/><path id="Path_14169" data-name="Path 14169" class="cls-6" d="M144.36,108.85a2.33,2.33,0,0,1-2.3,2.3,2.4,2.4,0,0,1-2.3-2.3,2.26,2.26,0,0,1,2.3-2.3,2.33,2.33,0,0,1,2.3,2.3h0"/><path id="Path_14170" data-name="Path 14170" class="cls-6" d="M127,110.75a2.3,2.3,0,0,1-4.6,0,2.26,2.26,0,0,1,2.3-2.3,2.33,2.33,0,0,1,2.3,2.3"/><path id="Path_14171" data-name="Path 14171" class="cls-7" d="M121,132.55a13.63,13.63,0,0,1,2.4-3.5,12.25,12.25,0,0,1,5.7-3.3,16.65,16.65,0,0,1,8.3-.3c3.2.6,6.5,1.2,9,4.4a9.82,9.82,0,0,1,2.2,5.7c.1,2.9-1.3,6.1-3.4,7.2-1.9,1-3-.2-6.5-.7-6.1-.9-7.5,2.1-13.2,1-1.5-.3-6-1.2-6.6-4.1-.4-1.8.5-3.5,2.1-6.4"/><path id="Path_14172" data-name="Path 14172" class="cls-8" d="M125.86,132a9.4,9.4,0,0,0-2,3.5c-.3,1-.9,2.8-.1,3.8.5.7,1.4.5,3.6.2,3.6-.5,5.5-.8,6.9-.5s2.4.6,4.9.9a4.53,4.53,0,0,0,2.3-.2,3.94,3.94,0,0,0,2.3-1.9c.8-1.7.1-3.6-.4-4.9a7.14,7.14,0,0,0-2.7-3.9c-1-.6-1.5-.4-4.7-.2-4.4.2-4.6-.1-6,.4a8.89,8.89,0,0,0-4.1,2.8"/><path id="Path_14173" data-name="Path 14173" class="cls-4" d="M133.56,129.65a3.28,3.28,0,0,1,.1,1.7,3.74,3.74,0,0,1-.5,1.8c-.1.2-.4.5-2.2.9s-2.1.3-2.3.1a4.64,4.64,0,0,1-.7-1.8c-.3-1.4-.4-2-.2-2.5s1-.7,2.4-.9a5,5,0,0,0,1.2-.2c.8-.2.9-.4,1.3-.3.6.2.8.9.9,1.2"/><path id="Path_14174" data-name="Path 14174" class="cls-4" d="M135,130a3.21,3.21,0,0,0,.2,1.7,3.81,3.81,0,0,0,.8,1.7c.2.2.5.4,2.3.3s2.1-.2,2.3-.4c.3-.4.3-.9.3-1.9,0-1.4.1-2.1-.3-2.5s-1.1-.4-2.5-.3a4.87,4.87,0,0,1-1.2.1c-.8,0-1-.2-1.3,0a1.61,1.61,0,0,0-.6,1.3"/></g></g><g class="cls-9"><g id="Group_3210-2" data-name="Group 3210"><path id="Path_14165-2" data-name="Path 14165" class="cls-4" d="M132.26,119.62c0,3.6-2.5,6.5-5.7,6.5s-5.7-2.9-5.7-6.5,2.5-6.5,5.7-6.5S132.26,116.12,132.26,119.62Z"/><path id="Path_14166-2" data-name="Path 14166" class="cls-4" d="M150.46,116.52c0,3.6-2.5,6.5-5.7,6.5s-5.7-2.9-5.7-6.5,2.5-6.5,5.7-6.5S150.46,112.92,150.46,116.52Z"/><path id="Path_14167-2" data-name="Path 14167" class="cls-5" d="M153.46,124.52a9.76,9.76,0,0,1-4.1,3.7,8.59,8.59,0,0,1-5.9.7,9.32,9.32,0,0,1-5.6-4.5"/><path id="Path_14168-2" data-name="Path 14168" class="cls-5" d="M119,127.72a10.26,10.26,0,0,0,4.6,3,8.55,8.55,0,0,0,5.9-.3,9.47,9.47,0,0,0,4.8-5.4"/><path id="Path_14169-2" data-name="Path 14169" class="cls-6" d="M146.26,117.72A2.33,2.33,0,0,1,144,120a2.4,2.4,0,0,1-2.3-2.3,2.3,2.3,0,1,1,4.6,0h0"/><path id="Path_14170-2" data-name="Path 14170" class="cls-6" d="M128.86,119.62a2.3,2.3,0,0,1-4.6,0,2.3,2.3,0,0,1,4.6,0"/><path id="Path_14171-2" data-name="Path 14171" class="cls-7" d="M122.86,141.42a13.63,13.63,0,0,1,2.4-3.5,12.25,12.25,0,0,1,5.7-3.3,16.65,16.65,0,0,1,8.3-.3c3.2.6,6.5,1.2,9,4.4a9.82,9.82,0,0,1,2.2,5.7c.1,2.9-1.3,6.1-3.4,7.2-1.9,1-3-.2-6.5-.7-6.1-.9-7.5,2.1-13.2,1-1.5-.3-6-1.2-6.6-4.1-.4-1.8.6-3.5,2.1-6.4"/><path id="Path_14172-2" data-name="Path 14172" class="cls-8" d="M127.76,140.82a9.4,9.4,0,0,0-2,3.5c-.3,1-.9,2.8-.1,3.8.5.7,1.4.5,3.6.2,3.6-.5,5.5-.8,6.9-.5s2.4.6,4.9.9a4.53,4.53,0,0,0,2.3-.2,3.94,3.94,0,0,0,2.3-1.9c.8-1.7.1-3.6-.4-4.9a7.14,7.14,0,0,0-2.7-3.9c-1-.6-1.5-.4-4.7-.2-4.4.2-4.6-.1-6,.4a8.89,8.89,0,0,0-4.1,2.8"/><path id="Path_14173-2" data-name="Path 14173" class="cls-4" d="M135.46,138.52a3.28,3.28,0,0,1,.1,1.7,3.74,3.74,0,0,1-.5,1.8c-.1.2-.4.5-2.2.9s-2.1.3-2.3.1a4.64,4.64,0,0,1-.7-1.8,5,5,0,0,1-.2-2.6c.3-.6,1-.7,2.4-.9a5,5,0,0,0,1.2-.2c.8-.2.9-.4,1.3-.3a2.07,2.07,0,0,1,.9,1.3"/><path id="Path_14174-2" data-name="Path 14174" class="cls-4" d="M136.86,138.82a3.21,3.21,0,0,0,.2,1.7,3.81,3.81,0,0,0,.8,1.7c.2.2.5.4,2.3.3s2.1-.2,2.3-.4c.3-.4.3-.9.3-1.9,0-1.4.1-2.1-.3-2.5s-1.1-.4-2.5-.3a4.87,4.87,0,0,1-1.2.1c-.8,0-1-.2-1.3,0a2,2,0,0,0-.6,1.3"/></g></g></svg>