<svg id="Layer_1" data-name="Layer 1" xmlns="http://www.w3.org/2000/svg" xmlns:xlink="http://www.w3.org/1999/xlink" viewBox="0 0 167 167"><defs><style>.cls-1{fill:none;}.cls-2{fill:#ffb703;}.cls-3{clip-path:url(#clip-path);}.cls-4{fill:#fbfbfb;}.cls-5{fill:#fb8500;}.cls-6{fill:#161615;}.cls-7{fill:#fff;}.cls-8{fill:#271a1d;}</style><clipPath id="clip-path"><rect class="cls-1" x="116.44" y="111.57" width="45.4" height="41.4"/></clipPath></defs><g id="Mask_Group_27" data-name="Mask Group 27"><g id="Group_2956" data-name="Group 2956"><path class="cls-2" d="M167,94.4v60.4A12.18,12.18,0,0,1,154.8,167H108.1a75.63,75.63,0,0,1-4.4-8.1C80.8,109.7,149.8,71.4,167,94.4Z"/></g></g><g class="cls-3"><g id="Group_3216" data-name="Group 3216"><ellipse id="Ellipse_290" data-name="Ellipse 290" class="cls-4" cx="142.54" cy="116.27" rx="4.8" ry="4.5"/><ellipse id="Ellipse_291" data-name="Ellipse 291" class="cls-4" cx="128.54" cy="118.27" rx="4.8" ry="4.5"/><path id="Path_14192" data-name="Path 14192" class="cls-5" d="M120.14,137.07a19.52,19.52,0,0,0-1.7,2.3h0a11.31,11.31,0,0,0-1.7,3.9.73.73,0,0,1-.1.39,8.62,8.62,0,0,0,1.2,6.8,6.85,6.85,0,0,0,4.1,2.4c2.8.6,4.8-.6,7.7-1.7,3.5-1.39,8-3.1,12.8-2.8,2.9.2,3.5.9,10.2,1.7,1.9.2,3.8.4,5.6-.6a7.61,7.61,0,0,0,3-3.4c1.1-2.6.2-5.1-.4-6.8a16.69,16.69,0,0,0-6.6-8,14.61,14.61,0,0,0-7.3-2.3c-3.6,0-4,1.6-7.9,2.2-5.7.9-6.6-2.3-10.8-1,.1,0-3,1-8.1,6.91"/><path id="Path_14193" data-name="Path 14193" class="cls-6" d="M126.84,138a8,8,0,0,0-2.7,3.1,5.84,5.84,0,0,0,.2,5c1.6,2.5,5.4,2.8,5.9,2,.3-.6-1.2-1.6-.8-2.5.3-.6,1.2-.8,4.4-1.1s3.1-.3,4.6-.5a34.08,34.08,0,0,1,5.5-.5c1.8,0,2.3.1,2.7.4,1.5,1,1,2.9,1.8,3.3,1.7.8,8.5-5.1,7-9.4-1-2.7-5.2-4-7.1-4.3a4.59,4.59,0,0,0-1-.1,52.7,52.7,0,0,0-5.6.4c-6.1.5-7.6.1-11.5,2a15.23,15.23,0,0,0-3.4,2.2"/><path id="Path_14194" data-name="Path 14194" class="cls-7" d="M134.64,133.87c2.5-.5,2.8-.6,3.2-.4.5.4.5,1,.6,2a3.24,3.24,0,0,1-.7,2.9,3.75,3.75,0,0,1-2.5.8,3.6,3.6,0,0,1-2.3-.2c-.7-.5-.8-1.2-.9-2.2s-.3-1.6.2-2.2a7.36,7.36,0,0,1,2.4-.7"/><path id="Path_14195" data-name="Path 14195" class="cls-7" d="M140,133.37c-.2.2-.3.9-.1,2.3a3.72,3.72,0,0,0,.7,2,6.07,6.07,0,0,0,1,.7,3.36,3.36,0,0,0,2.2.2,3.91,3.91,0,0,0,1.7-.8,2.42,2.42,0,0,0,.6-1.11,4.57,4.57,0,0,0-.2-2c-.2-1.2,0-1.2-.2-1.5s-.9-.3-2.8-.2c-2.1.11-2.5,0-2.9.41"/></g></g><path id="Path_14199" data-name="Path 14199" class="cls-8" d="M141.41,112.7a1.7,1.7,0,1,1-3.4,0,1.75,1.75,0,0,1,1.7-1.7,1.63,1.63,0,0,1,1.7,1.7Z"/><path id="Path_14200" data-name="Path 14200" class="cls-8" d="M130.84,118.37a1.7,1.7,0,0,1-3.4,0,1.75,1.75,0,0,1,1.7-1.7,1.63,1.63,0,0,1,1.7,1.7Z"/></svg>