<svg id="Layer_1" data-name="Layer 1" xmlns="http://www.w3.org/2000/svg" viewBox="0 0 167 167"><defs><style>.cls-1{fill:#ffb703;}.cls-2{fill:#fb8500;}.cls-3{fill:#1d1d1b;}.cls-4{fill:#fff;}.cls-5{fill:#239ebc;}.cls-6,.cls-8{fill:none;}.cls-6{stroke:#fff;}.cls-7{fill:#342326;}.cls-8{stroke:#342326;}</style></defs><g id="Group_3522" data-name="Group 3522"><g id="Mask_Group_27" data-name="Mask Group 27"><g id="Group_2956" data-name="Group 2956"><path class="cls-1" d="M166.89,103.16v51.6a12.18,12.18,0,0,1-12.2,12.2H95.89c0-.1,0-.1-.1-.2-7.6-20.5-9.4-27.6,0-43s15.4-22,26.5-23.4C135,98.86,157.89,102,166.89,103.16Z"/></g></g><path id="Path_13906" data-name="Path 13906" class="cls-2" d="M117.48,142.9c-1.6,1-1.5,1.4-4.2,3.5-3.5,3-5.4,3.7-5.1,4.5s1.6.4,5.5,1.4c1.6.4,1.8.6,3.5,1.1a31.48,31.48,0,0,0,4.2.9c3,.3,3.3-.7,7.3-.8a43.49,43.49,0,0,1,5.1.2,17,17,0,0,0,4.5.1,16.29,16.29,0,0,0,3.1-1.1c2.6-.9,2.8-.9,4.8-1.7,3-1.1,4.5-1.7,4.6-2.3s-.6-1-6.5-4.3c-2.7-1.5-3.2-1.7-3.8-2a24.92,24.92,0,0,0-5.8-2,20.61,20.61,0,0,0-11.8.3,22.72,22.72,0,0,0-5.4,2.2Z"/><path id="Path_13907" data-name="Path 13907" class="cls-3" d="M122.28,143.6a16.86,16.86,0,0,0-2.5,2c-1,.9-1.5,1.2-2,1.7-1.2,1.2-2.1,2.1-1.8,2.8s2.1.8,3,.8,2-.2,3-.4c.4,0,.8-.1,3.4-.1,2.3,0,2.8,0,4.2-.1,3.6-.1,3.1-.2,5.1-.2a20.81,20.81,0,0,0,5-.1,5.41,5.41,0,0,0,2.6-1.1c.7-.5,1.3-1,1.3-1.6,0-.9-1.5-.9-4.3-2.9a10,10,0,0,0-3.7-1.9c-1.1-.3-1.5-.2-4.4-.2-4,0-5.8-.1-7.7.6a7.46,7.46,0,0,0-1.2.7Z"/><path id="Path_13908" data-name="Path 13908" class="cls-4" d="M125.68,142.4c2.3-.3,2.6-.4,3-.1s.5,1,.4,1.9a2.86,2.86,0,0,1-.8,2.6,3.15,3.15,0,0,1-2.3.5,3.08,3.08,0,0,1-2.1-.4,3.23,3.23,0,0,1-.8-2.1c-.1-.9-.2-1.5.3-2a10.3,10.3,0,0,1,2.3-.4Z"/><path id="Path_13909" data-name="Path 13909" class="cls-4" d="M130.68,142.3c-.2.2-.3.9-.2,2.1a3.08,3.08,0,0,0,.6,1.9,5.5,5.5,0,0,0,.9.7,3.61,3.61,0,0,0,2.1.4,2.45,2.45,0,0,0,1.6-.6,2.07,2.07,0,0,0,.6-1,5.44,5.44,0,0,0,0-1.8c-.1-1.1.1-1.1-.1-1.4s-.9-.3-2.5-.4c-2.2,0-2.6-.2-3,.1Z"/><path id="Path_13916" data-name="Path 13916" class="cls-5" d="M143.38,133.5a2.54,2.54,0,0,0,.2,1.2c.2.7.4,1.3,1.1,1.6a2.25,2.25,0,0,0,1.8-.2,1.66,1.66,0,0,0,.6-1.6c-.1-.6-.6-1-1.3-1.5-.5-.4-1.6-1.2-2.1-.9-.4,0-.3.6-.3,1.4Z"/><path id="Path_13917" data-name="Path 13917" class="cls-5" d="M147.68,134.6c0,.3.1.6.1.8.2.5.3.9.8,1.1a1.29,1.29,0,0,0,1.2-.1,1.05,1.05,0,0,0,.3-1.2,2.2,2.2,0,0,0-.9-1.1c-.4-.3-1-.9-1.4-.7-.2.2-.2.6-.1,1.2Z"/><path id="Path_13918" data-name="Path 13918" class="cls-5" d="M147.78,138.4a1.27,1.27,0,0,0,.1.6,1.15,1.15,0,0,0,.6.9,1,1,0,0,0,.9-.1,1,1,0,0,0,.2-.9,1.68,1.68,0,0,0-.7-.8c-.3-.2-.8-.7-1-.5-.2,0-.2.3-.1.8Z"/><path id="Path_13919" data-name="Path 13919" class="cls-5" d="M113.88,133.5a2,2,0,0,1-.3,1.1c-.3.6-.5,1.2-1.2,1.4a2.38,2.38,0,0,1-1.8-.5,1.53,1.53,0,0,1-.4-1.7c.2-.6.7-.9,1.4-1.3s1.7-.9,2.2-.6c.3.2.2.7.1,1.6Z"/><path id="Path_13920" data-name="Path 13920" class="cls-5" d="M109.48,133.8a2.35,2.35,0,0,1-.2.8c-.2.5-.4.9-.9,1a1.31,1.31,0,0,1-1.2-.3,1.06,1.06,0,0,1-.2-1.2c.1-.4.5-.6,1-.9s1.1-.7,1.4-.4c.3,0,.2.4.1,1Z"/><path id="Path_13921" data-name="Path 13921" class="cls-5" d="M109,137.5a1.42,1.42,0,0,1-.2.6c-.2.4-.3.7-.7.8a.86.86,0,0,1-.9-.3.76.76,0,0,1-.1-.9c.1-.3.4-.5.8-.7s.9-.5,1.1-.3.1.4,0,.8Z"/><g id="Ellipse_166" data-name="Ellipse 166"><circle class="cls-4" cx="116.78" cy="122.1" r="6"/><circle class="cls-6" cx="116.78" cy="122.1" r="5.5"/></g><g id="Ellipse_224" data-name="Ellipse 224"><circle class="cls-4" cx="140.78" cy="122.1" r="6"/><circle class="cls-6" cx="140.78" cy="122.1" r="5.5"/></g><g id="Ellipse_167" data-name="Ellipse 167"><circle class="cls-7" cx="116.78" cy="124.1" r="2"/><circle class="cls-8" cx="116.78" cy="124.1" r="1.5"/></g><g id="Ellipse_223" data-name="Ellipse 223"><circle class="cls-7" cx="139.78" cy="124.1" r="2"/><circle class="cls-8" cx="139.78" cy="124.1" r="1.5"/></g></g></svg>