<svg id="Layer_1" data-name="Layer 1" xmlns="http://www.w3.org/2000/svg" viewBox="0 0 167 167"><defs><style>.cls-1{fill:#fb8500;}.cls-2,.cls-4,.cls-6{fill:none;}.cls-2{stroke:#1d1d1b;stroke-miterlimit:10;stroke-width:0.25px;}.cls-3{fill:#342326;}.cls-4{stroke:#342326;}.cls-5{fill:#fff;}.cls-6{stroke:#fff;}</style></defs><g id="Group_3523" data-name="Group 3523"><g id="Mask_Group_33" data-name="Mask Group 33"><g id="Group_3228" data-name="Group 3228"><path class="cls-1" d="M167,82.7v72.1A12.18,12.18,0,0,1,154.8,167H80.3c-3.6-5.1-5.4-12-4-20.7,2.3-14.2,17.1-37.4,29.1-48C131.9,74.9,158.1,79,167,82.7Z"/></g></g><path id="Path_14203" data-name="Path 14203" class="cls-2" d="M128.25,145.73a8.28,8.28,0,0,0,5.9,2.8,9,9,0,0,0,7.8-3.3"/><g id="Ellipse_295" data-name="Ellipse 295"><ellipse class="cls-3" cx="134.25" cy="138.62" rx="5" ry="6"/><ellipse class="cls-4" cx="134.25" cy="138.62" rx="4.5" ry="5.5"/></g><g id="Ellipse_296" data-name="Ellipse 296"><circle class="cls-5" cx="143.25" cy="104.62" r="8"/><circle class="cls-6" cx="143.25" cy="104.62" r="7.5"/></g><g id="Ellipse_297" data-name="Ellipse 297"><circle class="cls-5" cx="121.25" cy="104.62" r="8"/><circle class="cls-6" cx="121.25" cy="104.62" r="7.5"/></g><g id="Ellipse_298" data-name="Ellipse 298"><circle class="cls-3" cx="141.25" cy="106.62" r="2"/><circle class="cls-4" cx="141.25" cy="106.62" r="1.5"/></g><g id="Ellipse_299" data-name="Ellipse 299"><circle class="cls-3" cx="123.25" cy="106.62" r="2"/><circle class="cls-4" cx="123.25" cy="106.62" r="1.5"/></g></g></svg>