<svg xmlns="http://www.w3.org/2000/svg" xmlns:xlink="http://www.w3.org/1999/xlink" width="140" height="88" viewBox="0 0 140 88">
  <defs>
    <clipPath id="clip-path">
      <rect id="pexels-keenan-constance-2865901" width="140" height="88" rx="8" transform="translate(246 436.586)" fill="#fb8500"/>
    </clipPath>
  </defs>
  <g id="Mask_Group_23" data-name="Mask Group 23" transform="translate(-246 -436.586)" clip-path="url(#clip-path)">
    <g id="emergency-call" transform="translate(277.368 437.104)">
      <path id="Path_13692" data-name="Path 13692" d="M11.677,71.71a1.314,1.314,0,0,1-.652-.173,12.415,12.415,0,0,1-6.28-10.756V25.371A12.381,12.381,0,0,1,17.112,13h1.634a1.321,1.321,0,0,1,0,2.641H17.112a9.737,9.737,0,0,0-9.726,9.726V60.781a9.768,9.768,0,0,0,4.945,8.46,1.321,1.321,0,0,1-.655,2.469Z" transform="translate(-4.745 0.483)" fill="#e1d3ce"/>
      <path id="Path_13693" data-name="Path 13693" d="M32.7,23.441a11.271,11.271,0,0,1,11.153-9.651h7.024a11.271,11.271,0,0,1,11.153,9.651l8.39,1.761,8.829-1.761v-.022A23.419,23.419,0,0,0,55.829,0H38.9A23.419,23.419,0,0,0,15.481,23.419v.022L24.138,25.2Z" transform="translate(-4.346 0)" fill="#46cc8d"/>
      <path id="Path_13694" data-name="Path 13694" d="M54.573,0H49.29A23.419,23.419,0,0,1,72.709,23.419v.022l2.5,1.844,2.781-1.668v-.2A23.419,23.419,0,0,0,54.573,0Z" transform="translate(-3.09)" fill="#00c27a"/>
      <path id="Path_13695" data-name="Path 13695" d="M26.989,22.947l2.7,1.761,2.583-1.761A11.271,11.271,0,0,1,43.425,13.3H38.142A11.271,11.271,0,0,0,26.989,22.947Z" transform="translate(-3.919 0.494)" fill="#00c27a"/>
      <path id="Path_13696" data-name="Path 13696" d="M15.649,72.789h-1a3.7,3.7,0,0,1-3.7-3.7v-3.36a3.7,3.7,0,0,1,3.7-3.7h1Z" transform="translate(-4.515 2.304)" fill="#cbc4cc"/>
      <path id="Path_13697" data-name="Path 13697" d="M76.035,84.3H17.727A2.73,2.73,0,0,1,15,81.572V75.864H78.764v5.708A2.73,2.73,0,0,1,76.035,84.3Z" transform="translate(-4.364 2.818)" fill="#ceefdd"/>
      <path id="Path_13698" data-name="Path 13698" d="M71.485,75.864v5.708a2.73,2.73,0,0,1-2.73,2.73h5.283a2.73,2.73,0,0,0,2.73-2.73V75.864Z" transform="translate(-2.367 2.818)" fill="#b0e7c9"/>
      <path id="Path_13699" data-name="Path 13699" d="M65.922,46.7l-.075-.366A14.482,14.482,0,0,0,52.623,34.8,50.728,50.728,0,0,0,48.1,37.681l-4.9-2.913H42.1A14.481,14.481,0,0,0,27.915,46.329l-.076.366a6.488,6.488,0,0,1-6.355,5.18A6.488,6.488,0,0,0,15,58.363v20.4H78.764v-20.4a6.488,6.488,0,0,0-6.488-6.488A6.488,6.488,0,0,1,65.922,46.7Z" transform="translate(-4.364 1.291)" fill="#46cc8d"/>
      <path id="Path_13700" data-name="Path 13700" d="M71.153,51.875A6.488,6.488,0,0,1,64.8,46.7l-.076-.366A14.481,14.481,0,0,0,50.538,34.768H45.255A14.481,14.481,0,0,1,59.439,46.329l.076.366a6.488,6.488,0,0,0,6.355,5.18,6.488,6.488,0,0,1,6.488,6.488v20.4h5.283v-20.4A6.488,6.488,0,0,0,71.153,51.875Z" transform="translate(-3.24 1.291)" fill="#00c27a"/>
      <path id="Path_13701" data-name="Path 13701" d="M46.9,40.845A4.706,4.706,0,0,1,42.2,36.14V34.768h9.411V36.14A4.706,4.706,0,0,1,46.9,40.845Z" transform="translate(-3.354 1.291)" fill="#09a76d"/>
      <circle id="Ellipse_137" data-name="Ellipse 137" cx="12.615" cy="12.615" r="12.615" transform="translate(30.842 49.02)" fill="#ffeee8"/>
      <path id="Path_13702" data-name="Path 13702" d="M46.74,47.265a12.662,12.662,0,0,0-2.641.279,12.616,12.616,0,0,1,0,24.672A12.615,12.615,0,1,0,46.74,47.265Z" transform="translate(-3.283 1.756)" fill="#e1d3ce"/>
      <path id="Path_13703" data-name="Path 13703" d="M52.117,56.771H49.771V54.426a1.314,1.314,0,0,0-1.314-1.314H45.3a1.314,1.314,0,0,0-1.314,1.314v2.346H41.643a1.314,1.314,0,0,0-1.314,1.314V61.24a1.314,1.314,0,0,0,1.314,1.314h2.346V64.9A1.314,1.314,0,0,0,45.3,66.213h3.155A1.314,1.314,0,0,0,49.771,64.9V62.554h2.346a1.314,1.314,0,0,0,1.314-1.314V58.085a1.314,1.314,0,0,0-1.314-1.314Z" transform="translate(-3.423 1.973)" fill="#fe646f"/>
      <path id="Path_13704" data-name="Path 13704" d="M31.735,29.037H16.718A3.639,3.639,0,0,1,13.08,25.4a2.8,2.8,0,0,1,2.8-2.8h16.7a2.8,2.8,0,0,1,2.8,2.8A3.638,3.638,0,0,1,31.735,29.037Z" transform="translate(-4.435 0.84)" fill="#ffeee8"/>
      <path id="Path_13705" data-name="Path 13705" d="M76.415,29.037H61.4A3.639,3.639,0,0,1,57.76,25.4a2.8,2.8,0,0,1,2.8-2.8h16.7a2.8,2.8,0,0,1,2.8,2.8A3.638,3.638,0,0,1,76.415,29.037Z" transform="translate(-2.776 0.84)" fill="#ffeee8"/>
      <path id="Path_13706" data-name="Path 13706" d="M76.778,22.6H71.5a2.8,2.8,0,0,1,2.8,2.8,3.638,3.638,0,0,1-3.639,3.639h5.283A3.639,3.639,0,0,0,79.575,25.4,2.8,2.8,0,0,0,76.778,22.6Z" transform="translate(-2.297 0.84)" fill="#e1d3ce"/>
      <g id="Group_2896" data-name="Group 2896" transform="translate(15.097 63.01)">
        <path id="Path_13707" data-name="Path 13707" d="M27.714,63.395H20.622a1.321,1.321,0,0,1,0-2.641h7.092a1.321,1.321,0,0,1,0,2.641Z" transform="translate(-19.301 -60.753)" fill="#00c27a"/>
        <path id="Path_13708" data-name="Path 13708" d="M27.714,68.583H20.622a1.321,1.321,0,1,1,0-2.641h7.092a1.321,1.321,0,1,1,0,2.641Z" transform="translate(-19.301 -60.561)" fill="#00c27a"/>
        <path id="Path_13709" data-name="Path 13709" d="M27.714,73.772H20.622a1.321,1.321,0,1,1,0-2.641h7.092a1.321,1.321,0,1,1,0,2.641Z" transform="translate(-19.301 -60.368)" fill="#00c27a"/>
        <path id="Path_13710" data-name="Path 13710" d="M72.172,63.395H65.079a1.321,1.321,0,1,1,0-2.641h7.092a1.321,1.321,0,0,1,0,2.641Z" transform="translate(-17.65 -60.753)" fill="#00c27a"/>
        <path id="Path_13711" data-name="Path 13711" d="M72.172,68.583H65.079a1.321,1.321,0,1,1,0-2.641h7.092a1.321,1.321,0,1,1,0,2.641Z" transform="translate(-17.65 -60.561)" fill="#00c27a"/>
        <path id="Path_13712" data-name="Path 13712" d="M72.172,73.772H65.079a1.321,1.321,0,1,1,0-2.641h7.092a1.321,1.321,0,1,1,0,2.641Z" transform="translate(-17.65 -60.368)" fill="#00c27a"/>
      </g>
    </g>
  </g>
</svg>
