<?xml version="1.0" encoding="utf-8"?>
<!-- Generator: Adobe Illustrator 25.2.1, SVG Export Plug-In . SVG Version: 6.00 Build 0)  -->
<svg version="1.1" id="Layer_1" xmlns="http://www.w3.org/2000/svg" xmlns:xlink="http://www.w3.org/1999/xlink" x="0px" y="0px"
	 viewBox="0 0 56 56" style="enable-background:new 0 0 56 56;" xml:space="preserve">
<style type="text/css">
	.st0{fill:#0D3046;}
	.st1{fill:none;}
	.st2{fill:#FFFFFF;}
</style>
<path id="Rectangle_2547" class="st0" d="M0,0h46c5.5,0,10,4.5,10,10v46l0,0L0,0L0,0z"/>
<rect id="Rectangle_862" x="29.9" y="6" class="st1" width="20" height="20"/>
<g>
	<path class="st2" d="M40.8,23.4v-3.3h-3c0.2,0.4,0.3,0.8,0.5,1.2C39,22.5,39.8,23.2,40.8,23.4z"/>
	<path class="st2" d="M40.8,16.1H37c0,1.2,0.2,2.3,0.5,3.3h3.3C40.8,19.4,40.8,16.1,40.8,16.1z"/>
	<path class="st2" d="M38.8,23.1c-0.4-0.4-0.8-0.9-1.1-1.5c-0.3-0.5-0.5-1-0.7-1.5h-2.3C35.7,21.5,37.2,22.5,38.8,23.1z"/>
	<path class="st2" d="M40.8,12.1h-3.3c-0.3,1-0.5,2.2-0.5,3.3h3.8C40.8,15.4,40.8,12.1,40.8,12.1z"/>
	<path class="st2" d="M37.7,9.9c0.3-0.6,0.7-1.1,1.1-1.5c-1.7,0.5-3.1,1.6-4.1,3H37C37.2,10.9,37.4,10.4,37.7,9.9z"/>
	<path class="st2" d="M40.8,8.1C39.8,8.2,39,9,38.3,10.2c-0.2,0.4-0.4,0.8-0.5,1.2h3V8.1z"/>
	<path class="st2" d="M34.4,19.4h2.5c-0.3-1-0.4-2.2-0.5-3.3h-2.9C33.5,17.3,33.8,18.4,34.4,19.4z"/>
	<path class="st2" d="M33.4,15.4h2.9c0-1.2,0.2-2.3,0.5-3.3h-2.5C33.8,13.1,33.5,14.2,33.4,15.4z"/>
	<path class="st2" d="M41.4,20.1v3.3c0.8-0.1,1.6-0.7,2.3-1.8l0,0l-0.4-1.6C43.3,20.1,41.4,20.1,41.4,20.1z"/>
	<path class="st2" d="M47.8,19.4c0.5-1,0.9-2.1,0.9-3.3h-2.9c0,1-0.1,2-0.4,2.9l1.8,0.5L47.8,19.4L47.8,19.4z"/>
	<path class="st2" d="M45.2,16.1h-3.8v3.3h1.7l-0.3-1.2l2.1,0.6C45,17.9,45.2,17,45.2,16.1z"/>
	<path class="st2" d="M43.4,8.4c0.4,0.4,0.8,0.9,1.1,1.5c0.3,0.5,0.5,1,0.7,1.5h2.3C46.5,10,45,8.9,43.4,8.4z"/>
	<path class="st2" d="M41.4,15.4h3.8c0-1.2-0.2-2.3-0.5-3.3h-3.3V15.4z"/>
	<path class="st2" d="M48.8,15.4c-0.1-1.2-0.4-2.3-0.9-3.3h-2.5c0.3,1,0.4,2.2,0.5,3.3H48.8z"/>
	<path class="st2" d="M41.4,8.1v3.3h3c-0.2-0.4-0.3-0.8-0.5-1.2C43.2,9,42.4,8.2,41.4,8.1z"/>
	<path class="st2" d="M41.1,24.1c-4.6,0-8.4-3.8-8.4-8.4s3.8-8.4,8.4-8.4c4.6,0,8.4,3.8,8.4,8.4c0,1.4-0.4,2.8-1,4l0.5,0.1l0.2,0.1
		c0.1-0.2,0.2-0.4,0.3-0.7c0.5-1.1,0.7-2.3,0.7-3.5s-0.2-2.4-0.7-3.5c-0.5-1.1-1.1-2-1.9-2.9c-0.8-0.8-1.8-1.5-2.9-1.9
		c-1.1-0.5-2.3-0.7-3.5-0.7c-1.2,0-2.4,0.2-3.5,0.7c-1.1,0.5-2,1.1-2.9,1.9c-0.8,0.8-1.5,1.8-1.9,2.9c-0.5,1.1-0.7,2.3-0.7,3.5
		s0.2,2.4,0.7,3.5c0.5,1.1,1.1,2,1.9,2.9c0.8,0.8,1.8,1.5,2.9,1.9c1.1,0.5,2.3,0.7,3.5,0.7c1.1,0,2.2-0.2,3.3-0.6l-0.2-0.6
		C43.2,23.9,42.2,24.1,41.1,24.1z"/>
	<path class="st2" d="M48.2,21.4l0.8-0.8l-0.2-0.1l0,0l-0.6-0.2l0,0l-0.7-0.2c0,0,0,0,0-0.1h-0.3l-2.3-0.6l-0.2-0.1l-1-0.3l0.1,0.3
		l0.2,0.7l0,0l0.2,0.7l0.3,0.9l0.2,0.8l0.1,0.3l0.1,0.4l0.1,0.3l0.1,0.4l0.1,0.3l0.1,0.3l0.8-0.8c0.1-0.1,0.2-0.1,0.3-0.2l2.1,2.1
		l1.9-1.9l-2.1-2.1C48.1,21.5,48.2,21.5,48.2,21.4z"/>
</g>
</svg>
