<svg xmlns="http://www.w3.org/2000/svg" viewBox="0 0 339.2 339.2"><defs><style>.cls-1{fill:#29b790;}.cls-2{fill:#012f46;}.cls-3{opacity:0.09;}</style></defs><g id="Layer_2" data-name="Layer 2"><g id="OBJECTS"><path class="cls-1" d="M290.6,287.9l.82-.85a1.56,1.56,0,0,1-.59.7Z"/><path d="M287,290c.3-.18,2.71-1.52,3.62-2.1-.66.68-1.33,1.35-2,2A6.26,6.26,0,0,0,287,290Z"/><path class="cls-2" d="M338.45,170a168.67,168.67,0,0,1-47,117.07c.32-.79-.4-1.54-1.48-1.2-1.32.42-7.33,3.12-7.7,3.29.32-.33,5.59-5.55,6.53-6.74s-.34-2.57-1.72-1.57-7.09,5.92-7.09,5.92.14-3.8.14-5.15-2.51-3.69-2.51-3.69a2.11,2.11,0,0,0,.88-1.19c.1-.67-.21-1.53-2.57-1.44s-6.44,1.3-12.06,3.49-9.61,4-9.61,4-8.45-12.62-16.6-21.11S223,245.3,221.07,236.21s-2-26.52-1.89-38,1-22.25-9.78-26.6-23.94-3.69-26.52-8.66a17.2,17.2,0,0,1-2-9.36s4.75-4.52,6.69-13.61c0,0,5.38-2.35,5.66-6.3s-2.34-5.66-5.37-4.52c0,0,4.15-24.31-17.52-24.31-.39,0-.77,0-1.15,0V.75A169.23,169.23,0,0,1,338.45,170Z"/><path class="cls-1" d="M288.26,292c-.28.08-1.17.34-2.44.65.93-.89,1.86-1.79,2.77-2.7a.9.9,0,0,1,.8.47C289.59,291,289.48,291.62,288.26,292Z"/><path class="cls-1" d="M275.59,286.18a3.8,3.8,0,0,0,1.65-4.18,20.94,20.94,0,0,1-1.34-3.18,13.14,13.14,0,0,0-3.78.86c-1.08.63-1.86,2.87-1.54,4.9S273.18,287.55,275.59,286.18Zm4.51-4.58c0,1.35-.14,5.15-.14,5.15s5.72-4.92,7.09-5.92,2.69.34,1.72,1.57-6.21,6.41-6.53,6.74c.37-.17,6.38-2.87,7.7-3.29,1.08-.34,1.8.41,1.48,1.2l-.82.85c-.91.58-3.32,1.92-3.62,2.1a6.26,6.26,0,0,1,1.61-.07c-.91.91-1.84,1.81-2.77,2.7-3.86,1-11.2,2.55-15.46,2a25.37,25.37,0,0,1-8.79-2.62s5.75,6,5.49,11.42c-.11,2.36-1.48,4.88-4.18,7.54a168.23,168.23,0,0,1-51.61,23H169.22V104.86c.38,0,.76,0,1.15,0,21.67,0,17.52,24.31,17.52,24.31,3-1.14,5.66.52,5.37,4.52s-5.66,6.3-5.66,6.3c-1.94,9.09-6.69,13.61-6.69,13.61a17.2,17.2,0,0,0,2,9.36c2.58,5,15.88,4.37,26.52,8.66s9.86,15.11,9.78,26.6,0,28.92,1.89,38,8.41,16.9,16.56,25.4,16.6,21.11,16.6,21.11,4-1.76,9.61-4,9.7-3.4,12.06-3.49,2.67.77,2.57,1.44a2.11,2.11,0,0,1-.88,1.19S280.1,280.26,280.1,281.6ZM202,227.54c-.23,2.22-2.64,26.37-.84,35.53,1.89,9.61,1.54,24,1.54,24,16-5.15,32-3.89,32-3.89S224,277,212,263.41C200.57,250.54,201.85,229.63,202,227.54Z"/><path class="cls-2" d="M277.24,282a3.8,3.8,0,0,1-1.65,4.18c-2.41,1.37-4.7.43-5-1.6s.46-4.27,1.54-4.9a13.14,13.14,0,0,1,3.78-.86A20.94,20.94,0,0,0,277.24,282Z"/><path class="cls-2" d="M270.36,294.6c4.26.58,11.6-1,15.46-2a170.26,170.26,0,0,1-22.94,18.31c2.7-2.66,4.07-5.18,4.18-7.54.26-5.41-5.49-11.42-5.49-11.42A25.37,25.37,0,0,0,270.36,294.6Z"/><path class="cls-2" d="M234.74,283.2s-16.08-1.26-32,3.89c0,0,.35-14.41-1.54-24-1.8-9.16.61-33.31.84-35.53-.15,2.09-1.43,23,10,35.87C224,277,234.74,283.2,234.74,283.2Z"/><path class="cls-1" d="M211.27,333.93a168.23,168.23,0,0,0,51.61-23c-3.47,3.43-9.16,7.09-17.19,10.91a268.86,268.86,0,0,1-31.23,12l0,.07Z"/><path class="cls-1" d="M170.36,339.19h-1.14v-5.27h42.05A169.22,169.22,0,0,1,170.36,339.19Z"/><path class="cls-1" d="M169.22,333.93v5.27a169.39,169.39,0,0,1-42-5.27Z"/><path class="cls-2" d="M138.73,227.46c.18,1.71,2.67,26.34.85,35.61-1.89,9.61-1.54,24-1.54,24-16-5.15-32-3.89-32-3.89s10.75-6.23,22.77-19.79C140.34,250.35,138.85,229,138.73,227.46Z"/><path class="cls-1" d="M127.17,333.93h-.92l0-.07s-1.17-.36-3.16-1C124.46,333.22,125.81,333.59,127.17,333.93Z"/><path class="cls-2" d="M68.61,279.68c1.09.63,1.86,2.87,1.55,4.9s-2.6,3-5,1.6A3.81,3.81,0,0,1,63.49,282a19.89,19.89,0,0,0,1.34-3.18A13.07,13.07,0,0,1,68.61,279.68Z"/><path class="cls-1" d="M138.73,227.46c.12,1.55,1.61,22.89-10,36C116.75,277,106,283.2,106,283.2s16.07-1.26,32,3.89c0,0-.35-14.41,1.54-24C141.4,253.8,138.91,229.17,138.73,227.46ZM60.63,281.6c0-1.34,2.52-3.69,2.52-3.69a2.11,2.11,0,0,1-.88-1.19c-.11-.67.21-1.53,2.57-1.44s6.44,1.3,12.06,3.49,9.61,4,9.61,4,8.45-12.62,16.6-21.11,14.67-16.31,16.56-25.4,2-26.52,1.89-38-1-22.25,9.78-26.6,23.94-3.69,26.52-8.66a17.2,17.2,0,0,0,2-9.36s-4.75-4.52-6.69-13.61c0,0-5.38-2.35-5.67-6.3s2.35-5.66,5.38-4.52c0,0-4-23.44,16.37-24.28V333.93h-42c-1.36-.34-2.71-.71-4-1.09l-.07,0a259,259,0,0,1-28-11c-14.24-6.78-21.1-13.05-21.36-18.45S79.17,292,79.17,292a25.38,25.38,0,0,1-8.8,2.62c-5.66.77-16.76-2.28-17.89-2.62a2.14,2.14,0,0,1-.95-.51,1,1,0,0,1-.18-1.07c.25-.77,2.17-.44,2.41-.4-.33-.19-3.23-1.81-3.85-2.25-1.32-.94-.52-2.34.88-1.9s7.34,3.12,7.71,3.29c-.32-.33-5.59-5.55-6.53-6.74s.34-2.57,1.71-1.57,7.1,5.92,7.1,5.92S60.63,283,60.63,281.6Zm4.2-2.78A19.89,19.89,0,0,1,63.49,282a3.81,3.81,0,0,0,1.66,4.18c2.41,1.37,4.69.43,5-1.6s-.46-4.27-1.55-4.9A13.07,13.07,0,0,0,64.83,278.82Z"/><path class="cls-2" d="M123.05,332.82a169,169,0,0,1-71.57-41.29l.05-.06a2.14,2.14,0,0,0,.95.51c1.13.34,12.23,3.39,17.89,2.62a25.38,25.38,0,0,0,8.8-2.62s-5.75,6-5.49,11.42S80.8,315.07,95,321.85A259,259,0,0,0,123.05,332.82Z"/><path class="cls-2" d="M49.91,287.75c.62.44,3.52,2.06,3.85,2.25-.24,0-2.16-.37-2.41.4a1,1,0,0,0,.18,1.07l-.05.06A169.23,169.23,0,0,1,169.22.75V104.86c-20.37.84-16.37,24.28-16.37,24.28-3-1.14-5.66.52-5.38,4.52s5.67,6.3,5.67,6.3c1.94,9.09,6.69,13.61,6.69,13.61a17.2,17.2,0,0,1-2,9.36c-2.58,5-15.88,4.37-26.52,8.66s-9.87,15.11-9.78,26.6,0,28.92-1.89,38-8.41,16.9-16.56,25.4-16.6,21.11-16.6,21.11-4-1.76-9.61-4-9.7-3.4-12.06-3.49-2.68.77-2.57,1.44a2.11,2.11,0,0,0,.88,1.19s-2.52,2.35-2.52,3.69.15,5.15.15,5.15-5.72-4.92-7.1-5.92S51,281.17,52,282.4s6.21,6.41,6.53,6.74c-.37-.17-6.38-2.87-7.71-3.29S48.59,286.81,49.91,287.75Z"/><path class="cls-3" d="M170,0a169.23,169.23,0,1,1,0,338.45"/></g></g></svg>