<svg id="Layer_1" data-name="Layer 1" xmlns="http://www.w3.org/2000/svg" viewBox="0 0 446.31 424.97"><defs><style>.cls-1{fill:#e62c2f;}.cls-2{fill:#da0d1a;}.cls-3{fill:#fb8500;}.cls-4{fill:#0c0c0c;}</style></defs><path class="cls-1" d="M354.92,43.51a123.9,123.9,0,0,0-92.45,41.26,8.69,8.69,0,0,1-12.94,0,124.23,124.23,0,0,0-216.69,83c0,102.32,157.17,250,207.71,294.86a23.26,23.26,0,0,0,30.9,0C322,417.77,479.16,270.07,479.16,167.75A124.23,124.23,0,0,0,354.92,43.51Z" transform="translate(-32.84 -43.51)"/><path class="cls-2" d="M327.82,101.74a90,90,0,0,0-67.13,30,6.3,6.3,0,0,1-9.39,0A90.19,90.19,0,0,0,94,191.93C94,266.21,208.09,373.44,244.78,406a16.88,16.88,0,0,0,22.44,0C303.91,373.43,418,266.21,418,191.93a90.18,90.18,0,0,0-90.18-90.19Z" transform="translate(-32.84 -43.51)"/><path id="Path_14626" data-name="Path 14626" class="cls-3" d="M342.18,132c52.6,21.91,46,62.8,37.28,123.19s-10.75,81.89-81.34,109.19-116.69-13.75-149-63-14.5-103.53,19.89-133.9C245,100.45,289.57,110.05,342.18,132Z" transform="translate(-32.84 -43.51)"/><path class="cls-4" d="M217.26,226.94a22,22,0,0,1-15.64-6.49,4.88,4.88,0,1,1,6.9-6.9,12.34,12.34,0,0,0,17.48,0,4.88,4.88,0,0,1,6.91,6.9,22,22,0,0,1-15.65,6.49Z" transform="translate(-32.84 -43.51)"/><path class="cls-4" d="M300.34,226.94a22,22,0,0,1-15.65-6.49,4.88,4.88,0,0,1,6.91-6.9,12.34,12.34,0,0,0,17.48,0,4.88,4.88,0,0,1,6.9,6.9A22,22,0,0,1,300.34,226.94Z" transform="translate(-32.84 -43.51)"/><path class="cls-4" d="M258.8,300.18a35.9,35.9,0,0,1-25.47-10.53,4.88,4.88,0,0,1,6.9-6.91,26.29,26.29,0,0,0,37.14,0,4.88,4.88,0,0,1,6.9,6.91A35.92,35.92,0,0,1,258.8,300.18Z" transform="translate(-32.84 -43.51)"/></svg>