<svg id="Layer_1" data-name="Layer 1" xmlns="http://www.w3.org/2000/svg" viewBox="0 0 167 167"><defs><style>.cls-1{fill:#8ecae6;}.cls-2{fill:#239ebc;}.cls-3{fill:#1d1d1b;}.cls-4,.cls-6,.cls-7,.cls-9{fill:none;}.cls-4{stroke:#1d1d1b;stroke-miterlimit:10;}.cls-5{fill:#fff;}.cls-7{stroke:#fff;}.cls-8{fill:#342326;}.cls-9{stroke:#342326;}.cls-10{fill:#ef846c;}</style></defs><g id="Group_3524" data-name="Group 3524"><g id="Mask_Group_27" data-name="Mask Group 27"><g id="Group_2956" data-name="Group 2956"><path class="cls-1" d="M167,99.7v55.1A12.18,12.18,0,0,1,154.8,167H81.5c27.7-26.8,32.7-65.3,38.2-74.8C136.1,64.1,154.6,86.9,167,99.7Z"/></g></g><g id="Group_3081" data-name="Group 3081"><path id="Path_13937" data-name="Path 13937" class="cls-2" d="M118.86,130.21a11.4,11.4,0,0,0-1,1.9c-.8,2.4.3,5.3.7,6.1a12,12,0,0,0,3.5,4.8,12.36,12.36,0,0,0,4.7,2.4c2.1.6,4.9,1.2,10.9,1.3,6.7.1,9.3-.5,10.3-.8a14.75,14.75,0,0,0,5.3-2.3,14.19,14.19,0,0,0,4.8-7.8,8.87,8.87,0,0,0-.1-5.8,5.31,5.31,0,0,0-2.5-2.8,4.56,4.56,0,0,0-4.1.1c-1.8.8-2.1,2.2-3.4,3.5-2.6,2.5-6.2,1.8-9.6,1.2s-4-1.6-8.6-2.9a25.5,25.5,0,0,0-6.7-1.2,4.05,4.05,0,0,0-3,.8,6.09,6.09,0,0,0-1.2,1.5Z"/><path id="Path_13938" data-name="Path 13938" class="cls-3" d="M121.86,131.91a5.29,5.29,0,0,0-.9,3c0,2.9,2.5,4.8,3.5,5.6s2.3,1.6,7.1,2.5c3.4.4,6.9.6,10.4.7a17.8,17.8,0,0,0,6.1-.4,11.08,11.08,0,0,0,4.2-2.1,8.19,8.19,0,0,0,2.9-3.5,7.88,7.88,0,0,0,.4-4.8,3.65,3.65,0,0,0-1.1-2,2.23,2.23,0,0,0-2.1-.2c-1.6.4-2.3,1.6-3.3,2.5-1.4,1.2-3,1.3-6,1.4a26.74,26.74,0,0,1-7.7-1.1,29.78,29.78,0,0,1-4-1.1c-3.2-1.3-4-2.5-6-2.3a4.22,4.22,0,0,0-3.5,1.8Z"/><path id="Path_13939" data-name="Path 13939" class="cls-4" d="M121.86,131.91a5.29,5.29,0,0,0-.9,3c0,2.9,2.5,4.8,3.5,5.6s2.3,1.6,7.1,2.5c3.4.4,6.9.6,10.4.7a17.8,17.8,0,0,0,6.1-.4,11.08,11.08,0,0,0,4.2-2.1,8.19,8.19,0,0,0,2.9-3.5,7.88,7.88,0,0,0,.4-4.8,3.65,3.65,0,0,0-1.1-2,2.23,2.23,0,0,0-2.1-.2c-1.6.4-2.3,1.6-3.3,2.5-1.4,1.2-3,1.3-6,1.4a26.74,26.74,0,0,1-7.7-1.1,29.78,29.78,0,0,1-4-1.1c-3.2-1.3-4-2.5-6-2.3A4.22,4.22,0,0,0,121.86,131.91Z"/><path id="Path_13940" data-name="Path 13940" class="cls-5" d="M124.86,132.61a2.78,2.78,0,0,0,2.2,3.2,1.7,1.7,0,0,0,1.4-.2,2.16,2.16,0,0,0,.9-1.4,3.58,3.58,0,0,0-.5-3c-.3-.3-.5-.1-1.7-.5-1-.3-1.1-.5-1.4-.4-.8.3-.9,2.1-.9,2.3Z"/><path id="Path_13941" data-name="Path 13941" class="cls-5" d="M131.76,134.41v.7a6.52,6.52,0,0,0,.2,2.4,2.09,2.09,0,0,0,1.6,1.1,1.7,1.7,0,0,0,1,0,2.38,2.38,0,0,0,1.8-.5,2.23,2.23,0,0,0,.6-1.3c.3-.9.6-2.2.2-2.9s-1.2-.2-3.1-.7c-1.3-.4-2.1-1-2.4-.7-.1.2,0,.5.1,1.9Z"/><path id="Path_13942" data-name="Path 13942" class="cls-5" d="M139.56,135.41a4.58,4.58,0,0,0,.1,2,3.11,3.11,0,0,0,.7.9c.5.4.8.3,2.3.4,1.1.1,1.2.2,1.6,0a2.17,2.17,0,0,0,1-1.1c.5-.9.9-2.6.4-3.2s-.9.1-2.4.1c-2,.1-3.1-.9-3.6-.2,0,.4-.1.8-.1,1.1Z"/><path id="Path_13943" data-name="Path 13943" class="cls-5" d="M147.16,134.21c-.3.6.3,1.7.9,2.3a2.92,2.92,0,0,0,2.7.7,4.06,4.06,0,0,0,2.3-1.6,2.81,2.81,0,0,0,1-2.1,2.63,2.63,0,0,0-.7-1.5,3,3,0,0,0-1.1-1.3c-.1,0-.5-.1-1.7.9s-1.3,1.6-2.2,2c-.6.3-1,.2-1.2.6Z"/><path id="Path_13945" data-name="Path 13945" class="cls-6" d="M127.66,112.61a4.49,4.49,0,0,0,.5,1.9,5.55,5.55,0,0,0,1.7,2.3,5.07,5.07,0,0,0,1.6.9,4.61,4.61,0,0,0,3.6-.6,5.77,5.77,0,0,0,2.2-2.7,6,6,0,0,0,.8-2.9c0-2-1.3-4.6-3.4-5.1a4.24,4.24,0,0,0-3.3.8,6.89,6.89,0,0,0-2.4,2.4A4.82,4.82,0,0,0,127.66,112.61Z"/><path id="Path_13948" data-name="Path 13948" class="cls-6" d="M143.56,105.91c-.6.5-.8,1.4-1.1,3.1-.4,2.2-.6,3.3-.2,4.3a6.32,6.32,0,0,0,5.3,3.8,5.55,5.55,0,0,0,5-2.5,5.74,5.74,0,0,0,.2-5.4,7.1,7.1,0,0,0-4.6-3.5C147.36,105.51,145,104.81,143.56,105.91Z"/></g><g id="Ellipse_161" data-name="Ellipse 161"><circle class="cls-5" cx="147.82" cy="109.73" r="5.5"/><circle class="cls-7" cx="147.82" cy="109.73" r="5"/></g><g id="Ellipse_158" data-name="Ellipse 158"><circle class="cls-5" cx="130.82" cy="109.73" r="5.5"/><circle class="cls-7" cx="130.82" cy="109.73" r="5"/></g><g id="Ellipse_159" data-name="Ellipse 159"><circle class="cls-8" cx="131.82" cy="110.73" r="1.5"/><circle class="cls-9" cx="131.82" cy="110.73" r="1"/></g><g id="Ellipse_160" data-name="Ellipse 160"><circle class="cls-8" cx="146.82" cy="110.73" r="1.5"/><circle class="cls-9" cx="146.82" cy="110.73" r="1"/></g><path id="Path_14201" data-name="Path 14201" class="cls-10" d="M159.92,120.24a3.93,3.93,0,0,1-3.9,4h-.3a4.32,4.32,0,0,1-4.1-4.4,3.93,3.93,0,0,1,3.9-4h.3a4.37,4.37,0,0,1,4.1,4.4Z"/><path id="Path_14213" data-name="Path 14213" class="cls-10" d="M125.92,120.24a3.93,3.93,0,0,1-3.9,4h-.3a4.32,4.32,0,0,1-4.1-4.4,3.93,3.93,0,0,1,3.9-4h.3a4.37,4.37,0,0,1,4.1,4.4Z"/></g></svg>